<svg width="170" height="180" viewBox="0 0 170 180" fill="none" xmlns="http://www.w3.org/2000/svg">
<path fill-rule="evenodd" clip-rule="evenodd" d="M34.7381 9.73625e-07C42.5868 5.55311 47.7107 14.7023 47.7107 25.0482C47.7107 41.9827 33.9827 55.7108 17.0482 55.7108C10.739 55.7108 4.87494 53.8052 7.49048e-06 50.5383L1.02311e-05 5C1.03973e-05 2.23858 2.23859 -8.76694e-08 5.00001 0L34.7381 9.73625e-07ZM37.1106 1.0513e-06L165 5.2384e-06C167.761 5.2384e-06 170 2.23858 170 5.00001L170 175C170 177.761 167.761 180 165 180H5C2.23858 180 -1.66191e-07 177.761 0 175L7.38799e-06 52.2414C4.93947 55.3446 10.7843 57.1393 17.0482 57.1393C34.7716 57.1393 49.1393 42.7716 49.1393 25.0482C49.1393 14.9164 44.444 5.88129 37.1106 1.0513e-06ZM17.0476 4.72349C17.4421 4.72349 17.7619 5.04329 17.7619 5.43778V26.0288C17.7619 26.4233 17.4421 26.7431 17.0476 26.7431H2.08297C1.68848 26.7431 1.36868 26.4233 1.36868 26.0288C1.36868 25.6343 1.68848 25.3145 2.08297 25.3145H16.3333V5.43778C16.3333 5.04329 16.6531 4.72349 17.0476 4.72349Z" fill="#2CB289"/>
<path fill-rule="evenodd" clip-rule="evenodd" d="M43.4286 68.8735C43.4286 52.0592 57.0592 38.4286 73.8735 38.4286C90.6878 38.4286 104.318 52.0592 104.318 68.8735C104.318 85.6878 90.6878 99.3184 73.8735 99.3184C57.0592 99.3184 43.4286 85.6878 43.4286 68.8735ZM73.8735 37C56.2703 37 42 51.2703 42 68.8735C42 86.4767 56.2703 100.747 73.8735 100.747C91.4767 100.747 105.747 86.4767 105.747 68.8735C105.747 51.2703 91.4767 37 73.8735 37ZM74.5873 49.3991C74.5873 49.0046 74.2675 48.6848 73.873 48.6848C73.4786 48.6848 73.1588 49.0046 73.1588 49.3991V69.133H59.0122C58.6177 69.133 58.2979 69.4528 58.2979 69.8473C58.2979 70.2418 58.6177 70.5616 59.0122 70.5616H73.873C74.2675 70.5616 74.5873 70.2418 74.5873 69.8473V49.3991Z" fill="#F5F5F7"/>
<path fill-rule="evenodd" clip-rule="evenodd" d="M99.4286 110.873C99.4286 94.0592 113.059 80.4286 129.873 80.4286C146.688 80.4286 160.318 94.0592 160.318 110.873C160.318 127.688 146.688 141.318 129.873 141.318C113.059 141.318 99.4286 127.688 99.4286 110.873ZM129.873 79C112.27 79 98 93.2703 98 110.873C98 128.477 112.27 142.747 129.873 142.747C147.477 142.747 161.747 128.477 161.747 110.873C161.747 93.2703 147.477 79 129.873 79ZM130.587 91.3991C130.587 91.0046 130.268 90.6848 129.873 90.6848C129.479 90.6848 129.159 91.0046 129.159 91.3991V111.133H115.012C114.618 111.133 114.298 111.453 114.298 111.847C114.298 112.242 114.618 112.562 115.012 112.562H129.873C130.268 112.562 130.587 112.242 130.587 111.847V91.3991Z" fill="#F5F5F7"/>
<path d="M18 105L65 134.5L18 164V105Z" stroke="#F5F5F7" stroke-linecap="round" stroke-linejoin="round"/>
</svg>
