<svg width="30" height="30" viewBox="0 0 30 30" fill="none" xmlns="http://www.w3.org/2000/svg">
<circle cx="15" cy="15" r="15" fill="#B9D9F7"/>
<path fill-rule="evenodd" clip-rule="evenodd" d="M7.1428 15.1681C7.1428 10.7359 10.7358 7.14287 15.168 7.14287C19.6002 7.14287 23.1932 10.7359 23.1932 15.1681C23.1932 19.6003 19.6002 23.1933 15.168 23.1933C10.7358 23.1933 7.1428 19.6003 7.1428 15.1681ZM15.168 5.71429C9.94684 5.71429 5.71423 9.9469 5.71423 15.1681C5.71423 20.3893 9.94684 24.6219 15.168 24.6219C20.3892 24.6219 24.6218 20.3893 24.6218 15.1681C24.6218 9.9469 20.3892 5.71429 15.168 5.71429ZM15.8823 9.70591C15.8823 9.31142 15.5625 8.99162 15.1681 8.99162C14.7736 8.99162 14.4538 9.31142 14.4538 9.70591V15.4412C14.4538 15.6952 14.5887 15.9302 14.8081 16.0582L18.0855 17.97C18.4262 18.1687 18.8636 18.0536 19.0624 17.7129C19.2611 17.3721 19.146 16.9348 18.8053 16.736L15.8823 15.0309V9.70591Z" fill="#4B8AC4"/>
</svg>
