<svg width="110" height="30" viewBox="0 0 110 30" fill="none" xmlns="http://www.w3.org/2000/svg">
<circle cx="57" cy="15" r="12" fill="#FDBD82"/>
<path d="M56.9999 23C61.4182 23 64.9999 19.4183 64.9999 15C64.9999 10.5817 61.4182 7 56.9999 7C52.5816 7 48.9999 10.5817 48.9999 15C48.9999 19.4183 52.5816 23 56.9999 23Z" stroke="#E68124" stroke-width="1.40859" stroke-linecap="round" stroke-linejoin="round"/>
<path d="M59.6973 15.8H54.3024C53.9884 15.8 53.6952 15.957 53.5211 16.2182L53.1731 16.7401C52.7571 17.3641 53.2045 18.2 53.9545 18.2H60.0452C60.7952 18.2 61.2426 17.3641 60.8265 16.7401L60.4786 16.2182C60.3044 15.957 60.0112 15.8 59.6973 15.8Z" stroke="#E68124" stroke-width="0.939062"/>
<path d="M60.6345 10.8871L58.5426 12.456L60.6345 13.3973" stroke="#E68124" stroke-width="0.943132" stroke-linejoin="round"/>
<path d="M53.6415 10.8871L55.7334 12.456L53.6415 13.3973" stroke="#E68124" stroke-width="0.943132" stroke-linejoin="round"/>
<circle cx="15" cy="15" r="15" fill="#2CB289"/>
<circle cx="76.3751" cy="15" r="12" fill="#A1E2D3"/>
<path d="M76.4887 23.0018C80.8787 23.0018 84.4375 19.443 84.4375 15.053C84.4375 10.663 80.8787 7.10425 76.4887 7.10425C72.0987 7.10425 68.5399 10.663 68.5399 15.053C68.5399 19.443 72.0987 23.0018 76.4887 23.0018Z" stroke="#439D81" stroke-width="1.40859" stroke-linecap="round" stroke-linejoin="round"/>
<path d="M80.3675 12.7734C80.3675 11.9812 79.8056 11.339 79.1124 11.339C78.4192 11.339 77.8573 11.9812 77.8573 12.7734" stroke="#439D81" stroke-width="0.846063"/>
<path d="M74.9884 12.7734C74.9884 11.9812 74.4265 11.339 73.7333 11.339C73.0401 11.339 72.4781 11.9812 72.4781 12.7734" stroke="#439D81" stroke-width="0.846063"/>
<path d="M80.9376 14.8682H71.6704C71.579 14.8682 71.5087 14.9487 71.5209 15.0392C72.2755 20.6113 80.3325 20.6113 81.0871 15.0392C81.0993 14.9487 81.0289 14.8682 80.9376 14.8682Z" stroke="#439D81" stroke-width="0.939062"/>
<circle cx="97.0416" cy="15" r="12" fill="#FAC0C0"/>
<path d="M97.0573 22.9644C101.447 22.9644 105.006 19.4056 105.006 15.0156C105.006 10.6256 101.447 7.06683 97.0573 7.06683C92.6673 7.06683 89.1085 10.6256 89.1085 15.0156C89.1085 19.4056 92.6673 22.9644 97.0573 22.9644Z" stroke="#EA6D5C" stroke-width="1.40859" stroke-linecap="round" stroke-linejoin="round"/>
<path d="M93.0417 11.7674L96.1923 13.0272" stroke="#EA6D5C" stroke-width="0.939062" stroke-linejoin="round"/>
<path d="M100.992 11.7674L97.8417 13.0272" stroke="#EA6D5C" stroke-width="0.939062" stroke-linejoin="round"/>
<path d="M93.1754 17.4188L100.939 17.4188" stroke="#EA6D5C" stroke-width="0.939062"/>
<circle cx="94.6543" cy="13.3518" r="0.739422" fill="#EA6D5C"/>
<circle r="0.739422" transform="matrix(-1 0 0 1 99.4604 13.3518)" fill="#EA6D5C"/>
<path d="M22.612 8.50292C22.1722 8.02645 21.65 7.64848 21.0752 7.39061C20.5005 7.13273 19.8844 7 19.2623 7C18.6401 7 18.0241 7.13273 17.4493 7.39061C16.8746 7.64848 16.3524 8.02645 15.9126 8.50292L14.9998 9.4913L14.087 8.50292C13.1986 7.54094 11.9936 7.0005 10.7372 7.0005C9.48085 7.0005 8.27591 7.54094 7.38751 8.50292C6.4991 9.46491 6 10.7696 6 12.1301C6 13.4906 6.4991 14.7953 7.38751 15.7573L8.30029 16.7457L14.9998 24L21.6992 16.7457L22.612 15.7573C23.0521 15.281 23.4011 14.7156 23.6393 14.0932C23.8774 13.4708 24 12.8038 24 12.1301C24 11.4564 23.8774 10.7894 23.6393 10.167C23.4011 9.54463 23.0521 8.97917 22.612 8.50292Z" stroke="#F5F5F7" stroke-width="1.5" stroke-linecap="round" stroke-linejoin="round"/>
</svg>
