<svg width="30" height="30" viewBox="0 0 30 30" fill="none" xmlns="http://www.w3.org/2000/svg">
<circle cx="15" cy="15" r="15" fill="#D7BFEA"/>
<path fill-rule="evenodd" clip-rule="evenodd" d="M8.04936 7.39558C7.86234 7.31767 7.64678 7.36032 7.50352 7.50358C7.36025 7.64684 7.31761 7.8624 7.39552 8.04942L13.3459 22.3319C13.4259 22.5239 13.6164 22.6463 13.8242 22.6393C14.0321 22.6323 14.214 22.4974 14.2808 22.3004L16.1607 16.7657C16.1817 16.8516 16.2257 16.9329 16.2928 17L20.6874 21.3946C20.8826 21.5898 21.1992 21.5898 21.3945 21.3946C21.5898 21.1993 21.5898 20.8827 21.3945 20.6875L16.9999 16.2929C16.9328 16.2258 16.8515 16.1818 16.7656 16.1608L22.3004 14.2809C22.4973 14.214 22.6323 14.0322 22.6393 13.8243C22.6463 13.6164 22.5239 13.4259 22.3319 13.3459L8.04936 7.39558ZM13.7598 20.7252L8.78555 8.78561L20.7251 13.7598L15.7591 15.4465C15.612 15.4965 15.4964 15.612 15.4465 15.7592L13.7598 20.7252Z" fill="#7D6392"/>
<path d="M8.04936 7.39558L8.1455 7.16481L8.04936 7.39558ZM7.39552 8.04942L7.16475 8.14556L7.39552 8.04942ZM13.3459 22.3319L13.5766 22.2358L13.3459 22.3319ZM13.8242 22.6393L13.8326 22.8892H13.8327L13.8242 22.6393ZM14.2808 22.3004L14.0441 22.22V22.22L14.2808 22.3004ZM16.1607 16.7657L16.4035 16.7063C16.3771 16.5984 16.2826 16.5208 16.1716 16.516C16.0606 16.5111 15.9597 16.5801 15.924 16.6853L16.1607 16.7657ZM16.2928 17L16.116 17.1767L16.116 17.1767L16.2928 17ZM20.6874 21.3946L20.8642 21.2178L20.6874 21.3946ZM21.3945 20.6875L21.2177 20.8643L21.3945 20.6875ZM16.9999 16.2929L17.1767 16.1161L16.9999 16.2929ZM16.7656 16.1608L16.6852 15.9241C16.58 15.9598 16.511 16.0607 16.5158 16.1717C16.5207 16.2827 16.5983 16.3772 16.7062 16.4036L16.7656 16.1608ZM22.3004 14.2809L22.22 14.0442L22.3004 14.2809ZM22.6393 13.8243L22.8891 13.8327V13.8327L22.6393 13.8243ZM22.3319 13.3459L22.2357 13.5767L22.3319 13.3459ZM8.78555 8.78561L8.88169 8.55484C8.78818 8.51588 8.6804 8.5372 8.60877 8.60883C8.53714 8.68046 8.51582 8.78824 8.55477 8.88175L8.78555 8.78561ZM13.7598 20.7252L13.529 20.8213C13.569 20.9173 13.6642 20.9785 13.7682 20.975C13.8721 20.9715 13.963 20.904 13.9965 20.8056L13.7598 20.7252ZM20.7251 13.7598L20.8055 13.9966C20.904 13.9631 20.9715 13.8722 20.975 13.7682C20.9785 13.6643 20.9172 13.5691 20.8212 13.5291L20.7251 13.7598ZM15.7591 15.4465L15.8395 15.6832H15.8395L15.7591 15.4465ZM15.4465 15.7592L15.6832 15.8396V15.8396L15.4465 15.7592ZM7.68029 7.68035C7.75193 7.60872 7.8597 7.5874 7.95321 7.62636L8.1455 7.16481C7.86497 7.04794 7.54163 7.11191 7.32674 7.3268L7.68029 7.68035ZM7.6263 7.95328C7.58734 7.85976 7.60866 7.75199 7.68029 7.68035L7.32674 7.3268C7.11185 7.5417 7.04788 7.86503 7.16475 8.14556L7.6263 7.95328ZM13.5766 22.2358L7.6263 7.95328L7.16475 8.14556L13.1151 22.4281L13.5766 22.2358ZM13.8158 22.3895C13.7119 22.393 13.6166 22.3318 13.5766 22.2358L13.1151 22.4281C13.2351 22.7161 13.5208 22.8997 13.8326 22.8892L13.8158 22.3895ZM14.0441 22.22C14.0107 22.3185 13.9198 22.386 13.8158 22.3895L13.8327 22.8892C14.1445 22.8787 14.4172 22.6763 14.5176 22.3808L14.0441 22.22ZM15.924 16.6853L14.0441 22.22L14.5176 22.3808L16.3974 16.8461L15.924 16.6853ZM16.4695 16.8232C16.4357 16.7894 16.414 16.749 16.4035 16.7063L15.9179 16.8252C15.9494 16.9542 16.0157 17.0765 16.116 17.1767L16.4695 16.8232ZM20.8642 21.2178L16.4695 16.8232L16.116 17.1767L20.5106 21.5714L20.8642 21.2178ZM21.2177 21.2178C21.1201 21.3154 20.9618 21.3154 20.8642 21.2178L20.5106 21.5714C20.8035 21.8643 21.2784 21.8643 21.5713 21.5714L21.2177 21.2178ZM21.2177 20.8643C21.3153 20.9619 21.3153 21.1202 21.2177 21.2178L21.5713 21.5714C21.8642 21.2785 21.8642 20.8036 21.5713 20.5107L21.2177 20.8643ZM16.8231 16.4696L21.2177 20.8643L21.5713 20.5107L17.1767 16.1161L16.8231 16.4696ZM16.7062 16.4036C16.7489 16.4141 16.7893 16.4358 16.8231 16.4696L17.1767 16.1161C17.0763 16.0158 16.954 15.9495 16.825 15.9179L16.7062 16.4036ZM22.22 14.0442L16.6852 15.9241L16.846 16.3975L22.3808 14.5176L22.22 14.0442ZM22.3894 13.8159C22.3859 13.9198 22.3184 14.0107 22.22 14.0442L22.3808 14.5176C22.6762 14.4173 22.8786 14.1445 22.8891 13.8327L22.3894 13.8159ZM22.2357 13.5767C22.3317 13.6167 22.3929 13.7119 22.3894 13.8159L22.8891 13.8327C22.8996 13.5209 22.716 13.2351 22.428 13.1151L22.2357 13.5767ZM7.95321 7.62636L22.2357 13.5767L22.428 13.1151L8.1455 7.16481L7.95321 7.62636ZM8.55477 8.88175L13.529 20.8213L13.9905 20.629L9.01632 8.68946L8.55477 8.88175ZM20.8212 13.5291L8.88169 8.55484L8.6894 9.01638L20.629 13.9906L20.8212 13.5291ZM15.8395 15.6832L20.8055 13.9966L20.6447 13.5231L15.6787 15.2098L15.8395 15.6832ZM15.6832 15.8396C15.7082 15.766 15.7659 15.7082 15.8395 15.6832L15.6787 15.2098C15.458 15.2848 15.2847 15.4581 15.2097 15.6788L15.6832 15.8396ZM13.9965 20.8056L15.6832 15.8396L15.2097 15.6788L13.5231 20.6448L13.9965 20.8056Z" fill="#7D6392"/>
</svg>
