<svg width="24" height="209" viewBox="0 0 24 209" fill="none" xmlns="http://www.w3.org/2000/svg">
<circle cx="12" cy="160" r="12" fill="#FDBD82"/>
<path d="M12 168C16.4183 168 20 164.418 20 160C20 155.582 16.4183 152 12 152C7.58172 152 4 155.582 4 160C4 164.418 7.58172 168 12 168Z" stroke="#E68124" stroke-width="1.40859" stroke-linecap="round" stroke-linejoin="round"/>
<path d="M14.6974 160.8H9.30252C8.98854 160.8 8.69534 160.957 8.52117 161.218L8.17326 161.74C7.75722 162.364 8.20458 163.2 8.9546 163.2H15.0453C15.7953 163.2 16.2427 162.364 15.8266 161.74L15.4787 161.218C15.3046 160.957 15.0114 160.8 14.6974 160.8Z" stroke="#E68124" stroke-width="0.939062"/>
<path d="M15.6343 155.887L13.5425 157.456L15.6343 158.397" stroke="#E68124" stroke-width="0.943132" stroke-linejoin="round"/>
<path d="M8.64153 155.887L10.7334 157.456L8.64153 158.397" stroke="#E68124" stroke-width="0.943132" stroke-linejoin="round"/>
<circle cx="12" cy="197" r="12" fill="#FAC0C0"/>
<path d="M12.0147 204.964C16.4047 204.964 19.9635 201.406 19.9635 197.016C19.9635 192.626 16.4047 189.067 12.0147 189.067C7.62471 189.067 4.06592 192.626 4.06592 197.016C4.06592 201.406 7.62471 204.964 12.0147 204.964Z" stroke="#EA6D5C" stroke-width="1.40859" stroke-linecap="round" stroke-linejoin="round"/>
<path d="M7.99975 193.767L11.1503 195.027" stroke="#EA6D5C" stroke-width="0.939062" stroke-linejoin="round"/>
<path d="M15.9509 193.767L12.8004 195.027" stroke="#EA6D5C" stroke-width="0.939062" stroke-linejoin="round"/>
<path d="M8.13306 199.419H15.897" stroke="#EA6D5C" stroke-width="0.939062"/>
<circle cx="9.61247" cy="195.352" r="0.739422" fill="#EA6D5C"/>
<circle r="0.739422" transform="matrix(-1 0 0 1 14.4188 195.352)" fill="#EA6D5C"/>
<circle cx="12" cy="49" r="12" fill="#9FD4EB"/>
<path d="M12 57C16.4183 57 20 53.4183 20 49C20 44.5817 16.4183 41 12 41C7.58172 41 4 44.5817 4 49C4 53.4183 7.58172 57 12 57Z" stroke="#4291B4" stroke-width="1.40859" stroke-linecap="round" stroke-linejoin="round"/>
<ellipse cx="9.61271" cy="49.053" rx="0.739422" ry="0.924277" fill="#4291B4"/>
<ellipse cx="14.4186" cy="49.053" rx="0.739422" ry="0.924277" fill="#4291B4"/>
<path d="M7.7644 46.6499V46.6499C8.50901 47.2882 9.60777 47.2882 10.3524 46.6499V46.6499" stroke="#4291B4" stroke-width="0.939062" stroke-linecap="square" stroke-linejoin="round"/>
<path d="M13.6792 46.6499V46.6499C14.4238 47.2882 15.5226 47.2882 16.2672 46.6499V46.6499" stroke="#4291B4" stroke-width="0.939062" stroke-linecap="square" stroke-linejoin="round"/>
<path d="M9.08105 54.0872V54.0872C10.6709 52.0297 13.7763 52.0297 15.3661 54.0872V54.0872" stroke="#4291B4" stroke-width="0.939062" stroke-linecap="round" stroke-linejoin="round"/>
<circle cx="12" cy="12" r="12" fill="#D1D2E2"/>
<path d="M11.9844 19.9644C16.3744 19.9644 19.9332 16.4056 19.9332 12.0156C19.9332 7.62562 16.3744 4.06683 11.9844 4.06683C7.59444 4.06683 4.03564 7.62562 4.03564 12.0156C4.03564 16.4056 7.59444 19.9644 11.9844 19.9644Z" stroke="#747BE1" stroke-width="1.40859" stroke-linecap="round" stroke-linejoin="round"/>
<path d="M16.7958 11.2798C16.7958 14.3134 14.644 16.0861 11.9896 16.0861C9.33518 16.0861 7.18335 14.3134 7.18335 11.2798" stroke="#747BE1" stroke-width="0.939062"/>
<circle cx="9.58097" cy="9.61247" r="0.739422" fill="#747BE1"/>
<circle r="0.739422" transform="matrix(-1 0 0 1 14.387 9.61247)" fill="#747BE1"/>
<circle cx="12" cy="86" r="12" fill="#F1DBA2"/>
<path d="M11.9844 94.0019C16.3744 94.0019 19.9332 90.4431 19.9332 86.0531C19.9332 81.6631 16.3744 78.1043 11.9844 78.1043C7.59444 78.1043 4.03564 81.6631 4.03564 86.0531C4.03564 90.4431 7.59444 94.0019 11.9844 94.0019Z" stroke="#D1A124" stroke-width="1.40859" stroke-linecap="round" stroke-linejoin="round"/>
<path d="M15.8665 84.3894C15.8665 83.5726 15.3699 82.9105 14.7573 82.9105C14.1448 82.9105 13.6482 83.5726 13.6482 84.3894" stroke="#D1A124" stroke-width="0.846063"/>
<path d="M10.321 84.3894C10.321 83.5726 9.82447 82.9105 9.21192 82.9105C8.59936 82.9105 8.10278 83.5726 8.10278 84.3894" stroke="#D1A124" stroke-width="0.846063"/>
<circle cx="11.9843" cy="86.7925" r="0.924277" fill="#D1A124"/>
<circle cx="12" cy="123" r="12" fill="#A1E2D3"/>
<path d="M12.1141 131.002C16.5041 131.002 20.0629 127.443 20.0629 123.053C20.0629 118.663 16.5041 115.104 12.1141 115.104C7.72407 115.104 4.16528 118.663 4.16528 123.053C4.16528 127.443 7.72407 131.002 12.1141 131.002Z" stroke="#439D81" stroke-width="1.40859" stroke-linecap="round" stroke-linejoin="round"/>
<path d="M15.9929 120.773C15.9929 119.981 15.431 119.339 14.7378 119.339C14.0446 119.339 13.4827 119.981 13.4827 120.773" stroke="#439D81" stroke-width="0.846063"/>
<path d="M10.613 120.773C10.613 119.981 10.0511 119.339 9.3579 119.339C8.66472 119.339 8.10278 119.981 8.10278 120.773" stroke="#439D81" stroke-width="0.846063"/>
<path d="M16.5626 122.868H7.29539C7.20404 122.868 7.13366 122.949 7.14592 123.039C7.90047 128.611 15.9575 128.611 16.7121 123.039C16.7243 122.949 16.6539 122.868 16.5626 122.868Z" stroke="#439D81" stroke-width="0.939062"/>
</svg>
