<svg width="65" height="24" viewBox="0 0 65 24" fill="none" xmlns="http://www.w3.org/2000/svg">
<circle cx="12" cy="12" r="12" fill="#FDBD82"/>
<path d="M12 20C16.4183 20 20 16.4183 20 12C20 7.58172 16.4183 4 12 4C7.58172 4 4 7.58172 4 12C4 16.4183 7.58172 20 12 20Z" stroke="#E68124" stroke-width="1.40859" stroke-linecap="round" stroke-linejoin="round"/>
<path d="M14.6974 12.8H9.30252C8.98854 12.8 8.69534 12.957 8.52117 13.2182L8.17326 13.7401C7.75722 14.3641 8.20458 15.2 8.9546 15.2H15.0453C15.7953 15.2 16.2427 14.3641 15.8266 13.7401L15.4787 13.2182C15.3046 12.957 15.0114 12.8 14.6974 12.8Z" stroke="#E68124" stroke-width="0.939062"/>
<path d="M15.6343 7.88705L13.5425 9.45595L15.6343 10.3973" stroke="#E68124" stroke-width="0.943132" stroke-linejoin="round"/>
<path d="M8.64153 7.88705L10.7334 9.45595L8.64153 10.3973" stroke="#E68124" stroke-width="0.943132" stroke-linejoin="round"/>
<circle cx="31.375" cy="12" r="12" fill="#A1E2D3"/>
<path d="M31.4886 20.0018C35.8786 20.0018 39.4374 16.443 39.4374 12.053C39.4374 7.66304 35.8786 4.10425 31.4886 4.10425C27.0986 4.10425 23.5398 7.66304 23.5398 12.053C23.5398 16.443 27.0986 20.0018 31.4886 20.0018Z" stroke="#439D81" stroke-width="1.40859" stroke-linecap="round" stroke-linejoin="round"/>
<path d="M35.3674 9.77344C35.3674 8.98123 34.8055 8.33902 34.1123 8.33902C33.4191 8.33902 32.8572 8.98123 32.8572 9.77344" stroke="#439D81" stroke-width="0.846063"/>
<path d="M29.9883 9.77344C29.9883 8.98123 29.4263 8.33902 28.7331 8.33902C28.04 8.33902 27.478 8.98123 27.478 9.77344" stroke="#439D81" stroke-width="0.846063"/>
<path d="M35.9376 11.8682H26.6704C26.579 11.8682 26.5087 11.9487 26.5209 12.0392C27.2755 17.6113 35.3325 17.6113 36.0871 12.0392C36.0993 11.9487 36.0289 11.8682 35.9376 11.8682Z" stroke="#439D81" stroke-width="0.939062"/>
<circle cx="52.0415" cy="12" r="12" fill="#FAC0C0"/>
<path d="M52.0572 19.9644C56.4472 19.9644 60.006 16.4056 60.006 12.0156C60.006 7.62562 56.4472 4.06683 52.0572 4.06683C47.6672 4.06683 44.1084 7.62562 44.1084 12.0156C44.1084 16.4056 47.6672 19.9644 52.0572 19.9644Z" stroke="#EA6D5C" stroke-width="1.40859" stroke-linecap="round" stroke-linejoin="round"/>
<path d="M48.0415 8.76736L51.1921 10.0272" stroke="#EA6D5C" stroke-width="0.939062" stroke-linejoin="round"/>
<path d="M55.9922 8.76736L52.8416 10.0272" stroke="#EA6D5C" stroke-width="0.939062" stroke-linejoin="round"/>
<path d="M48.1753 14.4188L55.9392 14.4188" stroke="#EA6D5C" stroke-width="0.939062"/>
<circle cx="49.6542" cy="10.3518" r="0.739422" fill="#EA6D5C"/>
<circle r="0.739422" transform="matrix(-1 0 0 1 54.4603 10.3518)" fill="#EA6D5C"/>
</svg>
