<svg width="84" height="100" viewBox="0 0 84 100" fill="none" xmlns="http://www.w3.org/2000/svg">
<rect width="84" height="100" rx="8.03499" fill="#2CB289"/>
<path d="M30.5023 83.2274H27.0528L26.278 85.3763H25.1583L28.3025 77.1426H29.2526L32.4024 85.3763H31.2884L30.5023 83.2274ZM27.3808 82.3339H30.18L28.7775 78.4828L27.3808 82.3339ZM34.4835 85.3763H33.4373V76.6902H34.4835V85.3763ZM38.7021 85.4894C37.8727 85.4894 37.1979 85.218 36.6776 84.6751C36.1573 84.1284 35.8972 83.3989 35.8972 82.4866V82.2943C35.8972 81.6873 36.0122 81.1463 36.2422 80.6713C36.4759 80.1925 36.8001 79.8193 37.2148 79.5516C37.6333 79.2802 38.0857 79.1445 38.572 79.1445C39.3675 79.1445 39.9858 79.4065 40.4269 79.9305C40.868 80.4546 41.0885 81.2048 41.0885 82.1812V82.6167H36.9434C36.9585 83.2199 37.1338 83.7081 37.4693 84.0813C37.8086 84.4508 38.2384 84.6355 38.7586 84.6355C39.1281 84.6355 39.441 84.5601 39.6974 84.4093C39.9537 84.2585 40.1781 84.0587 40.3703 83.8099L41.0093 84.3075C40.4966 85.0954 39.7275 85.4894 38.7021 85.4894ZM38.572 80.004C38.1498 80.004 37.7954 80.1586 37.5089 80.4677C37.2224 80.7731 37.0452 81.2029 36.9773 81.7571H40.0423V81.6779C40.0122 81.1463 39.8689 80.7354 39.6126 80.4451C39.3562 80.1511 39.0094 80.004 38.572 80.004ZM42.0555 82.266C42.0555 81.3122 42.2761 80.5545 42.7172 79.9927C43.1582 79.4272 43.7426 79.1445 44.4702 79.1445C45.2167 79.1445 45.7991 79.4084 46.2176 79.9362L46.2685 79.2576H47.2242V85.2293C47.2242 86.021 46.9886 86.6449 46.5173 87.1011C46.0498 87.5572 45.4202 87.7853 44.6285 87.7853C44.1875 87.7853 43.7558 87.6911 43.3336 87.5026C42.9113 87.3141 42.589 87.0558 42.3665 86.7278L42.9094 86.1001C43.3581 86.6543 43.9066 86.9314 44.555 86.9314C45.064 86.9314 45.4598 86.7882 45.7426 86.5016C46.0291 86.2151 46.1724 85.8117 46.1724 85.2915V84.7656C45.7539 85.2481 45.1827 85.4894 44.4589 85.4894C43.7426 85.4894 43.162 85.201 42.7172 84.6242C42.2761 84.0474 42.0555 83.2613 42.0555 82.266ZM43.1073 82.3848C43.1073 83.0747 43.2487 83.6176 43.5315 84.0134C43.8142 84.4055 44.2101 84.6016 44.719 84.6016C45.3788 84.6016 45.8632 84.3018 46.1724 83.7024V80.9088C45.8519 80.3245 45.3712 80.0323 44.7303 80.0323C44.2214 80.0323 43.8237 80.2302 43.5371 80.6261C43.2506 81.0219 43.1073 81.6082 43.1073 82.3848ZM51.7652 80.1963C51.6068 80.1699 51.4353 80.1567 51.2506 80.1567C50.5644 80.1567 50.0988 80.4489 49.8538 81.0332V85.3763H48.8076V79.2576H49.8255L49.8425 79.9644C50.1855 79.4178 50.6719 79.1445 51.3015 79.1445C51.505 79.1445 51.6596 79.1709 51.7652 79.2236V80.1963ZM55.1582 85.4894C54.3288 85.4894 53.6539 85.218 53.1337 84.6751C52.6134 84.1284 52.3533 83.3989 52.3533 82.4866V82.2943C52.3533 81.6873 52.4683 81.1463 52.6983 80.6713C52.932 80.1925 53.2562 79.8193 53.6709 79.5516C54.0894 79.2802 54.5418 79.1445 55.0281 79.1445C55.8236 79.1445 56.4419 79.4065 56.883 79.9305C57.3241 80.4546 57.5446 81.2048 57.5446 82.1812V82.6167H53.3995C53.4146 83.2199 53.5899 83.7081 53.9254 84.0813C54.2647 84.4508 54.6945 84.6355 55.2147 84.6355C55.5842 84.6355 55.8971 84.5601 56.1535 84.4093C56.4098 84.2585 56.6341 84.0587 56.8264 83.8099L57.4654 84.3075C56.9527 85.0954 56.1836 85.4894 55.1582 85.4894ZM55.0281 80.004C54.6059 80.004 54.2515 80.1586 53.965 80.4677C53.6785 80.7731 53.5013 81.2029 53.4334 81.7571H56.4984V81.6779C56.4683 81.1463 56.325 80.7354 56.0686 80.4451C55.8123 80.1511 55.4654 80.004 55.0281 80.004Z" fill="black"/>
<circle cx="41.6881" cy="39.6881" r="26.6881" fill="#ECDBB0"/>
<path d="M41.6782 57.3564C51.4416 57.3564 59.3564 49.4416 59.3564 39.6782C59.3564 29.9148 51.4416 22 41.6782 22C31.9148 22 24 29.9148 24 39.6782C24 49.4416 31.9148 57.3564 41.6782 57.3564Z" stroke="#D1A124" stroke-width="3.57906" stroke-linecap="round" stroke-linejoin="round"/>
<path d="M49.7904 36.2211C49.7904 34.4047 48.686 32.9321 47.3237 32.9321C45.9613 32.9321 44.8569 34.4047 44.8569 36.2211" stroke="#D1A124" stroke-width="2.14974"/>
<path d="M38.3016 36.0996C38.3016 34.2832 37.1972 32.8106 35.8349 32.8106C34.4726 32.8106 33.3682 34.2832 33.3682 36.0996" stroke="#D1A124" stroke-width="2.14974"/>
<circle cx="41.33" cy="41.3681" r="2.0556" fill="#D1A124"/>
</svg>
