<svg width="84" height="100" viewBox="0 0 84 100" fill="none" xmlns="http://www.w3.org/2000/svg">
<rect width="84" height="100" rx="8.03499" fill="#2CB289"/>
<path d="M12.0415 83.1529V86.3763H10.9557V78.1426H13.9924C14.8935 78.1426 15.5985 78.3726 16.1074 78.8325C16.6201 79.2924 16.8765 79.9013 16.8765 80.6591C16.8765 81.4583 16.6258 82.0747 16.1244 82.5083C15.6267 82.938 14.9123 83.1529 13.9811 83.1529H12.0415ZM12.0415 82.2651H13.9924C14.573 82.2651 15.0179 82.1294 15.327 81.8579C15.6362 81.5827 15.7907 81.1869 15.7907 80.6704C15.7907 80.1803 15.6362 79.7882 15.327 79.4941C15.0179 79.2001 14.5938 79.0474 14.0546 79.0361H12.0415V82.2651ZM21.0555 81.1963C20.8972 81.1699 20.7257 81.1567 20.5409 81.1567C19.8548 81.1567 19.3892 81.4489 19.1442 82.0332V86.3763H18.098V80.2576H19.1159L19.1328 80.9644C19.4759 80.4178 19.9622 80.1445 20.5918 80.1445C20.7954 80.1445 20.95 80.1708 21.0555 80.2236V81.1963ZM24.4486 86.4894C23.6192 86.4894 22.9443 86.2179 22.4241 85.6751C21.9038 85.1284 21.6437 84.3989 21.6437 83.4866V83.2943C21.6437 82.6873 21.7587 82.1463 21.9886 81.6713C22.2224 81.1925 22.5466 80.8193 22.9613 80.5516C23.3798 80.2802 23.8322 80.1445 24.3185 80.1445C25.114 80.1445 25.7322 80.4065 26.1733 80.9305C26.6144 81.4545 26.835 82.2048 26.835 83.1812V83.6166H22.6898C22.7049 84.2198 22.8802 84.7081 23.2158 85.0813C23.5551 85.4507 23.9848 85.6355 24.5051 85.6355C24.8746 85.6355 25.1875 85.5601 25.4438 85.4093C25.7002 85.2585 25.9245 85.0587 26.1168 84.8098L26.7558 85.3075C26.2431 86.0954 25.474 86.4894 24.4486 86.4894ZM24.3185 81.004C23.8963 81.004 23.5419 81.1586 23.2553 81.4677C22.9688 81.7731 22.7916 82.2029 22.7238 82.7571H25.7888V82.6779C25.7586 82.1463 25.6154 81.7354 25.359 81.4451C25.1027 81.1511 24.7558 81.004 24.3185 81.004ZM27.7737 83.2604C27.7737 82.6609 27.8906 82.1218 28.1243 81.643C28.3618 81.1642 28.6898 80.7948 29.1083 80.5347C29.5305 80.2745 30.0112 80.1445 30.5503 80.1445C31.3835 80.1445 32.0564 80.4329 32.5692 81.0097C33.0856 81.5865 33.3439 82.3537 33.3439 83.3113V83.3848C33.3439 83.9804 33.2289 84.5158 32.9989 84.9908C32.7727 85.4621 32.4466 85.8296 32.0206 86.0935C31.5984 86.3574 31.112 86.4894 30.5616 86.4894C29.7322 86.4894 29.0593 86.201 28.5428 85.6242C28.0301 85.0474 27.7737 84.2839 27.7737 83.3339V83.2604ZM28.8255 83.3848C28.8255 84.0634 28.982 84.6081 29.2949 85.0191C29.6116 85.43 30.0338 85.6355 30.5616 85.6355C31.0932 85.6355 31.5154 85.4281 31.8283 85.0134C32.1413 84.595 32.2977 84.0106 32.2977 83.2604C32.2977 82.5893 32.1375 82.0464 31.817 81.6317C31.5004 81.2133 31.0781 81.004 30.5503 81.004C30.0338 81.004 29.6172 81.2095 29.3006 81.6204C28.9839 82.0313 28.8255 82.6195 28.8255 83.3848ZM37.1101 85.6355C37.4834 85.6355 37.8095 85.5224 38.0884 85.2962C38.3674 85.07 38.522 84.7872 38.5522 84.4479H39.5418C39.5229 84.7985 39.4023 85.1322 39.1799 85.4489C38.9574 85.7655 38.6596 86.0181 38.2864 86.2066C37.9169 86.3951 37.5248 86.4894 37.1101 86.4894C36.277 86.4894 35.6134 86.2123 35.1196 85.6581C34.6295 85.1001 34.3844 84.3386 34.3844 83.3735V83.1982C34.3844 82.6025 34.4937 82.0728 34.7124 81.6091C34.9311 81.1454 35.244 80.7854 35.6511 80.529C36.0621 80.2726 36.5465 80.1445 37.1045 80.1445C37.7906 80.1445 38.3599 80.3499 38.8123 80.7609C39.2685 81.1718 39.5116 81.7052 39.5418 82.3612H38.5522C38.522 81.9654 38.3712 81.6412 38.0998 81.3886C37.8321 81.1322 37.5003 81.004 37.1045 81.004C36.5729 81.004 36.1601 81.1963 35.866 81.5808C35.5757 81.9616 35.4306 82.5139 35.4306 83.2377V83.4357C35.4306 84.1407 35.5757 84.6835 35.866 85.0643C36.1563 85.4451 36.571 85.6355 37.1101 85.6355ZM44.4956 85.7712C44.0884 86.25 43.4909 86.4894 42.7029 86.4894C42.0507 86.4894 41.5531 86.3009 41.21 85.9239C40.8707 85.5431 40.6992 84.9814 40.6954 84.2387V80.2576H41.7416V84.2104C41.7416 85.1378 42.1186 85.6015 42.8726 85.6015C43.6718 85.6015 44.2034 85.3037 44.4673 84.7081V80.2576H45.5135V86.3763H44.5182L44.4956 85.7712ZM52.2769 83.3848C52.2769 84.316 52.0639 85.0662 51.6379 85.6355C51.2118 86.2047 50.635 86.4894 49.9074 86.4894C49.1647 86.4894 48.5804 86.2538 48.1544 85.7825V88.7288H47.1082V80.2576H48.0639L48.1148 80.9362C48.5408 80.4084 49.1327 80.1445 49.8905 80.1445C50.6256 80.1445 51.2062 80.4216 51.6322 80.9757C52.062 81.5299 52.2769 82.3009 52.2769 83.2886V83.3848ZM51.2307 83.266C51.2307 82.5761 51.0837 82.0313 50.7896 81.6317C50.4955 81.2321 50.0922 81.0323 49.5794 81.0323C48.9461 81.0323 48.471 81.3132 48.1544 81.8749V84.7985C48.4673 85.3565 48.9461 85.6355 49.5907 85.6355C50.0922 85.6355 50.4899 85.4375 50.784 85.0417C51.0818 84.6421 51.2307 84.0502 51.2307 83.266ZM57.389 86.3763C57.3287 86.2556 57.2797 86.0408 57.242 85.7316C56.7556 86.2368 56.1751 86.4894 55.5002 86.4894C54.897 86.4894 54.4013 86.3197 54.013 85.9804C53.6284 85.6374 53.4362 85.2038 53.4362 84.6798C53.4362 84.0426 53.6774 83.5488 54.16 83.1982C54.6463 82.8438 55.3287 82.6666 56.2071 82.6666H57.225V82.1859C57.225 81.8202 57.1157 81.5299 56.897 81.315C56.6784 81.0964 56.356 80.9871 55.93 80.9871C55.5568 80.9871 55.2439 81.0813 54.9913 81.2698C54.7387 81.4583 54.6124 81.6864 54.6124 81.9541H53.5606C53.5606 81.6487 53.668 81.3546 53.8829 81.0719C54.1016 80.7854 54.3956 80.5592 54.7651 80.3933C55.1383 80.2274 55.5474 80.1445 55.9922 80.1445C56.6972 80.1445 57.2495 80.3216 57.6491 80.676C58.0488 81.0266 58.2561 81.5111 58.2712 82.1294V84.9456C58.2712 85.5073 58.3428 85.954 58.4861 86.2858V86.3763H57.389ZM55.6529 85.5789C55.9809 85.5789 56.2919 85.4941 56.586 85.3244C56.8801 85.1548 57.0931 84.9343 57.225 84.6628V83.4074H56.405C55.1232 83.4074 54.4823 83.7825 54.4823 84.5327C54.4823 84.8607 54.5917 85.1171 54.8103 85.3018C55.029 85.4866 55.3098 85.5789 55.6529 85.5789ZM59.6567 83.266C59.6567 82.3273 59.8791 81.5733 60.324 81.004C60.7688 80.431 61.3513 80.1445 62.0714 80.1445C62.7877 80.1445 63.355 80.3895 63.7735 80.8796V77.6902H64.8197V86.3763H63.8583L63.8074 85.7203C63.389 86.233 62.8065 86.4894 62.06 86.4894C61.3513 86.4894 60.7726 86.1991 60.324 85.6185C59.8791 85.0379 59.6567 84.2802 59.6567 83.3452V83.266ZM60.7028 83.3848C60.7028 84.0785 60.8461 84.6213 61.1326 85.0134C61.4191 85.4055 61.815 85.6015 62.3202 85.6015C62.9837 85.6015 63.4681 85.3037 63.7735 84.7081V81.8975C63.4606 81.3207 62.9799 81.0323 62.3315 81.0323C61.8188 81.0323 61.4191 81.2302 61.1326 81.6261C60.8461 82.0219 60.7028 82.6082 60.7028 83.3848ZM66.1712 83.2604C66.1712 82.6609 66.2881 82.1218 66.5219 81.643C66.7594 81.1642 67.0874 80.7948 67.5058 80.5347C67.9281 80.2745 68.4087 80.1445 68.9479 80.1445C69.781 80.1445 70.454 80.4329 70.9667 81.0097C71.4832 81.5865 71.7414 82.3537 71.7414 83.3113V83.3848C71.7414 83.9804 71.6264 84.5158 71.3965 84.9908C71.1703 85.4621 70.8442 85.8296 70.4182 86.0935C69.9959 86.3574 69.5096 86.4894 68.9592 86.4894C68.1298 86.4894 67.4568 86.201 66.9403 85.6242C66.4276 85.0474 66.1712 84.2839 66.1712 83.3339V83.2604ZM67.2231 83.3848C67.2231 84.0634 67.3795 84.6081 67.6924 85.0191C68.0091 85.43 68.4314 85.6355 68.9592 85.6355C69.4907 85.6355 69.913 85.4281 70.2259 85.0134C70.5388 84.595 70.6953 84.0106 70.6953 83.2604C70.6953 82.5893 70.535 82.0464 70.2146 81.6317C69.8979 81.2133 69.4757 81.004 68.9479 81.004C68.4314 81.004 68.0148 81.2095 67.6981 81.6204C67.3814 82.0313 67.2231 82.6195 67.2231 83.3848Z" fill="black"/>
<circle cx="41.6881" cy="40.6881" r="26.6881" fill="#DBBAE3"/>
<path d="M42.0077 58.7998C51.834 58.7998 59.7998 50.834 59.7998 41.0077C59.7998 31.1814 51.834 23.2156 42.0077 23.2156C32.1814 23.2156 24.2156 31.1814 24.2156 41.0077C24.2156 50.834 32.1814 58.7998 42.0077 58.7998Z" stroke="#AA6DB9" stroke-width="3" stroke-linecap="round" stroke-linejoin="round"/>
<path d="M44.3913 32.7861C43.8167 36.5733 49.1632 38.0027 50.5552 34.434M39.7242 32.7861C40.2988 36.5733 34.9522 38.0027 33.5603 34.434" stroke="#AA6DB9" stroke-width="2.38604" stroke-linecap="square" stroke-linejoin="round"/>
<path d="M49.9828 46.9922C50.628 48.5893 49.4524 50.332 47.7299 50.332H35.8779C34.133 50.332 32.9569 48.5474 33.6451 46.9439L33.9444 46.2466C37.1233 38.84 46.7388 38.9615 49.7623 46.4464L49.9828 46.9922Z" stroke="#AA6DB9" stroke-width="2.36905"/>
<path d="M51.127 30.9687L50.7065 30.9895C48.7187 31.0876 46.793 30.2824 45.4668 28.7984M32.9883 30.9687L33.4088 30.9895C35.3965 31.0876 37.3222 30.2824 38.6484 28.7984" stroke="#AA6DB9" stroke-width="1.64519"/>
</svg>
