<svg width="34" height="34" viewBox="0 0 34 34" fill="none" xmlns="http://www.w3.org/2000/svg">
<rect x="0.6" y="0.6" width="32.8" height="32.8" rx="16.4" stroke="#208062" stroke-width="1.2"/>
<path d="M21.5735 10.8192C22.0259 10.5025 22.1359 9.87899 21.8192 9.42654C21.5025 8.97409 20.879 8.86405 20.4265 9.18077L21.5735 10.8192ZM11 17L10.4265 16.1808C10.1592 16.3679 10 16.6737 10 17C10 17.3263 10.1592 17.6321 10.4265 17.8192L11 17ZM20.4265 24.8192C20.879 25.1359 21.5025 25.0259 21.8192 24.5735C22.1359 24.121 22.0259 23.4975 21.5735 23.1808L20.4265 24.8192ZM20.4265 9.18077L10.4265 16.1808L11.5735 17.8192L21.5735 10.8192L20.4265 9.18077ZM10.4265 17.8192L20.4265 24.8192L21.5735 23.1808L11.5735 16.1808L10.4265 17.8192Z" fill="#208062"/>
</svg>
