<svg width="241" height="222" viewBox="0 0 241 222" fill="none" xmlns="http://www.w3.org/2000/svg">
<path d="M15.9688 185.777C15.9688 185.082 15.6875 184.524 15.125 184.102C14.5703 183.68 13.7305 183.352 12.6055 183.117C11.4805 182.875 10.6055 182.602 9.98047 182.297C9.36328 181.985 8.90234 181.606 8.59766 181.16C8.30078 180.715 8.15234 180.176 8.15234 179.543C8.15234 178.543 8.57031 177.719 9.40625 177.07C10.2422 176.414 11.3125 176.086 12.6172 176.086C14.0312 176.086 15.1641 176.438 16.0156 177.141C16.875 177.836 17.3047 178.746 17.3047 179.871H15.8984C15.8984 179.129 15.5859 178.512 14.9609 178.02C14.3438 177.527 13.5625 177.281 12.6172 177.281C11.6953 177.281 10.9531 177.488 10.3906 177.902C9.83594 178.309 9.55859 178.84 9.55859 179.496C9.55859 180.129 9.78906 180.621 10.25 180.973C10.7188 181.317 11.5664 181.633 12.793 181.922C14.0273 182.211 14.9492 182.52 15.5586 182.848C16.1758 183.176 16.6328 183.57 16.9297 184.031C17.2266 184.492 17.375 185.051 17.375 185.707C17.375 186.777 16.9414 187.633 16.0742 188.274C15.2148 188.914 14.0898 189.235 12.6992 189.235C11.2227 189.235 10.0234 188.879 9.10156 188.168C8.1875 187.449 7.73047 186.543 7.73047 185.449H9.13672C9.19141 186.27 9.53516 186.91 10.168 187.371C10.8086 187.824 11.6523 188.051 12.6992 188.051C13.6758 188.051 14.4648 187.836 15.0664 187.406C15.668 186.977 15.9688 186.434 15.9688 185.777ZM28.6953 187.395C27.8516 188.621 26.5039 189.235 24.6523 189.235C23.3008 189.235 22.2734 188.844 21.5703 188.063C20.8672 187.274 20.5078 186.11 20.4922 184.57V176.32H21.8867V184.395C21.8867 186.809 22.8633 188.016 24.8164 188.016C26.8477 188.016 28.1328 187.176 28.6719 185.496V176.32H30.0781V189H28.7188L28.6953 187.395ZM41.7383 189C41.5977 188.602 41.5078 188.012 41.4688 187.231C40.9766 187.871 40.3477 188.367 39.582 188.719C38.8242 189.063 38.0195 189.235 37.168 189.235C35.9492 189.235 34.9609 188.895 34.2031 188.215C33.4531 187.535 33.0781 186.676 33.0781 185.637C33.0781 184.402 33.5898 183.426 34.6133 182.707C35.6445 181.988 37.0781 181.629 38.9141 181.629H41.457V180.188C41.457 179.281 41.1758 178.57 40.6133 178.055C40.0586 177.531 39.2461 177.27 38.1758 177.27C37.1992 177.27 36.3906 177.52 35.75 178.02C35.1094 178.52 34.7891 179.121 34.7891 179.824L33.3828 179.813C33.3828 178.805 33.8516 177.934 34.7891 177.199C35.7266 176.457 36.8789 176.086 38.2461 176.086C39.6602 176.086 40.7734 176.442 41.5859 177.152C42.4062 177.856 42.8281 178.84 42.8516 180.106V186.106C42.8516 187.332 42.9805 188.25 43.2383 188.86V189H41.7383ZM37.332 187.992C38.2695 187.992 39.1055 187.766 39.8398 187.313C40.582 186.86 41.1211 186.254 41.457 185.496V182.707H38.9492C37.5508 182.723 36.457 182.981 35.668 183.481C34.8789 183.973 34.4844 184.652 34.4844 185.52C34.4844 186.231 34.7461 186.82 35.2695 187.289C35.8008 187.758 36.4883 187.992 37.332 187.992ZM56.3867 187.067L60.2422 176.32H61.6836L56.9492 189H55.8125L51.0547 176.32H52.4961L56.3867 187.067ZM65.5625 189H64.1562V176.32H65.5625V189ZM63.9102 172.652C63.9102 172.387 63.9961 172.164 64.168 171.985C64.3398 171.797 64.5742 171.703 64.8711 171.703C65.168 171.703 65.4023 171.797 65.5742 171.985C65.7539 172.164 65.8438 172.387 65.8438 172.652C65.8438 172.918 65.7539 173.141 65.5742 173.32C65.4023 173.5 65.168 173.59 64.8711 173.59C64.5742 173.59 64.3398 173.5 64.168 173.32C63.9961 173.141 63.9102 172.918 63.9102 172.652ZM68.8203 182.543C68.8203 180.574 69.2578 179.008 70.1328 177.844C71.0156 176.672 72.2109 176.086 73.7188 176.086C75.4297 176.086 76.7344 176.762 77.6328 178.113V171H79.0273V189H77.7148L77.6562 187.313C76.7578 188.594 75.4375 189.235 73.6953 189.235C72.2344 189.235 71.0547 188.649 70.1562 187.477C69.2656 186.297 68.8203 184.707 68.8203 182.707V182.543ZM70.2383 182.789C70.2383 184.406 70.5625 185.684 71.2109 186.621C71.8594 187.551 72.7734 188.016 73.9531 188.016C75.6797 188.016 76.9062 187.254 77.6328 185.731V179.777C76.9062 178.129 75.6875 177.305 73.9766 177.305C72.7969 177.305 71.8789 177.77 71.2227 178.699C70.5664 179.621 70.2383 180.985 70.2383 182.789ZM90.7227 189C90.582 188.602 90.4922 188.012 90.4531 187.231C89.9609 187.871 89.332 188.367 88.5664 188.719C87.8086 189.063 87.0039 189.235 86.1523 189.235C84.9336 189.235 83.9453 188.895 83.1875 188.215C82.4375 187.535 82.0625 186.676 82.0625 185.637C82.0625 184.402 82.5742 183.426 83.5977 182.707C84.6289 181.988 86.0625 181.629 87.8984 181.629H90.4414V180.188C90.4414 179.281 90.1602 178.57 89.5977 178.055C89.043 177.531 88.2305 177.27 87.1602 177.27C86.1836 177.27 85.375 177.52 84.7344 178.02C84.0938 178.52 83.7734 179.121 83.7734 179.824L82.3672 179.813C82.3672 178.805 82.8359 177.934 83.7734 177.199C84.7109 176.457 85.8633 176.086 87.2305 176.086C88.6445 176.086 89.7578 176.442 90.5703 177.152C91.3906 177.856 91.8125 178.84 91.8359 180.106V186.106C91.8359 187.332 91.9648 188.25 92.2227 188.86V189H90.7227ZM86.3164 187.992C87.2539 187.992 88.0898 187.766 88.8242 187.313C89.5664 186.86 90.1055 186.254 90.4414 185.496V182.707H87.9336C86.5352 182.723 85.4414 182.981 84.6523 183.481C83.8633 183.973 83.4688 184.652 83.4688 185.52C83.4688 186.231 83.7305 186.82 84.2539 187.289C84.7852 187.758 85.4727 187.992 86.3164 187.992ZM106.332 189.235C105.254 189.235 104.277 188.969 103.402 188.438C102.535 187.906 101.859 187.168 101.375 186.223C100.891 185.27 100.648 184.203 100.648 183.024V182.52C100.648 181.301 100.883 180.203 101.352 179.227C101.828 178.25 102.488 177.485 103.332 176.93C104.176 176.367 105.09 176.086 106.074 176.086C107.613 176.086 108.832 176.613 109.73 177.668C110.637 178.715 111.09 180.149 111.09 181.969V182.754H102.043V183.024C102.043 184.461 102.453 185.66 103.273 186.621C104.102 187.574 105.141 188.051 106.391 188.051C107.141 188.051 107.801 187.914 108.371 187.641C108.949 187.367 109.473 186.93 109.941 186.328L110.82 186.996C109.789 188.488 108.293 189.235 106.332 189.235ZM106.074 177.281C105.02 177.281 104.129 177.668 103.402 178.442C102.684 179.215 102.246 180.254 102.09 181.559H109.695V181.406C109.656 180.188 109.309 179.195 108.652 178.43C107.996 177.664 107.137 177.281 106.074 177.281ZM115.098 176.32L115.145 178.383C115.613 177.617 116.199 177.043 116.902 176.66C117.605 176.277 118.387 176.086 119.246 176.086C121.246 176.086 122.516 176.906 123.055 178.547C123.508 177.758 124.113 177.152 124.871 176.731C125.629 176.301 126.465 176.086 127.379 176.086C130.098 176.086 131.484 177.57 131.539 180.539V189H130.133V180.645C130.125 179.512 129.879 178.672 129.395 178.125C128.918 177.578 128.137 177.305 127.051 177.305C126.043 177.32 125.191 177.649 124.496 178.289C123.801 178.922 123.414 179.695 123.336 180.61V189H121.93V180.539C121.922 179.453 121.664 178.645 121.156 178.113C120.656 177.574 119.883 177.305 118.836 177.305C117.953 177.305 117.195 177.559 116.562 178.067C115.93 178.567 115.461 179.313 115.156 180.305V189H113.75V176.32H115.098ZM145.848 189.235C144.77 189.235 143.793 188.969 142.918 188.438C142.051 187.906 141.375 187.168 140.891 186.223C140.406 185.27 140.164 184.203 140.164 183.024V182.52C140.164 181.301 140.398 180.203 140.867 179.227C141.344 178.25 142.004 177.485 142.848 176.93C143.691 176.367 144.605 176.086 145.59 176.086C147.129 176.086 148.348 176.613 149.246 177.668C150.152 178.715 150.605 180.149 150.605 181.969V182.754H141.559V183.024C141.559 184.461 141.969 185.66 142.789 186.621C143.617 187.574 144.656 188.051 145.906 188.051C146.656 188.051 147.316 187.914 147.887 187.641C148.465 187.367 148.988 186.93 149.457 186.328L150.336 186.996C149.305 188.488 147.809 189.235 145.848 189.235ZM145.59 177.281C144.535 177.281 143.645 177.668 142.918 178.442C142.199 179.215 141.762 180.254 141.605 181.559H149.211V181.406C149.172 180.188 148.824 179.195 148.168 178.43C147.512 177.664 146.652 177.281 145.59 177.281ZM152.773 182.543C152.773 180.559 153.211 178.988 154.086 177.832C154.969 176.668 156.172 176.086 157.695 176.086C159.406 176.086 160.707 176.738 161.598 178.043L161.668 176.32H162.98V193.875H161.574V187.43C160.652 188.633 159.352 189.235 157.672 189.235C156.188 189.235 155 188.649 154.109 187.477C153.219 186.305 152.773 184.723 152.773 182.731V182.543ZM154.191 182.789C154.191 184.43 154.52 185.719 155.176 186.656C155.84 187.586 156.758 188.051 157.93 188.051C159.609 188.051 160.824 187.32 161.574 185.86V179.649C161.223 178.891 160.734 178.309 160.109 177.902C159.492 177.488 158.773 177.281 157.953 177.281C156.773 177.281 155.852 177.75 155.188 178.688C154.523 179.617 154.191 180.985 154.191 182.789ZM174.875 187.395C174.031 188.621 172.684 189.235 170.832 189.235C169.48 189.235 168.453 188.844 167.75 188.063C167.047 187.274 166.688 186.11 166.672 184.57V176.32H168.066V184.395C168.066 186.809 169.043 188.016 170.996 188.016C173.027 188.016 174.312 187.176 174.852 185.496V176.32H176.258V189H174.898L174.875 187.395ZM181.484 189H180.078V176.32H181.484V189ZM179.832 172.652C179.832 172.387 179.918 172.164 180.09 171.985C180.262 171.797 180.496 171.703 180.793 171.703C181.09 171.703 181.324 171.797 181.496 171.985C181.676 172.164 181.766 172.387 181.766 172.652C181.766 172.918 181.676 173.141 181.496 173.32C181.324 173.5 181.09 173.59 180.793 173.59C180.496 173.59 180.262 173.5 180.09 173.32C179.918 173.141 179.832 172.918 179.832 172.652ZM186.875 189H185.469V171H186.875V189ZM192.242 189H190.836V176.32H192.242V189ZM192.969 171.141H194.668L191.961 174.422H190.73L192.969 171.141ZM206.246 182.789C206.246 184.766 205.809 186.336 204.934 187.5C204.059 188.656 202.883 189.235 201.406 189.235C199.641 189.235 198.305 188.578 197.398 187.266L197.34 189H196.027V171H197.422V178.16C198.312 176.777 199.633 176.086 201.383 176.086C202.883 176.086 204.066 176.66 204.934 177.809C205.809 178.949 206.246 180.539 206.246 182.578V182.789ZM204.84 182.543C204.84 180.871 204.516 179.582 203.867 178.676C203.219 177.762 202.305 177.305 201.125 177.305C200.227 177.305 199.465 177.527 198.84 177.973C198.215 178.41 197.742 179.055 197.422 179.906V185.625C198.125 187.219 199.367 188.016 201.148 188.016C202.305 188.016 203.207 187.559 203.855 186.645C204.512 185.731 204.84 184.363 204.84 182.543ZM215.211 177.516C214.914 177.461 214.598 177.434 214.262 177.434C213.387 177.434 212.645 177.68 212.035 178.172C211.434 178.656 211.004 179.363 210.746 180.293V189H209.352V176.32H210.723L210.746 178.336C211.488 176.836 212.68 176.086 214.32 176.086C214.711 176.086 215.02 176.137 215.246 176.238L215.211 177.516ZM219.008 189H217.602V176.32H219.008V189ZM217.355 172.652C217.355 172.387 217.441 172.164 217.613 171.985C217.785 171.797 218.02 171.703 218.316 171.703C218.613 171.703 218.848 171.797 219.02 171.985C219.199 172.164 219.289 172.387 219.289 172.652C219.289 172.918 219.199 173.141 219.02 173.32C218.848 173.5 218.613 173.59 218.316 173.59C218.02 173.59 217.785 173.5 217.613 173.32C217.441 173.141 217.355 172.918 217.355 172.652ZM222.055 182.473C222.055 181.254 222.289 180.156 222.758 179.18C223.234 178.203 223.902 177.445 224.762 176.906C225.629 176.36 226.609 176.086 227.703 176.086C229.391 176.086 230.758 176.68 231.805 177.867C232.852 179.047 233.375 180.613 233.375 182.567V182.86C233.375 184.086 233.137 185.192 232.66 186.176C232.191 187.152 231.527 187.906 230.668 188.438C229.809 188.969 228.828 189.235 227.727 189.235C226.047 189.235 224.68 188.645 223.625 187.465C222.578 186.277 222.055 184.707 222.055 182.754V182.473ZM223.461 182.86C223.461 184.375 223.852 185.621 224.633 186.598C225.422 187.567 226.453 188.051 227.727 188.051C228.992 188.051 230.016 187.567 230.797 186.598C231.586 185.621 231.98 184.336 231.98 182.742V182.473C231.98 181.504 231.801 180.617 231.441 179.813C231.082 179.008 230.578 178.387 229.93 177.949C229.281 177.504 228.539 177.281 227.703 177.281C226.453 177.281 225.434 177.774 224.645 178.758C223.855 179.735 223.461 181.016 223.461 182.602V182.86ZM36.418 215.051C37.3945 215.051 38.2109 214.777 38.8672 214.231C39.5312 213.676 39.8906 212.961 39.9453 212.086H41.293C41.2539 212.86 41.0117 213.567 40.5664 214.207C40.1211 214.84 39.5273 215.336 38.7852 215.695C38.0508 216.055 37.2617 216.235 36.418 216.235C34.7539 216.235 33.4336 215.656 32.457 214.5C31.4883 213.344 31.0039 211.789 31.0039 209.836V209.414C31.0039 208.164 31.2227 207.059 31.6602 206.098C32.0977 205.137 32.7227 204.395 33.5352 203.871C34.3555 203.348 35.3125 203.086 36.4062 203.086C37.7969 203.086 38.9414 203.5 39.8398 204.328C40.7461 205.156 41.2305 206.246 41.293 207.598H39.9453C39.8828 206.606 39.5234 205.805 38.8672 205.195C38.2188 204.586 37.3984 204.281 36.4062 204.281C35.1406 204.281 34.1562 204.738 33.4531 205.652C32.7578 206.567 32.4102 207.848 32.4102 209.496V209.906C32.4102 211.524 32.7578 212.785 33.4531 213.692C34.1562 214.598 35.1445 215.051 36.418 215.051ZM43.332 209.473C43.332 208.254 43.5664 207.156 44.0352 206.18C44.5117 205.203 45.1797 204.445 46.0391 203.906C46.9062 203.36 47.8867 203.086 48.9805 203.086C50.668 203.086 52.0352 203.68 53.082 204.867C54.1289 206.047 54.6523 207.613 54.6523 209.567V209.86C54.6523 211.086 54.4141 212.192 53.9375 213.176C53.4688 214.152 52.8047 214.906 51.9453 215.438C51.0859 215.969 50.1055 216.235 49.0039 216.235C47.3242 216.235 45.957 215.645 44.9023 214.465C43.8555 213.277 43.332 211.707 43.332 209.754V209.473ZM44.7383 209.86C44.7383 211.375 45.1289 212.621 45.9102 213.598C46.6992 214.567 47.7305 215.051 49.0039 215.051C50.2695 215.051 51.293 214.567 52.0742 213.598C52.8633 212.621 53.2578 211.336 53.2578 209.742V209.473C53.2578 208.504 53.0781 207.617 52.7188 206.813C52.3594 206.008 51.8555 205.387 51.207 204.949C50.5586 204.504 49.8164 204.281 48.9805 204.281C47.7305 204.281 46.7109 204.774 45.9219 205.758C45.1328 206.735 44.7383 208.016 44.7383 209.602V209.86ZM58.8359 203.32L58.8828 205.383C59.3516 204.617 59.9375 204.043 60.6406 203.66C61.3438 203.277 62.125 203.086 62.9844 203.086C64.9844 203.086 66.2539 203.906 66.793 205.547C67.2461 204.758 67.8516 204.152 68.6094 203.731C69.3672 203.301 70.2031 203.086 71.1172 203.086C73.8359 203.086 75.2227 204.57 75.2773 207.539V216H73.8711V207.645C73.8633 206.512 73.6172 205.672 73.1328 205.125C72.6562 204.578 71.875 204.305 70.7891 204.305C69.7812 204.32 68.9297 204.649 68.2344 205.289C67.5391 205.922 67.1523 206.695 67.0742 207.61V216H65.668V207.539C65.6602 206.453 65.4023 205.645 64.8945 205.113C64.3945 204.574 63.6211 204.305 62.5742 204.305C61.6914 204.305 60.9336 204.559 60.3008 205.067C59.668 205.567 59.1992 206.313 58.8945 207.305V216H57.4883V203.32H58.8359ZM92.6797 216C92.5391 215.602 92.4492 215.012 92.4102 214.231C91.918 214.871 91.2891 215.367 90.5234 215.719C89.7656 216.063 88.9609 216.235 88.1094 216.235C86.8906 216.235 85.9023 215.895 85.1445 215.215C84.3945 214.535 84.0195 213.676 84.0195 212.637C84.0195 211.402 84.5312 210.426 85.5547 209.707C86.5859 208.988 88.0195 208.629 89.8555 208.629H92.3984V207.188C92.3984 206.281 92.1172 205.57 91.5547 205.055C91 204.531 90.1875 204.27 89.1172 204.27C88.1406 204.27 87.332 204.52 86.6914 205.02C86.0508 205.52 85.7305 206.121 85.7305 206.824L84.3242 206.813C84.3242 205.805 84.793 204.934 85.7305 204.199C86.668 203.457 87.8203 203.086 89.1875 203.086C90.6016 203.086 91.7148 203.442 92.5273 204.152C93.3477 204.856 93.7695 205.84 93.793 207.106V213.106C93.793 214.332 93.9219 215.25 94.1797 215.86V216H92.6797ZM88.2734 214.992C89.2109 214.992 90.0469 214.766 90.7812 214.313C91.5234 213.86 92.0625 213.254 92.3984 212.496V209.707H89.8906C88.4922 209.723 87.3984 209.981 86.6094 210.481C85.8203 210.973 85.4258 211.652 85.4258 212.52C85.4258 213.231 85.6875 213.82 86.2109 214.289C86.7422 214.758 87.4297 214.992 88.2734 214.992ZM105.559 200.074V203.32H108.184V204.469H105.559V212.918C105.559 213.621 105.684 214.145 105.934 214.488C106.191 214.832 106.617 215.004 107.211 215.004C107.445 215.004 107.824 214.965 108.348 214.887L108.406 216.035C108.039 216.168 107.539 216.235 106.906 216.235C105.945 216.235 105.246 215.957 104.809 215.402C104.371 214.84 104.152 214.016 104.152 212.93V204.469H101.82V203.32H104.152V200.074H105.559ZM116 216.235C114.922 216.235 113.945 215.969 113.07 215.438C112.203 214.906 111.527 214.168 111.043 213.223C110.559 212.27 110.316 211.203 110.316 210.024V209.52C110.316 208.301 110.551 207.203 111.02 206.227C111.496 205.25 112.156 204.485 113 203.93C113.844 203.367 114.758 203.086 115.742 203.086C117.281 203.086 118.5 203.613 119.398 204.668C120.305 205.715 120.758 207.149 120.758 208.969V209.754H111.711V210.024C111.711 211.461 112.121 212.66 112.941 213.621C113.77 214.574 114.809 215.051 116.059 215.051C116.809 215.051 117.469 214.914 118.039 214.641C118.617 214.367 119.141 213.93 119.609 213.328L120.488 213.996C119.457 215.488 117.961 216.235 116 216.235ZM115.742 204.281C114.688 204.281 113.797 204.668 113.07 205.442C112.352 206.215 111.914 207.254 111.758 208.559H119.363V208.406C119.324 207.188 118.977 206.195 118.32 205.43C117.664 204.664 116.805 204.281 115.742 204.281ZM128.176 215.051C129.152 215.051 129.969 214.777 130.625 214.231C131.289 213.676 131.648 212.961 131.703 212.086H133.051C133.012 212.86 132.77 213.567 132.324 214.207C131.879 214.84 131.285 215.336 130.543 215.695C129.809 216.055 129.02 216.235 128.176 216.235C126.512 216.235 125.191 215.656 124.215 214.5C123.246 213.344 122.762 211.789 122.762 209.836V209.414C122.762 208.164 122.98 207.059 123.418 206.098C123.855 205.137 124.48 204.395 125.293 203.871C126.113 203.348 127.07 203.086 128.164 203.086C129.555 203.086 130.699 203.5 131.598 204.328C132.504 205.156 132.988 206.246 133.051 207.598H131.703C131.641 206.606 131.281 205.805 130.625 205.195C129.977 204.586 129.156 204.281 128.164 204.281C126.898 204.281 125.914 204.738 125.211 205.652C124.516 206.567 124.168 207.848 124.168 209.496V209.906C124.168 211.524 124.516 212.785 125.211 213.692C125.914 214.598 126.902 215.051 128.176 215.051ZM137.199 203.32L137.246 205.488C137.723 204.707 138.316 204.113 139.027 203.707C139.738 203.293 140.523 203.086 141.383 203.086C142.742 203.086 143.754 203.469 144.418 204.235C145.082 205 145.418 206.149 145.426 207.68V216H144.031V207.668C144.023 206.535 143.781 205.692 143.305 205.137C142.836 204.582 142.082 204.305 141.043 204.305C140.176 204.305 139.406 204.578 138.734 205.125C138.07 205.664 137.578 206.395 137.258 207.317V216H135.863V203.32H137.199ZM148.285 209.473C148.285 208.254 148.52 207.156 148.988 206.18C149.465 205.203 150.133 204.445 150.992 203.906C151.859 203.36 152.84 203.086 153.934 203.086C155.621 203.086 156.988 203.68 158.035 204.867C159.082 206.047 159.605 207.613 159.605 209.567V209.86C159.605 211.086 159.367 212.192 158.891 213.176C158.422 214.152 157.758 214.906 156.898 215.438C156.039 215.969 155.059 216.235 153.957 216.235C152.277 216.235 150.91 215.645 149.855 214.465C148.809 213.277 148.285 211.707 148.285 209.754V209.473ZM149.691 209.86C149.691 211.375 150.082 212.621 150.863 213.598C151.652 214.567 152.684 215.051 153.957 215.051C155.223 215.051 156.246 214.567 157.027 213.598C157.816 212.621 158.211 211.336 158.211 209.742V209.473C158.211 208.504 158.031 207.617 157.672 206.813C157.312 206.008 156.809 205.387 156.16 204.949C155.512 204.504 154.77 204.281 153.934 204.281C152.684 204.281 151.664 204.774 150.875 205.758C150.086 206.735 149.691 208.016 149.691 209.602V209.86ZM164.082 216H162.676V198H164.082V216ZM167.129 209.473C167.129 208.254 167.363 207.156 167.832 206.18C168.309 205.203 168.977 204.445 169.836 203.906C170.703 203.36 171.684 203.086 172.777 203.086C174.465 203.086 175.832 203.68 176.879 204.867C177.926 206.047 178.449 207.613 178.449 209.567V209.86C178.449 211.086 178.211 212.192 177.734 213.176C177.266 214.152 176.602 214.906 175.742 215.438C174.883 215.969 173.902 216.235 172.801 216.235C171.121 216.235 169.754 215.645 168.699 214.465C167.652 213.277 167.129 211.707 167.129 209.754V209.473ZM168.535 209.86C168.535 211.375 168.926 212.621 169.707 213.598C170.496 214.567 171.527 215.051 172.801 215.051C174.066 215.051 175.09 214.567 175.871 213.598C176.66 212.621 177.055 211.336 177.055 209.742V209.473C177.055 208.504 176.875 207.617 176.516 206.813C176.156 206.008 175.652 205.387 175.004 204.949C174.355 204.504 173.613 204.281 172.777 204.281C171.527 204.281 170.508 204.774 169.719 205.758C168.93 206.735 168.535 208.016 168.535 209.602V209.86ZM180.793 209.543C180.793 207.559 181.23 205.988 182.105 204.832C182.988 203.668 184.184 203.086 185.691 203.086C187.418 203.086 188.73 203.774 189.629 205.149L189.699 203.32H191.012V215.742C191.012 217.375 190.555 218.668 189.641 219.621C188.727 220.574 187.488 221.051 185.926 221.051C185.043 221.051 184.199 220.852 183.395 220.453C182.598 220.063 181.969 219.539 181.508 218.883L182.293 218.039C183.285 219.258 184.465 219.867 185.832 219.867C187.004 219.867 187.918 219.52 188.574 218.824C189.23 218.137 189.57 217.18 189.594 215.953V214.36C188.695 215.61 187.387 216.235 185.668 216.235C184.199 216.235 183.02 215.649 182.129 214.477C181.238 213.305 180.793 211.723 180.793 209.731V209.543ZM182.211 209.789C182.211 211.406 182.535 212.684 183.184 213.621C183.832 214.551 184.746 215.016 185.926 215.016C187.652 215.016 188.875 214.242 189.594 212.695V206.801C189.266 205.988 188.793 205.371 188.176 204.949C187.559 204.52 186.816 204.305 185.949 204.305C184.77 204.305 183.852 204.77 183.195 205.699C182.539 206.621 182.211 207.985 182.211 209.789ZM196.238 216H194.832V203.32H196.238V216ZM194.586 199.652C194.586 199.387 194.672 199.164 194.844 198.985C195.016 198.797 195.25 198.703 195.547 198.703C195.844 198.703 196.078 198.797 196.25 198.985C196.43 199.164 196.52 199.387 196.52 199.652C196.52 199.918 196.43 200.141 196.25 200.32C196.078 200.5 195.844 200.59 195.547 200.59C195.25 200.59 195.016 200.5 194.844 200.32C194.672 200.141 194.586 199.918 194.586 199.652ZM208.062 216C207.922 215.602 207.832 215.012 207.793 214.231C207.301 214.871 206.672 215.367 205.906 215.719C205.148 216.063 204.344 216.235 203.492 216.235C202.273 216.235 201.285 215.895 200.527 215.215C199.777 214.535 199.402 213.676 199.402 212.637C199.402 211.402 199.914 210.426 200.938 209.707C201.969 208.988 203.402 208.629 205.238 208.629H207.781V207.188C207.781 206.281 207.5 205.57 206.938 205.055C206.383 204.531 205.57 204.27 204.5 204.27C203.523 204.27 202.715 204.52 202.074 205.02C201.434 205.52 201.113 206.121 201.113 206.824L199.707 206.813C199.707 205.805 200.176 204.934 201.113 204.199C202.051 203.457 203.203 203.086 204.57 203.086C205.984 203.086 207.098 203.442 207.91 204.152C208.73 204.856 209.152 205.84 209.176 207.106V213.106C209.176 214.332 209.305 215.25 209.562 215.86V216H208.062ZM203.656 214.992C204.594 214.992 205.43 214.766 206.164 214.313C206.906 213.86 207.445 213.254 207.781 212.496V209.707H205.273C203.875 209.723 202.781 209.981 201.992 210.481C201.203 210.973 200.809 211.652 200.809 212.52C200.809 213.231 201.07 213.82 201.594 214.289C202.125 214.758 202.812 214.992 203.656 214.992Z" fill="#333131"/>
<path d="M236.518 147H11.1127C11.0827 147 11.0541 146.989 11.0329 146.966C11.0118 146.946 11 146.917 11 146.887C11 146.857 11.0118 146.829 11.0329 146.808C11.0541 146.786 11.0827 146.774 11.1127 146.774H236.537C236.567 146.774 236.595 146.786 236.616 146.808C236.638 146.829 236.65 146.857 236.65 146.887C236.65 146.963 236.593 147 236.518 147Z" fill="#B2B6BB"/>
<path opacity="0.5" d="M164.464 141.547H115.144V143.177H164.464V141.547Z" fill="black"/>
<path opacity="0.15" d="M108.7 141.434L110.861 138.802C110.513 137.911 110.353 136.957 110.391 136H104.003V136.847L107.592 136.959C107.882 136.964 108.159 137.083 108.363 137.291C108.567 137.498 108.681 137.778 108.681 138.069L108.7 141.434Z" fill="black"/>
<path opacity="0.15" d="M88.3898 142.337L89.1037 135.982H83.0538L83.1478 136.771L86.4921 136.828C86.6552 136.83 86.8125 136.89 86.9361 136.996C87.0597 137.103 87.142 137.249 87.1685 137.411L87.8261 140.852L88.3898 142.337Z" fill="black"/>
<path d="M82.4712 145.891H88.9908C89.1388 145.895 89.2842 145.851 89.406 145.767C89.5276 145.682 89.6191 145.562 89.6672 145.421C89.6672 145.552 89.6859 145.684 89.6859 145.816V146.041C89.6762 146.218 89.598 146.384 89.4682 146.502C89.3384 146.623 89.167 146.687 88.9908 146.681H82.4712C82.3832 146.687 82.2951 146.674 82.2123 146.644C82.1294 146.613 82.0531 146.568 81.9883 146.508C81.9235 146.45 81.8713 146.376 81.8348 146.297C81.7984 146.216 81.7783 146.13 81.776 146.041V145.947C81.7792 145.778 81.7916 145.609 81.8136 145.439C81.8587 145.577 81.9473 145.695 82.0663 145.776C82.185 145.857 82.3273 145.898 82.4712 145.891Z" fill="#2EBA8F"/>
<path opacity="0.4" d="M82.4712 145.891H88.9908C89.1388 145.895 89.2842 145.851 89.406 145.767C89.5276 145.682 89.6191 145.562 89.6672 145.421C89.6672 145.552 89.6859 145.684 89.6859 145.816V146.041C89.6762 146.218 89.598 146.384 89.4682 146.502C89.3384 146.623 89.167 146.687 88.9908 146.681H82.4712C82.3832 146.687 82.2951 146.674 82.2123 146.644C82.1294 146.613 82.0531 146.568 81.9883 146.508C81.9235 146.45 81.8713 146.376 81.8348 146.297C81.7984 146.216 81.7783 146.13 81.776 146.041V145.947C81.7792 145.778 81.7916 145.609 81.8136 145.439C81.8587 145.577 81.9473 145.695 82.0663 145.776C82.185 145.857 82.3273 145.898 82.4712 145.891Z" fill="black"/>
<path d="M83.4294 138.99L83.5797 138.821C84.1976 138.232 85.021 137.909 85.874 137.919C86.7269 137.93 87.542 138.273 88.1453 138.877L88.2392 138.99C88.3893 139.137 88.5083 139.312 88.5891 139.506C88.6697 139.7 88.7104 139.908 88.7089 140.118V140.795C88.7054 141.186 88.7689 141.574 88.8968 141.942L89.4605 143.804C89.6021 144.247 89.6781 144.71 89.6859 145.176V145.402C89.6762 145.578 89.598 145.744 89.4682 145.862C89.3384 145.983 89.167 146.047 88.9908 146.041H82.4712C82.3832 146.047 82.2951 146.034 82.2123 146.003C82.1294 145.973 82.0531 145.928 81.9883 145.868C81.9235 145.81 81.8713 145.736 81.8348 145.657C81.7984 145.577 81.7783 145.49 81.776 145.402V145.308C81.7807 144.764 81.8696 144.225 82.039 143.71L82.6966 141.904C82.8366 141.485 82.9127 141.049 82.9221 140.607V140.099C82.9289 139.89 82.9773 139.684 83.0643 139.494C83.1515 139.303 83.2755 139.132 83.4294 138.99Z" fill="white"/>
<path opacity="0.4" d="M87.6754 140.457C87.8103 140.457 87.9196 140.347 87.9196 140.212C87.9196 140.077 87.8103 139.968 87.6754 139.968C87.5405 139.968 87.4312 140.077 87.4312 140.212C87.4312 140.347 87.5405 140.457 87.6754 140.457Z" fill="#231F20"/>
<path opacity="0.4" d="M87.5441 141.435C87.679 141.435 87.7883 141.326 87.7883 141.19C87.7883 141.055 87.679 140.946 87.5441 140.946C87.4092 140.946 87.2998 141.055 87.2998 141.19C87.2998 141.326 87.4092 141.435 87.5441 141.435Z" fill="#231F20"/>
<path opacity="0.4" d="M87.4689 142.149C87.6038 142.149 87.7132 142.04 87.7132 141.905C87.7132 141.769 87.6038 141.66 87.4689 141.66C87.334 141.66 87.2247 141.769 87.2247 141.905C87.2247 142.04 87.334 142.149 87.4689 142.149Z" fill="#231F20"/>
<path opacity="0.4" d="M87.5815 143.296C87.7164 143.296 87.8257 143.187 87.8257 143.052C87.8257 142.916 87.7164 142.807 87.5815 142.807C87.4466 142.807 87.3372 142.916 87.3372 143.052C87.3372 143.187 87.4466 143.296 87.5815 143.296Z" fill="#231F20"/>
<path opacity="0.4" d="M87.6007 144.312C87.7356 144.312 87.8449 144.202 87.8449 144.067C87.8449 143.931 87.7356 143.822 87.6007 143.822C87.4658 143.822 87.3564 143.931 87.3564 144.067C87.3564 144.202 87.4658 144.312 87.6007 144.312Z" fill="#231F20"/>
<path opacity="0.4" d="M84.5193 144.518C84.6542 144.518 84.7635 144.409 84.7635 144.274C84.7635 144.138 84.6542 144.029 84.5193 144.029C84.3844 144.029 84.275 144.138 84.275 144.274C84.275 144.409 84.3844 144.518 84.5193 144.518Z" fill="#231F20"/>
<path opacity="0.4" d="M84.4814 143.578C84.6163 143.578 84.7257 143.469 84.7257 143.334C84.7257 143.198 84.6163 143.089 84.4814 143.089C84.3465 143.089 84.2372 143.198 84.2372 143.334C84.2372 143.469 84.3465 143.578 84.4814 143.578Z" fill="#231F20"/>
<path opacity="0.4" d="M84.444 142.356C84.5789 142.356 84.6883 142.247 84.6883 142.112C84.6883 141.976 84.5789 141.867 84.444 141.867C84.3091 141.867 84.1998 141.976 84.1998 142.112C84.1998 142.247 84.3091 142.356 84.444 142.356Z" fill="#231F20"/>
<path opacity="0.4" d="M84.5193 141.19C84.6542 141.19 84.7635 141.081 84.7635 140.946C84.7635 140.81 84.6542 140.701 84.5193 140.701C84.3844 140.701 84.275 140.81 84.275 140.946C84.275 141.081 84.3844 141.19 84.5193 141.19Z" fill="#231F20"/>
<path opacity="0.4" d="M84.5567 140.269C84.6917 140.269 84.801 140.159 84.801 140.024C84.801 139.889 84.6917 139.78 84.5567 139.78C84.4218 139.78 84.3125 139.889 84.3125 140.024C84.3125 140.159 84.4218 140.269 84.5567 140.269Z" fill="#231F20"/>
<path d="M87.5818 140.156C87.5818 140.156 86.4733 138.971 84.5569 139.949" stroke="white" stroke-width="0.88024" stroke-miterlimit="10" stroke-linecap="round"/>
<path d="M87.5439 141.115C87.5439 141.115 86.4353 139.93 84.5189 140.927" stroke="white" stroke-width="0.88024" stroke-miterlimit="10" stroke-linecap="round"/>
<path d="M87.4692 141.867C87.1873 141.641 85.7406 141.19 84.4442 142.093" stroke="white" stroke-width="0.88024" stroke-miterlimit="10" stroke-linecap="round"/>
<path d="M87.5065 143.052C87.5065 143.052 86.2477 142.017 84.4816 143.259" stroke="white" stroke-width="0.88024" stroke-miterlimit="10" stroke-linecap="round"/>
<path d="M87.6005 144.011C87.6005 144.011 86.3417 142.995 84.5756 144.236" stroke="white" stroke-width="0.88024" stroke-miterlimit="10" stroke-linecap="round"/>
<path d="M103.834 145.778L121.307 145.816C121.347 145.731 121.378 145.643 121.401 145.552C121.419 145.759 121.425 145.966 121.42 146.173C121.411 146.329 121.345 146.478 121.234 146.589C121.123 146.7 120.975 146.766 120.819 146.775L104.397 146.738C104.319 146.738 104.242 146.723 104.17 146.691C104.098 146.66 104.033 146.617 103.979 146.561C103.924 146.504 103.882 146.437 103.854 146.365C103.826 146.292 103.813 146.215 103.815 146.135L103.834 145.778Z" fill="#2EBA8F"/>
<path opacity="0.4" d="M103.834 145.778L121.307 145.816C121.347 145.731 121.378 145.643 121.401 145.552C121.419 145.759 121.425 145.966 121.42 146.173C121.411 146.329 121.345 146.478 121.234 146.589C121.123 146.7 120.975 146.766 120.819 146.775L104.397 146.738C104.319 146.738 104.242 146.723 104.17 146.691C104.098 146.66 104.033 146.617 103.979 146.561C103.924 146.504 103.882 146.437 103.854 146.365C103.826 146.292 103.813 146.215 103.815 146.135L103.834 145.778Z" fill="black"/>
<path d="M120.349 143.804C117.23 142.412 114.712 141.246 112.383 139.178C111.857 138.689 111.443 138.351 110.748 138.276L108.136 139.911C107.976 140.015 107.789 140.069 107.598 140.066C107.407 140.062 107.222 140.002 107.066 139.893L104.247 138.407C103.778 138.37 103.402 138.971 103.421 139.46L103.834 145.778L121.307 145.815C121.683 145.045 120.913 144.048 120.349 143.804Z" fill="white"/>
<path opacity="0.4" d="M117.305 144.124C117.481 144.124 117.624 143.981 117.624 143.804C117.624 143.627 117.481 143.484 117.305 143.484C117.129 143.484 116.986 143.627 116.986 143.804C116.986 143.981 117.129 144.124 117.305 144.124Z" fill="#231F20"/>
<path opacity="0.4" d="M115.389 143.597C115.565 143.597 115.708 143.454 115.708 143.277C115.708 143.1 115.565 142.957 115.389 142.957C115.212 142.957 115.069 143.1 115.069 143.277C115.069 143.454 115.212 143.597 115.389 143.597Z" fill="#231F20"/>
<path opacity="0.4" d="M113.792 142.488C113.968 142.488 114.111 142.345 114.111 142.168C114.111 141.991 113.968 141.848 113.792 141.848C113.615 141.848 113.472 141.991 113.472 142.168C113.472 142.345 113.615 142.488 113.792 142.488Z" fill="#231F20"/>
<path opacity="0.4" d="M112.251 141.36C112.427 141.36 112.57 141.217 112.57 141.04C112.57 140.863 112.427 140.72 112.251 140.72C112.075 140.72 111.932 140.863 111.932 141.04C111.932 141.217 112.075 141.36 112.251 141.36Z" fill="#231F20"/>
<path opacity="0.4" d="M110.88 139.987C111.056 139.987 111.199 139.844 111.199 139.667C111.199 139.491 111.056 139.347 110.88 139.347C110.703 139.347 110.56 139.491 110.56 139.667C110.56 139.844 110.703 139.987 110.88 139.987Z" fill="#231F20"/>
<path d="M117.906 143.052L117.7 143.635C117.685 143.674 117.663 143.71 117.634 143.742C117.605 143.772 117.571 143.799 117.532 143.815C117.494 143.832 117.452 143.842 117.41 143.844C117.368 143.846 117.326 143.838 117.286 143.823C117.246 143.81 117.21 143.787 117.18 143.757C117.15 143.727 117.126 143.691 117.112 143.652C117.098 143.612 117.092 143.569 117.096 143.528C117.101 143.486 117.114 143.445 117.136 143.409L117.437 142.845L117.906 143.052Z" fill="white"/>
<path d="M116.197 142.243L115.802 143.127C115.782 143.165 115.756 143.197 115.723 143.223C115.691 143.252 115.654 143.27 115.613 143.284C115.573 143.295 115.531 143.299 115.489 143.295C115.448 143.291 115.407 143.28 115.37 143.259C115.334 143.244 115.302 143.22 115.276 143.191C115.25 143.161 115.23 143.127 115.217 143.09C115.205 143.054 115.201 143.014 115.204 142.975C115.208 142.935 115.22 142.898 115.239 142.864L115.708 142.017L116.197 142.243Z" fill="white"/>
<path d="M114.769 141.359L114.224 142.112C114.197 142.144 114.163 142.17 114.126 142.189C114.089 142.21 114.048 142.221 114.006 142.225C113.964 142.229 113.922 142.223 113.882 142.21C113.842 142.197 113.805 142.176 113.773 142.15H113.754C113.726 142.127 113.703 142.101 113.687 142.069C113.67 142.039 113.659 142.005 113.656 141.969C113.652 141.935 113.656 141.899 113.666 141.866C113.677 141.832 113.694 141.8 113.716 141.773L114.243 141.058L114.769 141.359Z" fill="white"/>
<path d="M113.378 140.419L112.683 141.078C112.624 141.132 112.547 141.162 112.467 141.162C112.387 141.162 112.31 141.132 112.251 141.078C112.221 141.048 112.198 141.01 112.184 140.971C112.169 140.929 112.164 140.886 112.167 140.844C112.171 140.801 112.184 140.759 112.205 140.722C112.225 140.684 112.254 140.652 112.289 140.626L112.984 140.099L113.378 140.419Z" fill="white"/>
<path d="M112.007 139.197L111.33 139.724C111.302 139.75 111.268 139.77 111.231 139.783C111.194 139.795 111.154 139.8 111.116 139.796C111.077 139.792 111.039 139.781 111.005 139.762C110.971 139.743 110.941 139.717 110.917 139.686C110.89 139.655 110.871 139.618 110.861 139.578C110.851 139.538 110.85 139.496 110.859 139.455C110.869 139.415 110.887 139.378 110.914 139.346C110.94 139.314 110.973 139.289 111.011 139.272L111.838 138.877L112.007 139.197Z" fill="white"/>
<path d="M85.9475 99.2222C85.818 98.3599 85.3855 97.5719 84.7279 96.9999C84.0701 96.428 83.2303 96.1093 82.3589 96.101H80.4049L79.6533 96.289V96.4206L63.0819 98.5265C62.063 98.6501 61.1051 99.0788 60.3341 99.7566C59.563 100.434 59.0144 101.329 58.7605 102.325L47.1868 146.793H49.9863L61.3533 103.02C61.479 102.546 61.7425 102.119 62.1103 101.795C62.4782 101.47 62.934 101.262 63.4201 101.197L82.171 98.8086C82.4297 98.7764 82.6907 98.8469 82.8979 99.0051C83.1051 99.1634 83.2421 99.3965 83.2795 99.6547L90.4567 146.774H93.1998L85.9475 99.2222Z" fill="#999393"/>
<path d="M48.2201 146.774H45.4207L56.9944 102.306C57.2482 101.311 57.7966 100.415 58.5679 99.7377C59.339 99.06 60.2968 98.6311 61.3157 98.5078L80.0666 96.1198C81.0224 95.9908 81.9906 96.2443 82.7609 96.8251C83.5312 97.4059 84.0415 98.2673 84.1813 99.2223L91.4337 146.774H88.6905L81.5133 99.6359C81.476 99.3778 81.339 99.1444 81.1317 98.9863C80.9245 98.8282 80.6635 98.7575 80.4048 98.7898L61.6539 101.178C61.1679 101.243 60.712 101.451 60.3442 101.776C59.9763 102.101 59.7129 102.527 59.5872 103.002L48.2201 146.774Z" fill="#CCC4C4"/>
<path d="M30.4837 112.422L21.0707 73.1617C21.0058 72.8851 21.0041 72.5974 21.0652 72.32C21.1263 72.0427 21.2488 71.7827 21.4237 71.5589C21.5986 71.3352 21.8213 71.1535 22.0757 71.0274C22.3299 70.9012 22.6092 70.8339 22.8931 70.8301H20.3379C20.054 70.8339 19.7746 70.9012 19.5204 71.0274C19.266 71.1535 19.0434 71.3352 18.8685 71.5589C18.6935 71.7827 18.571 72.0427 18.51 72.32C18.4489 72.5974 18.4506 72.8851 18.5154 73.1617L27.9472 112.422L58.4973 112.497L30.4837 112.422Z" fill="#999393"/>
<path d="M50.606 72.2591C50.5024 71.853 50.2674 71.4927 49.9377 71.2342C49.6081 70.9757 49.2023 70.8337 48.7835 70.8301H22.8929C22.6092 70.8339 22.3299 70.9012 22.0755 71.0274C21.8213 71.1535 21.5984 71.3352 21.4235 71.5589C21.2488 71.7827 21.1263 72.0427 21.065 72.32C21.004 72.5974 21.0058 72.8851 21.0705 73.1617L30.4835 112.422L60.5075 112.497L50.606 72.2591Z" fill="#F5F5F7"/>
<path d="M91.3208 112.422H50.6813C49.934 112.422 49.3285 113.027 49.3285 113.775C49.3285 114.522 49.934 115.127 50.6813 115.127H91.3208C92.0678 115.127 92.6735 114.522 92.6735 113.775C92.6735 113.027 92.0678 112.422 91.3208 112.422Z" fill="#999393"/>
<path d="M61.1279 112.422H26.4631C25.7161 112.422 25.1104 113.027 25.1104 113.775C25.1104 114.522 25.7161 115.127 26.4631 115.127H61.1279C61.8751 115.127 62.4806 114.522 62.4806 113.775C62.4806 113.027 61.8751 112.422 61.1279 112.422Z" fill="#858990"/>
<path d="M66.3511 113.305C66.438 113.549 66.4542 113.813 66.3977 114.066C66.3411 114.319 66.2143 114.551 66.0317 114.734C65.9056 114.86 65.7562 114.96 65.5918 115.027C65.4274 115.095 65.2512 115.13 65.0734 115.129H26.4631C26.2959 115.127 26.1306 115.095 25.9746 115.035L26.651 112.422H65.0734C65.3525 112.414 65.6268 112.496 65.8565 112.655C66.0861 112.813 66.2594 113.042 66.3511 113.305Z" fill="#999393"/>
<path d="M31.1037 113.174L33.3959 104.393H33.6965L31.4607 113.174H31.1037Z" fill="#858990"/>
<path d="M58.3471 99.2222C58.2175 98.3599 57.7852 97.5719 57.1274 96.9999C56.4698 96.428 55.6297 96.1093 54.7585 96.101H52.8045L52.0342 96.289V96.4206L35.4628 98.5265C34.4465 98.6574 33.4924 99.0887 32.7226 99.7655C31.9529 100.442 31.4022 101.333 31.1414 102.325L19.5865 146.793H22.386L33.753 103.02C33.8774 102.549 34.138 102.124 34.5023 101.8C34.8664 101.475 35.3183 101.265 35.8009 101.197L54.5706 98.7898C54.8294 98.7576 55.0903 98.8281 55.2976 98.9863C55.5048 99.1446 55.6418 99.3777 55.6792 99.6359L62.8564 146.774H65.5807L58.3471 99.2222Z" fill="#999393"/>
<path d="M20.6197 146.774H17.8202L29.3751 102.306C29.6361 101.314 30.1866 100.423 30.9564 99.7465C31.7263 99.07 32.6804 98.6386 33.6965 98.5078L52.4662 96.1198C53.4221 95.9908 54.3901 96.2443 55.1604 96.8251C55.9308 97.4059 56.4412 98.2673 56.5808 99.2223L63.8144 146.774H61.0901L53.9129 99.6359C53.8757 99.3778 53.7385 99.1444 53.5313 98.9863C53.324 98.8282 53.0631 98.7575 52.8044 98.7898L34.0534 101.178C33.5674 101.243 33.1116 101.451 32.7437 101.776C32.3758 102.101 32.1124 102.527 31.9867 103.002L20.6197 146.774Z" fill="#CCC4C4"/>
<g opacity="0.1">
<path opacity="0.1" d="M155.314 13.3499H145.92V22.1496H155.314V13.3499Z" fill="black"/>
</g>
<path d="M205.273 0H132.298V48.4302H205.273V0Z" fill="#D0C8C8"/>
<path d="M206.363 0H205.273V48.4302H206.363V0Z" fill="#E2E2E2"/>
<path d="M203.45 1.91809H134.384V46.7062H203.45V1.91809Z" fill="#F5F5F7"/>
<path d="M135.718 1.91809H134.384V46.7062H135.718V1.91809Z" fill="#E2E2E2"/>
<g opacity="0.1">
<path opacity="0.1" d="M151.932 29.4641H162.529V39.3919C162.529 39.3919 156.084 41.2346 154.224 39.3543C152.364 37.474 151.932 29.4641 151.932 29.4641Z" fill="black"/>
</g>
<path d="M183.088 8.18826H193.685V18.1161C193.685 18.1161 186.996 18.1161 185.211 16.3486C183.427 14.5812 183.088 8.18826 183.088 8.18826Z" fill="white"/>
<path opacity="0.1" d="M189.284 25.1206H178.33V36.0845H189.284V25.1206Z" fill="black"/>
<path d="M188.081 24.1053H177.128V35.0692H188.081V24.1053Z" fill="#2FBF93"/>
<path opacity="0.15" d="M183.084 25.591C183.084 25.7208 183.031 25.8452 182.941 25.9369C182.849 26.0287 182.725 26.0802 182.595 26.0802C182.469 26.0753 182.349 26.0217 182.261 25.9305C182.174 25.8392 182.126 25.7177 182.126 25.591C182.126 25.4663 182.174 25.3466 182.263 25.2584C182.351 25.1701 182.471 25.1206 182.595 25.1206C182.721 25.1206 182.843 25.1696 182.933 25.2572C183.025 25.3449 183.078 25.4646 183.084 25.591Z" fill="#2FBF93"/>
<path opacity="0.15" d="M188.744 9.29777C188.744 9.42251 188.694 9.54218 188.606 9.63042C188.518 9.71866 188.399 9.76814 188.274 9.76814C188.149 9.76814 188.03 9.71866 187.942 9.63042C187.854 9.54218 187.804 9.42251 187.804 9.29777C187.804 9.17302 187.854 9.05336 187.942 8.96512C188.03 8.87706 188.149 8.82739 188.274 8.82739C188.399 8.82739 188.518 8.87706 188.606 8.96512C188.694 9.05336 188.744 9.17302 188.744 9.29777Z" fill="#2FBF93"/>
<path opacity="0.1" d="M158.32 7.93477C158.32 7.93477 165.855 6.54337 167.752 8.42364C169.65 10.3039 168.974 18.5959 168.974 18.5959H158.32V7.93477Z" fill="black"/>
<path d="M157.099 6.41174C157.099 6.41174 163.45 5.50921 165.329 7.38948C167.207 9.26976 167.734 17.0729 167.734 17.0729H157.099V6.41174Z" fill="#333131"/>
<path opacity="0.15" d="M162.792 7.38973C162.786 7.48626 162.745 7.57714 162.676 7.64374C162.606 7.71035 162.512 7.74741 162.416 7.74722C162.321 7.74722 162.23 7.70959 162.163 7.64261C162.097 7.57544 162.059 7.48456 162.059 7.38973C162.056 7.34119 162.063 7.29284 162.08 7.24711C162.097 7.20158 162.123 7.16 162.157 7.12481C162.191 7.08944 162.23 7.06141 162.275 7.0424C162.319 7.02321 162.368 7.01343 162.416 7.01343C162.516 7.01343 162.612 7.05313 162.681 7.12369C162.753 7.19424 162.792 7.29001 162.792 7.38973Z" fill="black"/>
<path d="M165.573 9.19473H159.391C159.153 9.19473 158.959 9.38759 158.959 9.62561C158.959 9.86362 159.153 10.0565 159.391 10.0565H165.573C165.811 10.0565 166.005 9.86362 166.005 9.62561C166.005 9.38759 165.811 9.19473 165.573 9.19473Z" fill="#B1B5BA"/>
<path d="M165.873 11.3381H159.091C159.018 11.3381 158.959 11.3938 158.959 11.4623C158.959 11.5309 159.018 11.5864 159.091 11.5864H165.873C165.947 11.5864 166.005 11.5309 166.005 11.4623C166.005 11.3938 165.947 11.3381 165.873 11.3381Z" fill="#B1B5BA"/>
<path d="M165.873 12.8799H159.091C159.018 12.8799 158.959 12.9356 158.959 13.0041C158.959 13.0727 159.018 13.1282 159.091 13.1282H165.873C165.947 13.1282 166.005 13.0727 166.005 13.0041C166.005 12.9356 165.947 12.8799 165.873 12.8799Z" fill="#B1B5BA"/>
<path d="M165.873 14.4219H159.091C159.018 14.4219 158.959 14.4774 158.959 14.5461C158.959 14.6146 159.018 14.6703 159.091 14.6703H165.873C165.947 14.6703 166.005 14.6146 166.005 14.5461C166.005 14.4774 165.947 14.4219 165.873 14.4219Z" fill="#B1B5BA"/>
<path d="M185.507 27.9221H178.725C178.652 27.9221 178.593 27.9778 178.593 28.0462C178.593 28.1149 178.652 28.1704 178.725 28.1704H185.507C185.581 28.1704 185.639 28.1149 185.639 28.0462C185.639 27.9778 185.581 27.9221 185.507 27.9221Z" fill="white"/>
<path d="M185.507 29.4641H178.725C178.652 29.4641 178.593 29.5196 178.593 29.5883C178.593 29.6568 178.652 29.7124 178.725 29.7124H185.507C185.581 29.7124 185.639 29.6568 185.639 29.5883C185.639 29.5196 185.581 29.4641 185.507 29.4641Z" fill="white"/>
<path d="M184.568 31.0059H178.725C178.652 31.0059 178.593 31.0614 178.593 31.1301C178.593 31.1986 178.652 31.2543 178.725 31.2543H184.568C184.641 31.2543 184.7 31.1986 184.7 31.1301C184.7 31.0614 184.641 31.0059 184.568 31.0059Z" fill="white"/>
<path opacity="0.1" d="M198.265 9.45779H179.364V18.2349H198.265V9.45779Z" fill="#DDDDDE"/>
<path d="M46.4535 51.2755H67.1396V22.6333H46.4535V51.2755Z" fill="white"/>
<path d="M49.2156 48.6241H64.3779V25.2842H49.2156V48.6241Z" fill="#DDDDDD"/>
<path d="M67.7596 22.6199H67.1584V51.2621H67.7596V22.6199Z" fill="#DADDDF"/>
<path d="M53.2551 44.8259H60.3572V33.5462H53.2551V44.8259Z" fill="#333131"/>
<path d="M56.8061 32.1341C57.7347 32.1341 58.6254 31.7663 59.284 31.1108C59.9423 30.4555 60.3145 29.566 60.3196 28.6368H53.3115C53.3115 29.5643 53.6795 30.4539 54.3351 31.1097C54.9904 31.7657 55.8793 32.1341 56.8061 32.1341Z" fill="#2EBA8F"/>
<path d="M183.61 87.6586L180.622 72.9924" stroke="#868A91" stroke-width="0.407332" stroke-miterlimit="10"/>
<path d="M184.436 68.0473L184.023 87.1133" stroke="#868A91" stroke-width="0.407332" stroke-miterlimit="10"/>
<path d="M188.777 71.5822L184.23 77.2983" stroke="#868A91" stroke-width="0.407332" stroke-miterlimit="10"/>
<path d="M185.864 91.3063L185.414 90.6294C184.963 89.9497 184.72 89.1517 184.718 88.3355V86.7184H182.971V88.3355C182.977 89.15 182.742 89.948 182.295 90.6294L181.844 91.3063C181.38 92.0142 181.066 92.8107 180.925 93.6454C180.782 94.4802 180.814 95.3353 181.017 96.1574L181.524 98.1693H186.184L186.691 96.1574C186.894 95.3353 186.926 94.4802 186.783 93.6454C186.642 92.8107 186.329 92.0142 185.864 91.3063Z" fill="#333131"/>
<path opacity="0.2" d="M185.864 91.3063L185.414 90.6294C184.963 89.9497 184.72 89.1517 184.718 88.3355V86.7184H184.23V88.3355C184.243 89.1269 184.435 89.9049 184.793 90.6106L185.32 91.5883C186.597 94.484 184.173 98.1693 184.173 98.1693H186.184L186.691 96.1574C186.894 95.3353 186.926 94.4802 186.783 93.6454C186.642 92.8107 186.329 92.0142 185.864 91.3063Z" fill="black"/>
<path d="M182.445 81.9237L187.856 77.4487" stroke="#868A91" stroke-width="0.407332" stroke-miterlimit="10"/>
<path d="M178.368 80.9272L183.159 85.4398" stroke="#868A91" stroke-width="0.407332" stroke-miterlimit="10"/>
<path d="M186.071 74.9855L186.823 71.695C186.883 71.4267 187.011 71.1781 187.193 70.9728C187.377 70.7677 187.608 70.6126 187.869 70.5223C188.128 70.4319 188.406 70.4093 188.677 70.4565C188.948 70.5039 189.201 70.6195 189.415 70.7925C189.631 70.9625 189.799 71.1844 189.906 71.4374C190.011 71.6905 190.05 71.9664 190.02 72.239C189.99 72.5116 189.891 72.7723 189.733 72.9962C189.575 73.2199 189.363 73.3999 189.115 73.5189L186.071 74.9855Z" fill="#2EBA8F"/>
<path opacity="0.3" d="M186.071 74.9855L186.823 71.695C186.883 71.4267 187.011 71.1781 187.193 70.9728C187.377 70.7677 187.608 70.6126 187.869 70.5223C188.128 70.4319 188.406 70.4093 188.677 70.4565C188.948 70.5039 189.201 70.6195 189.415 70.7925C189.631 70.9625 189.799 71.1844 189.906 71.4374C190.011 71.6905 190.05 71.9664 190.02 72.239C189.99 72.5116 189.891 72.7723 189.733 72.9962C189.575 73.2199 189.363 73.3999 189.115 73.5189L186.071 74.9855Z" fill="#165945"/>
<path d="M190.035 72.0899C190.028 72.3898 189.938 72.6816 189.776 72.9336C189.613 73.1855 189.385 73.388 189.115 73.5189L186.071 74.9855L189.415 70.7925C189.615 70.9442 189.774 71.1409 189.881 71.3666C189.989 71.5922 190.043 71.84 190.035 72.0899Z" fill="#2EBA8F"/>
<path d="M184.343 73.5189L182.201 69.0815C182.022 68.7174 181.94 68.3138 181.96 67.9086C181.979 67.5035 182.103 67.1102 182.317 66.7659C182.531 66.4216 182.83 66.1375 183.185 65.9407C183.538 65.7438 183.937 65.6406 184.343 65.6406C184.747 65.6421 185.141 65.7457 185.494 65.9414C185.846 66.1373 186.143 66.4192 186.357 66.7608C186.571 67.1025 186.693 67.4928 186.716 67.8952C186.738 68.2978 186.659 68.6994 186.484 69.0627L184.343 73.5189Z" fill="#2EBA8F"/>
<path opacity="0.3" d="M184.343 73.5189L182.201 69.0815C182.022 68.7174 181.94 68.3138 181.96 67.9086C181.979 67.5035 182.103 67.1102 182.317 66.7659C182.531 66.4216 182.83 66.1375 183.185 65.9407C183.538 65.7438 183.937 65.6406 184.343 65.6406C184.747 65.6421 185.141 65.7457 185.494 65.9414C185.846 66.1373 186.143 66.4192 186.357 66.7608C186.571 67.1025 186.693 67.4928 186.716 67.8952C186.738 68.2978 186.659 68.6994 186.484 69.0627L184.343 73.5189Z" fill="#2FBF93"/>
<path opacity="0.3" d="M184.437 65.6594L184.343 73.5189L186.484 69.0627C186.657 68.7077 186.738 68.3151 186.721 67.9208C186.702 67.5265 186.588 67.1429 186.383 66.8049C186.18 66.4668 185.894 66.1849 185.556 65.9849C185.216 65.7848 184.831 65.6729 184.437 65.6594Z" fill="#165945"/>
<path d="M181.956 79.7976L178.838 76.0746C178.58 75.7711 178.404 75.4071 178.325 75.0166C178.246 74.626 178.268 74.2222 178.389 73.8423C178.509 73.4627 178.723 73.1198 179.012 72.8458C179.302 72.5718 179.655 72.3759 180.04 72.2764C180.427 72.1757 180.831 72.1751 181.218 72.2746C181.605 72.374 181.958 72.5705 182.248 72.845C182.537 73.1197 182.753 73.4638 182.873 73.8446C182.992 74.2254 183.014 74.6306 182.933 75.0217L181.956 79.7976Z" fill="#2FBF93"/>
<path opacity="0.3" d="M183.114 75.0216C183.194 74.6305 183.172 74.2254 183.054 73.8446C182.933 73.4638 182.719 73.1197 182.428 72.845C182.139 72.5705 181.785 72.374 181.398 72.2746C181.011 72.1751 180.607 72.1757 180.22 72.2764L182.155 79.7788L183.114 75.0216Z" fill="#238C6C"/>
<path d="M181.524 83.898L180.096 80.3255C179.978 80.0365 179.79 79.7821 179.548 79.5854C179.305 79.3887 179.016 79.2562 178.71 79.2002C178.404 79.1439 178.088 79.1659 177.791 79.2639C177.494 79.362 177.227 79.5331 177.015 79.7614C176.801 79.9912 176.649 80.2721 176.572 80.5775C176.496 80.883 176.5 81.2027 176.583 81.5061C176.666 81.8096 176.825 82.0868 177.045 82.3113C177.267 82.5358 177.539 82.7001 177.842 82.7887L181.524 83.898Z" fill="#2EBA8F"/>
<path opacity="0.3" d="M181.524 83.898L180.096 80.3255C179.978 80.0365 179.79 79.7821 179.548 79.5854C179.305 79.3887 179.016 79.2562 178.71 79.2002C178.404 79.1439 178.088 79.1659 177.791 79.2639C177.494 79.362 177.227 79.5331 177.015 79.7614C176.801 79.9912 176.649 80.2721 176.572 80.5775C176.496 80.883 176.5 81.2027 176.583 81.5061C176.666 81.8096 176.825 82.0868 177.045 82.3113C177.267 82.5358 177.539 82.7001 177.842 82.7887L181.524 83.898Z" fill="#238C6C"/>
<path opacity="0.3" d="M177.071 79.705L181.505 83.898H181.524L180.096 80.3255C179.984 80.0397 179.803 79.7864 179.568 79.5888C179.334 79.3912 179.054 79.2553 178.753 79.1936C178.452 79.1321 178.14 79.1466 177.847 79.2359C177.554 79.325 177.287 79.4863 177.071 79.705Z" fill="#165945"/>
<path d="M183.892 80.7768L185.451 77.0162C185.577 76.7086 185.778 76.4377 186.035 76.2295C186.295 76.0212 186.603 75.8822 186.93 75.8258C187.257 75.7694 187.593 75.7972 187.907 75.9069C188.219 76.0165 188.5 76.2041 188.72 76.4521C188.944 76.699 189.102 76.9991 189.177 77.3238C189.252 77.6484 189.243 77.987 189.151 78.3072C189.059 78.6274 188.886 78.9189 188.649 79.1535C188.412 79.3884 188.121 79.5587 187.8 79.6486L183.892 80.7768Z" fill="#2EBA8F"/>
<path opacity="0.3" d="M183.892 80.7768L185.451 77.0162C185.577 76.7086 185.778 76.4377 186.035 76.2295C186.295 76.0212 186.603 75.8822 186.93 75.8258C187.257 75.7694 187.593 75.7972 187.907 75.9069C188.219 76.0165 188.5 76.2041 188.72 76.4521C188.944 76.699 189.102 76.9991 189.177 77.3238C189.252 77.6484 189.243 77.987 189.151 78.3072C189.059 78.6274 188.886 78.9189 188.649 79.1535C188.412 79.3884 188.121 79.5587 187.8 79.6486L183.892 80.7768Z" fill="#238C6C"/>
<path d="M184.042 85.3458L191.426 81.2845" stroke="#868A91" stroke-width="0.407332" stroke-miterlimit="10"/>
<path d="M185.244 84.6689L187.931 81.0024C188.151 80.7046 188.442 80.4675 188.779 80.3125C189.115 80.1576 189.485 80.0903 189.853 80.1164C190.223 80.1427 190.58 80.2618 190.89 80.4628C191.202 80.6636 191.456 80.9398 191.633 81.2656C191.807 81.5934 191.897 81.9604 191.892 82.3319C191.886 82.7037 191.787 83.0681 191.604 83.3909C191.42 83.7139 191.157 83.9851 190.84 84.1789C190.524 84.3728 190.161 84.4832 189.791 84.4997L185.244 84.6689Z" fill="#2EBA8F"/>
<path opacity="0.3" d="M185.244 84.6689L187.931 81.0024C188.151 80.7046 188.442 80.4675 188.779 80.3125C189.115 80.1576 189.485 80.0903 189.853 80.1164C190.223 80.1427 190.58 80.2618 190.89 80.4628C191.202 80.6636 191.456 80.9398 191.633 81.2656C191.807 81.5934 191.897 81.9604 191.892 82.3319C191.886 82.7037 191.787 83.0681 191.604 83.3909C191.42 83.7139 191.157 83.9851 190.84 84.1789C190.524 84.3728 190.161 84.4832 189.791 84.4997L185.244 84.6689Z" fill="#165945"/>
<path d="M191.708 83.5393C191.539 83.911 191.27 84.229 190.932 84.458C190.593 84.6868 190.199 84.8179 189.791 84.8367L185.244 85.0059L191.632 81.6026C191.792 81.8982 191.882 82.2265 191.896 82.5621C191.907 82.8979 191.843 83.2321 191.708 83.5393Z" fill="#238C6C"/>
<path opacity="0.3" d="M185.451 77.0162L183.892 80.7768L188.72 76.4521C188.5 76.2041 188.219 76.0165 187.907 75.9069C187.593 75.7972 187.257 75.7694 186.93 75.8258C186.603 75.8822 186.295 76.0212 186.035 76.2295C185.778 76.4377 185.577 76.7086 185.451 77.0162Z" fill="#165945"/>
<path d="M211.623 99.8241H209.444L216.001 146.774H216.847L211.623 99.8241Z" fill="#B1B5BA"/>
<path d="M168.241 146.774H169.086L175.643 99.8241H173.464L168.241 146.774Z" fill="#B1B5BA"/>
<path d="M216.847 146.774H216.471L210.853 101.14C210.84 100.982 210.77 100.834 210.656 100.723C210.541 100.613 210.391 100.547 210.233 100.539L209.519 100.463L209.444 99.8241H211.623L216.847 146.774Z" fill="#999393"/>
<path d="M168.786 146.774L174.629 101.197C174.648 101.031 174.603 100.865 174.507 100.729C174.409 100.594 174.266 100.5 174.103 100.463L173.408 100.332L173.464 99.8241H175.643L169.105 146.774H168.786Z" fill="#999393"/>
<path d="M218.331 99.8241H216.151L222.709 146.774H223.554L218.331 99.8241Z" fill="#B1B5BA"/>
<path d="M174.948 146.774H175.813L182.37 99.8241H180.19L174.948 146.774Z" fill="#B1B5BA"/>
<path d="M223.554 146.774H223.197L220.999 130.134L220.323 129.739L216.245 100.463L216.151 99.8241H218.331L223.554 146.774Z" fill="#999393"/>
<path d="M175.493 146.774L177.616 130.266L176.846 129.739L180.19 99.8241H182.37L175.813 146.774H175.493Z" fill="#999393"/>
<path d="M176.151 98.9778C176.151 99.1991 176.237 99.4114 176.391 99.5697C176.545 99.7279 176.756 99.8191 176.977 99.824H221.938C222.139 99.7939 222.322 99.6929 222.453 99.5393C222.585 99.3858 222.658 99.1899 222.658 98.9872C222.658 98.7847 222.585 98.5888 222.453 98.4352C222.322 98.2817 222.139 98.1808 221.938 98.1505H176.977C176.868 98.1505 176.761 98.1719 176.662 98.2135C176.56 98.255 176.47 98.3161 176.393 98.3929C176.316 98.4698 176.256 98.5609 176.213 98.6614C176.171 98.7616 176.151 98.8693 176.151 98.9778Z" fill="#999393"/>
<path d="M169.612 98.9778C169.612 99.1991 169.699 99.4114 169.853 99.5697C170.009 99.7279 170.217 99.8191 170.439 99.824H206.062C206.263 99.7939 206.445 99.6929 206.577 99.5393C206.71 99.3858 206.782 99.1899 206.782 98.9872C206.782 98.7847 206.71 98.5888 206.577 98.4352C206.445 98.2817 206.263 98.1808 206.062 98.1505H170.439C170.219 98.1505 170.009 98.2377 169.855 98.3929C169.699 98.548 169.612 98.7584 169.612 98.9778Z" fill="#CCC4C4"/>
<path d="M194.394 94.7284H207.471V98.1505H194.394C193.942 98.1505 193.506 97.9701 193.186 97.6494C192.865 97.3284 192.685 96.8933 192.685 96.4394C192.685 95.9857 192.865 95.5504 193.186 95.2297C193.506 94.9087 193.942 94.7284 194.394 94.7284Z" fill="#666262"/>
<path d="M206.381 98.1505H212.995V97.6616H210.947V95.2361H212.995V94.7284H206.381C205.929 94.7284 205.493 94.9087 205.173 95.2297C204.852 95.5504 204.672 95.9857 204.672 96.4394C204.672 96.8933 204.852 97.3284 205.173 97.6494C205.493 97.9701 205.929 98.1505 206.381 98.1505Z" fill="#61656D"/>
<path d="M212.506 97.6428H206.4C206.081 97.6428 205.775 97.5161 205.549 97.2904C205.324 97.0646 205.198 96.7587 205.198 96.4394C205.198 96.1203 205.324 95.8142 205.549 95.5886C205.775 95.3628 206.081 95.2361 206.4 95.2361H212.506V97.6428Z" fill="white"/>
<path d="M192.44 92.096H203.357V94.7284H192.44C192.32 94.7284 192.205 94.6808 192.121 94.5962C192.036 94.5116 191.989 94.3969 191.989 94.2771V92.5473C191.989 92.4277 192.036 92.3128 192.121 92.2282C192.205 92.1436 192.32 92.096 192.44 92.096Z" fill="#333131"/>
<path d="M198.641 92.9797H194.883C194.78 92.9797 194.695 93.064 194.695 93.1679V93.7493C194.695 93.8533 194.78 93.9374 194.883 93.9374H198.641C198.744 93.9374 198.828 93.8533 198.828 93.7493V93.1679C198.828 93.064 198.744 92.9797 198.641 92.9797Z" fill="#333131"/>
<path d="M207.584 94.7284H201.647C201.527 94.7284 201.412 94.6808 201.327 94.5962C201.243 94.5116 201.196 94.3969 201.196 94.2771V92.5473C201.196 92.4277 201.243 92.3128 201.327 92.2282C201.412 92.1436 201.527 92.096 201.647 92.096H207.584V94.7284Z" fill="#333131"/>
<path d="M207.584 94.3337H201.816C201.756 94.3337 201.699 94.3099 201.656 94.2676C201.615 94.2253 201.59 94.1679 201.59 94.1081V92.6979C201.59 92.6379 201.615 92.5806 201.656 92.5383C201.699 92.496 201.756 92.4723 201.816 92.4723H207.584V94.3337Z" fill="white"/>
<path d="M210.947 92.096H198.039V89.4636H210.947C211.112 89.4636 211.27 89.529 211.387 89.6454C211.501 89.7618 211.567 89.9196 211.567 90.0841V91.4943C211.563 91.6556 211.496 91.8087 211.379 91.921C211.263 92.0334 211.109 92.0962 210.947 92.096Z" fill="#79D5B9"/>
<path d="M210.947 92.096H198.039V89.4636H210.947C211.112 89.4636 211.27 89.529 211.387 89.6454C211.501 89.7618 211.567 89.9196 211.567 90.0841V91.4943C211.563 91.6556 211.496 91.8087 211.379 91.921C211.263 92.0334 211.109 92.0962 210.947 92.096Z" fill="url(#paint0_linear)"/>
<path d="M193.624 89.8585H199.561C199.621 89.8585 199.68 89.8822 199.721 89.9245C199.764 89.9668 199.787 90.0243 199.787 90.0841V91.4943C199.787 91.5541 199.764 91.6115 199.721 91.6538C199.68 91.6961 199.621 91.7199 199.561 91.7199H193.624V89.8585Z" fill="white"/>
<path d="M199.73 89.4636H193.192V89.8585H199.561C199.589 89.8558 199.619 89.8592 199.646 89.8684C199.674 89.8776 199.698 89.8925 199.719 89.912C199.742 89.9314 199.759 89.9551 199.77 89.9816C199.781 90.0079 199.787 90.0365 199.787 90.0653V91.4943C199.787 91.5231 199.781 91.5517 199.77 91.5782C199.759 91.6045 199.742 91.6282 199.719 91.6477C199.698 91.6671 199.674 91.682 199.646 91.6912C199.619 91.7004 199.589 91.7038 199.561 91.7011H193.192V92.096H199.73C199.851 92.096 199.965 92.0484 200.05 91.9638C200.134 91.8792 200.181 91.7645 200.181 91.6447V89.9149C200.181 89.7953 200.134 89.6804 200.05 89.5958C199.965 89.5112 199.851 89.4636 199.73 89.4636Z" fill="#79D5B9"/>
<path d="M143.815 89.7645L160.988 76.3205C162.078 75.4537 162.956 74.3494 163.555 73.0917C164.154 71.8338 164.459 70.4559 164.446 69.0626V42.7952H139.607L139.569 43.4909V42.7952H114.712V69.0626C114.699 70.4559 115.003 71.8338 115.602 73.0917C116.201 74.3494 117.079 75.4537 118.169 76.3205L135.361 89.7645C135.72 90.0533 136.01 90.4199 136.209 90.8366C136.407 91.2533 136.509 91.7096 136.507 92.1712C136.508 92.63 136.405 93.083 136.207 93.4964C136.008 93.9099 135.719 94.2732 135.361 94.5592L118.169 108.003C117.079 108.87 116.201 109.974 115.602 111.232C115.003 112.49 114.699 113.868 114.712 115.261V141.528H139.569V140.851L139.607 141.547H164.446V115.261C164.446 112.403 163.168 109.695 160.988 108.003L143.815 94.5592C143.454 94.276 143.162 93.9133 142.964 93.4992C142.765 93.085 142.664 92.6306 142.669 92.1712C142.663 91.7088 142.763 91.2512 142.961 90.8338C143.16 90.4163 143.452 90.0504 143.815 89.7645Z" fill="#2EBA8F"/>
<path opacity="0.6" d="M143.815 89.7645L160.988 76.3205C162.078 75.4537 162.956 74.3494 163.555 73.0917C164.154 71.8338 164.459 70.4559 164.446 69.0627V42.7952H139.607L139.569 43.4909V42.7952H114.712V69.0627C114.699 70.4559 115.003 71.8338 115.602 73.0917C116.201 74.3494 117.079 75.4537 118.169 76.3205L135.361 89.7645C135.72 90.0533 136.01 90.4199 136.209 90.8366C136.407 91.2533 136.509 91.7096 136.507 92.1712C136.508 92.63 136.405 93.083 136.207 93.4964C136.008 93.9099 135.719 94.2732 135.361 94.5592L118.169 108.003C117.079 108.87 116.201 109.974 115.602 111.232C115.003 112.49 114.699 113.868 114.712 115.261V141.528H139.569V140.851L139.607 141.547H164.446V115.261C164.446 112.403 163.168 109.695 160.988 108.003L143.815 94.5592C143.454 94.276 143.162 93.9133 142.964 93.4993C142.765 93.085 142.664 92.6306 142.669 92.1712C142.663 91.7089 142.763 91.2512 142.961 90.8338C143.16 90.4164 143.452 90.0504 143.815 89.7645Z" fill="white"/>
<g opacity="0.4">
<path d="M142.97 90.8174C143.157 90.4051 143.441 90.0439 143.797 89.7645L155.182 80.8708C156.2 79.3316 156.742 77.5267 156.742 75.6812V42.7952H139.607L139.569 43.4909V42.7952H114.712V69.0627C114.699 70.4559 115.003 71.8338 115.602 73.0917C116.201 74.3494 117.079 75.4537 118.169 76.3205L135.361 89.7645C135.72 90.0533 136.01 90.4199 136.209 90.8366C136.407 91.2533 136.509 91.7096 136.507 92.1712C136.506 92.6351 136.396 93.0924 136.187 93.5062C136 93.9186 135.717 94.2798 135.361 94.5592L118.169 108.003C117.427 108.589 116.78 109.286 116.253 110.071C115.242 111.613 114.706 113.417 114.712 115.261V141.528H139.569V140.851L139.607 141.547H156.742L156.704 112.516C156.704 107.721 156.291 104.355 153.473 102.155L143.815 94.5592C142.068 93.1113 142.857 91.0995 142.857 91.0995C142.878 90.9996 142.916 90.9043 142.97 90.8174Z" fill="#2FBF93"/>
<path d="M142.97 90.8174C143.157 90.4051 143.441 90.0439 143.797 89.7645L155.182 80.8708C156.2 79.3316 156.742 77.5267 156.742 75.6812V42.7952H139.607L139.569 43.4909V42.7952H114.712V69.0627C114.699 70.4559 115.003 71.8338 115.602 73.0917C116.201 74.3494 117.079 75.4537 118.169 76.3205L135.361 89.7645C135.72 90.0533 136.01 90.4199 136.209 90.8366C136.407 91.2533 136.509 91.7096 136.507 92.1712C136.506 92.6351 136.396 93.0924 136.187 93.5062C136 93.9186 135.717 94.2798 135.361 94.5592L118.169 108.003C117.427 108.589 116.78 109.286 116.253 110.071C115.242 111.613 114.706 113.417 114.712 115.261V141.528H139.569V140.851L139.607 141.547H156.742L156.704 112.516C156.704 107.721 156.291 104.355 153.473 102.155L143.815 94.5592C142.068 93.1113 142.857 91.0995 142.857 91.0995C142.878 90.9996 142.916 90.9043 142.97 90.8174Z" fill="url(#paint1_linear)"/>
</g>
<path opacity="0.5" d="M157.775 53.8136C153.229 53.8136 149.02 58.8716 139.551 61.0903C134.609 62.4065 128.447 62.2185 120.931 60.7519C120.508 60.6718 120.073 60.6858 119.655 60.7932C119.239 60.9008 118.85 61.099 118.518 61.3735C118.187 61.6482 117.919 61.9926 117.735 62.3824C117.552 62.7722 117.456 63.1977 117.455 63.6287V68.8746C117.454 69.9223 117.693 70.9567 118.152 71.8983C118.611 72.8399 119.279 73.6644 120.105 74.3086C132.336 83.9544 133.219 84.1613 137.315 87.527C137.643 87.8081 137.907 88.1568 138.089 88.5496C138.271 88.9422 138.365 89.3694 138.367 89.8021V126.054C138.371 128.422 137.447 130.697 135.793 132.39L130.532 139.122L128.653 141.528H150.542L142.951 132.052C141.645 130.686 140.917 128.866 140.922 126.975V90.0841C140.924 89.6534 141.017 89.2277 141.195 88.8356C141.373 88.4434 141.632 88.0935 141.956 87.809C146.051 84.3493 141.58 88.3731 159.053 74.3838C159.862 73.7321 160.515 72.9076 160.963 71.9705C161.412 71.0334 161.645 70.0077 161.646 68.9687V58.1571C161.665 56.07 160.819 53.8136 157.775 53.8136Z" fill="#2FBF93"/>
<path d="M169.349 146.793H116.798C115.426 146.793 114.318 145.627 114.318 144.161C114.318 142.713 115.426 141.528 116.798 141.528H169.349C170.721 141.528 171.848 142.713 171.848 144.161C171.848 145.627 170.721 146.793 169.349 146.793Z" fill="#666262"/>
<path d="M166.024 146.793H113.472C112.101 146.793 110.992 145.627 110.992 144.161C110.992 142.713 112.101 141.528 113.472 141.528H166.024C167.395 141.528 168.504 142.713 168.504 144.161C168.504 145.627 167.395 146.793 166.024 146.793Z" fill="#333131"/>
<path d="M169.349 46.1421H116.798C115.426 46.1421 114.318 44.9576 114.318 43.5097C114.318 42.0619 115.426 40.8773 116.798 40.8773H169.349C170.721 40.8773 171.848 42.0619 171.848 43.5097C171.848 44.9576 170.721 46.1421 169.349 46.1421Z" fill="#666262"/>
<path d="M166.024 46.1421H113.472C112.101 46.1421 110.992 44.9576 110.992 43.5097C110.992 42.0619 112.101 40.8773 113.472 40.8773H166.024C167.395 40.8773 168.504 42.0619 168.504 43.5097C168.504 44.9576 167.395 46.1421 166.024 46.1421Z" fill="#333131"/>
<path d="M82.6967 60.432V33.7886C82.584 32.5476 80.7803 27.3204 82.133 25.1393L90.3436 23.071L101.41 22.7137C101.466 22.7702 107.554 31.9083 107.554 31.9083L108.305 60.3004L82.6967 60.432Z" fill="#2FBF93"/>
<path d="M82.6967 60.432V33.7886C82.584 32.5476 80.7803 27.3204 82.133 25.1393L90.3436 23.071L101.41 22.7137C101.466 22.7702 107.554 31.9083 107.554 31.9083L108.305 60.3004L82.6967 60.432Z" fill="url(#paint2_linear)"/>
<path d="M103.759 133.293H110.278L110.428 137.035C110.451 137.519 110.582 137.993 110.813 138.419C111.044 138.846 111.369 139.214 111.762 139.498L116.535 142.92L104.585 142.619L103.759 133.293Z" fill="#FB9C9C"/>
<path d="M83.035 133.274L89.4043 133.255L88.4085 142.375H83.035V133.274Z" fill="#FB9C9C"/>
<g filter="url(#filter0_d)">
<path d="M82.7908 62.0304L108.343 61.88L110.748 135.982H103.759L97.2767 75.2112C97.2579 75.025 97.1708 74.8524 97.0317 74.7274C96.8927 74.6021 96.7121 74.5333 96.5252 74.5342C96.333 74.528 96.1455 74.5942 95.9993 74.7195C95.8533 74.8447 95.7594 75.0201 95.7361 75.2112L89.6674 135.982H82.6593L82.7908 62.0304Z" fill="#333131"/>
</g>
<path d="M82.509 134.477H90.0808L89.9305 135.982H82.4714L82.509 134.477Z" fill="#3F4249"/>
<path d="M103.402 134.477H110.898L110.974 135.982H103.571L103.402 134.477Z" fill="#3F4249"/>
<path opacity="0.15" d="M110.898 134.477L108.7 134.459V135.982H110.973L110.898 134.477Z" fill="black"/>
<path d="M82.772 59.3604H108.324L108.381 61.9552L82.772 62.0304V59.3604Z" fill="#1A1A1A"/>
<path d="M98.8361 59.3604H93.8572V62.0248H98.8361V59.3604Z" fill="#61656D"/>
<path d="M98.5731 59.3604H94.1202V62.0248H98.5731V59.3604Z" fill="#DADDDF"/>
<path d="M98.2913 37.7183L95.4918 37.9815C95.5106 38.0003 95.5106 38.038 95.5106 38.0944L95.5669 38.32C95.5857 38.3388 95.5857 38.3764 95.6045 38.414C95.6045 38.424 95.6085 38.4336 95.6156 38.4407C95.6226 38.4477 95.6321 38.4516 95.6421 38.4516L95.9991 38.8653L96.0367 38.9217C96.0367 38.9405 96.0554 38.9405 96.0554 38.9593C96.0748 39.027 96.0748 39.0986 96.0554 39.1661C96.0564 39.1765 96.0551 39.1866 96.0519 39.1964C96.0487 39.206 96.0434 39.215 96.0367 39.2225C96.0355 39.237 96.0288 39.2505 96.0179 39.2601L95.8863 39.373H95.83C95.8112 39.373 95.8112 39.6174 95.7924 39.6174C95.8944 39.5724 96.0017 39.5409 96.1118 39.5234C96.1881 39.5734 96.2482 39.6443 96.285 39.7278C96.3217 39.8112 96.3333 39.9036 96.3185 39.9934L96.2621 40.2191C96.2409 40.3189 96.19 40.4099 96.1163 40.4804C96.0425 40.5508 95.9493 40.5974 95.8488 40.6139L95.9991 40.802C96.0427 40.8555 96.069 40.9212 96.0742 40.99L96.1682 41.4789C96.1755 41.5648 96.156 41.6507 96.1122 41.725C96.0684 41.7991 96.0026 41.8577 95.9239 41.8925L94.1954 42.607L93.4063 42.9455L89.4043 46.4992L88.5776 40.9336L90.6632 39.2413C90.7577 39.1817 90.8403 39.1052 90.9074 39.0157L91.6402 38.132C91.9451 37.7501 92.3573 37.4686 92.8238 37.3235L93.0493 37.2482L98.1973 36.7594C98.9489 36.797 98.761 37.6619 98.2913 37.7183Z" fill="#2EBA8F"/>
<path d="M96.3181 40.0124L96.2617 40.2381C96.2405 40.3377 96.1898 40.4287 96.116 40.4992C96.0423 40.5697 95.9491 40.6162 95.8484 40.6329L95.9987 40.8209C96.0425 40.8745 96.0686 40.94 96.0739 41.009L96.1678 41.4979C96.1753 41.5836 96.1558 41.6697 96.112 41.7438C96.0682 41.8179 96.0023 41.8765 95.9236 41.9115L94.195 42.626L94.6835 40.8774C94.7698 40.5656 94.9342 40.2811 95.1609 40.0508C95.3879 39.8204 95.6697 39.6518 95.9799 39.5612H96.1114C96.1845 39.6095 96.2428 39.6775 96.2792 39.7573C96.3157 39.837 96.3292 39.9254 96.3181 40.0124Z" fill="#2EBA8F"/>
<path d="M84.2186 49.8273H76.9662V35.5184L84.1622 35.4996L84.2186 49.8273Z" fill="#2EBA8F"/>
<path d="M89.5357 40.3509L76.9662 47.9848V49.7146C76.9662 51.8017 78.7887 53.4 81.0057 53.4C81.9044 53.4095 82.7816 53.1256 83.5046 52.5914L90.3436 45.6532L89.5357 40.3509Z" fill="#2EBA8F"/>
<path d="M89.9302 29.2385L84.2373 31.4572L84.181 37.7749L76.9662 37.8501V31.6828C76.9662 28.9 78.8638 26.4369 81.9264 25.2147L82.3773 25.0643L88.8405 23.5412L89.4981 24.9326L89.9302 29.2385Z" fill="#2EBA8F"/>
<path d="M85.703 42.6822L85.0078 36.7594C84.9703 36.4209 84.5757 36.2141 84.2187 36.3269C84.1075 36.3523 84.0083 36.4143 83.9367 36.5029C83.8651 36.5917 83.8255 36.7018 83.8242 36.8158L83.8993 43.0959L81.6635 44.5249C81.3441 44.7317 81.5695 45.2018 81.9077 44.995L85.703 42.6822Z" fill="#2EBA8F"/>
<path d="M84.181 36.4211L76.9662 36.4587V37.8501H84.181V36.4211Z" fill="#2EBA8F"/>
<path d="M98.2913 37.7183L95.4918 37.9815C95.5106 38.0003 95.5106 38.038 95.5106 38.0944L95.5669 38.32C95.5857 38.3388 95.5857 38.3764 95.6045 38.414C95.6045 38.424 95.6085 38.4336 95.6156 38.4407C95.6226 38.4477 95.6321 38.4516 95.6421 38.4516L95.9991 38.8653L96.0367 38.9217C96.0367 38.9405 96.0554 38.9405 96.0554 38.9593C96.0748 39.027 96.0748 39.0986 96.0554 39.1661C96.0564 39.1765 96.0551 39.1866 96.0519 39.1964C96.0487 39.206 96.0434 39.215 96.0367 39.2225C96.0355 39.237 96.0288 39.2505 96.0179 39.2601L95.8863 39.373H95.83C95.8112 39.373 95.8112 39.6174 95.7924 39.6174C95.8944 39.5724 96.0017 39.5409 96.1118 39.5234C96.1881 39.5734 96.2482 39.6443 96.285 39.7278C96.3217 39.8112 96.3333 39.9036 96.3185 39.9934L96.2621 40.2191C96.2409 40.3189 96.19 40.4099 96.1163 40.4804C96.0425 40.5508 95.9493 40.5974 95.8488 40.6139L95.9991 40.802C96.0427 40.8555 96.069 40.9212 96.0742 40.99L96.1682 41.4789C96.1755 41.5648 96.156 41.6507 96.1122 41.725C96.0684 41.7991 96.0026 41.8577 95.9239 41.8925L94.1954 42.607L93.4063 42.9455L89.4043 46.4992L88.5776 40.9336L90.6632 39.2413C90.7577 39.1817 90.8403 39.1052 90.9074 39.0157L91.6402 38.132C91.9451 37.7501 92.3573 37.4686 92.8238 37.3235L93.0493 37.2482L98.1973 36.7594C98.9489 36.797 98.761 37.6619 98.2913 37.7183Z" fill="#FC9D9D"/>
<path opacity="0.15" d="M96.3181 40.0124L96.2617 40.2381C96.2405 40.3377 96.1898 40.4287 96.116 40.4992C96.0423 40.5697 95.9491 40.6162 95.8484 40.6329L95.9987 40.8209C96.0425 40.8745 96.0686 40.94 96.0739 41.009L96.1678 41.4979C96.1753 41.5836 96.1558 41.6697 96.112 41.7438C96.0682 41.8179 96.0023 41.8765 95.9236 41.9115L94.195 42.626L94.6835 40.8774C94.7698 40.5656 94.9342 40.2811 95.1609 40.0508C95.3879 39.8204 95.6697 39.6518 95.9799 39.5612H96.1114C96.1845 39.6095 96.2428 39.6775 96.2792 39.7573C96.3157 39.837 96.3292 39.9254 96.3181 40.0124Z" fill="black"/>
<path d="M84.2186 49.8273H76.9662V35.5184L84.1622 35.4996L84.2186 49.8273Z" fill="#FC9D9D"/>
<path d="M89.5357 40.3509L76.9662 47.9848V49.7146C76.9662 51.8017 78.7887 53.4 81.0057 53.4C81.9044 53.4095 82.7816 53.1256 83.5046 52.5914L90.3436 45.6532L89.5357 40.3509Z" fill="#FC9D9D"/>
<path d="M89.9302 29.2385L84.2373 31.4572L84.181 37.7749L76.9662 37.8501V31.6828C76.9662 28.9 78.8638 26.4369 81.9264 25.2147L82.3773 25.0643L88.8405 23.5412L89.4981 24.9326L89.9302 29.2385Z" fill="#5ACAA8"/>
<path opacity="0.15" d="M85.703 42.6822L85.0078 36.7594C84.9703 36.4209 84.5757 36.2141 84.2187 36.3269C84.1075 36.3523 84.0083 36.4143 83.9367 36.5029C83.8651 36.5917 83.8255 36.7018 83.8242 36.8158L83.8993 43.0959L81.6635 44.5249C81.3441 44.7317 81.5695 45.2018 81.9077 44.995L85.703 42.6822Z" fill="#333131"/>
<path d="M84.181 36.4211L76.9662 36.4587V37.8501H84.181V36.4211Z" fill="#333131"/>
<path d="M96.5064 43.4531L97.1076 43.8668L98.1598 42.6822C98.2424 42.5886 98.3548 42.5266 98.4779 42.5059C98.6011 42.4854 98.7276 42.5078 98.8362 42.5694C98.8675 42.5879 98.8944 42.613 98.9149 42.6433C98.9352 42.6734 98.9487 42.7078 98.954 42.7439C98.9594 42.78 98.9568 42.8169 98.9461 42.8517C98.9354 42.8864 98.9171 42.9186 98.8925 42.9455C98.3852 43.5848 97.3331 44.8445 97.3143 44.8445C97.2955 44.8445 96.0179 44.1677 96.0179 44.1677L96.5064 43.4531Z" fill="#FC9D9D"/>
<path d="M96.2622 42.8138L96.7695 43.1335L97.3143 42.6446C97.3647 42.5993 97.4284 42.5711 97.496 42.5643C97.5636 42.5576 97.6315 42.5726 97.6901 42.607H97.7089C97.7568 42.6335 97.7985 42.67 97.8308 42.7142C97.8631 42.7584 97.8855 42.8091 97.8962 42.8629C97.9071 42.9167 97.906 42.972 97.893 43.0254C97.88 43.0786 97.8556 43.1284 97.8216 43.1711C97.4646 43.6412 96.8822 44.3933 96.8634 44.3933C96.8446 44.3933 95.6422 43.7352 95.6422 43.7352L96.2622 42.8138Z" fill="#FC9D9D"/>
<path opacity="0.15" d="M96.5064 43.4531L97.1076 43.8668L98.1598 42.6822C98.2424 42.5886 98.3548 42.5266 98.4779 42.5059C98.6011 42.4854 98.7276 42.5078 98.8362 42.5694C98.8675 42.5879 98.8944 42.613 98.9149 42.6433C98.9352 42.6734 98.9487 42.7078 98.954 42.7439C98.9594 42.78 98.9568 42.8169 98.9461 42.8517C98.9354 42.8864 98.9171 42.9186 98.8925 42.9455C98.3852 43.5848 97.3331 44.8445 97.3143 44.8445C97.2955 44.8445 96.0179 44.1677 96.0179 44.1677L96.5064 43.4531Z" fill="black"/>
<path opacity="0.15" d="M96.2622 42.8138L96.7695 43.1335L97.3143 42.6446C97.3647 42.5993 97.4284 42.5711 97.496 42.5643C97.5636 42.5576 97.6315 42.5726 97.6901 42.607H97.7089C97.7568 42.6335 97.7985 42.67 97.8308 42.7142C97.8631 42.7584 97.8855 42.8091 97.8962 42.8629C97.9071 42.9167 97.906 42.972 97.893 43.0254C97.88 43.0786 97.8556 43.1284 97.8216 43.1711C97.4646 43.6412 96.8822 44.3933 96.8634 44.3933C96.8446 44.3933 95.6422 43.7352 95.6422 43.7352L96.2622 42.8138Z" fill="black"/>
<path d="M103.627 38.2448L97.1075 39.5798C96.7971 39.6638 96.5139 39.8278 96.2864 40.0555C96.0591 40.2832 95.895 40.5664 95.8111 40.8772L95.285 42.7574C95.203 43.0645 95.2168 43.3892 95.324 43.6882C95.4315 43.9873 95.6277 44.2464 95.8862 44.4309L97.1826 45.3146C97.4644 45.5026 97.7651 45.4086 98.0281 45.183L99.2306 44.1864C99.4184 44.036 99.5124 43.754 99.3057 43.6036C99.2465 43.5579 99.1738 43.5331 99.099 43.5331C99.0243 43.5331 98.9516 43.5579 98.8924 43.6036L98.3099 44.0172C98.1711 44.1193 97.9984 44.1646 97.8272 44.1436C97.6561 44.1225 97.4996 44.037 97.3893 43.9044L96.8444 43.3027C96.8018 43.2435 96.782 43.1709 96.789 43.0981C96.7959 43.0256 96.829 42.9579 96.882 42.9079L97.3141 42.5882C97.5772 42.3626 98.1972 42.0053 98.5166 42.1558L99.5688 42.9267C99.8936 43.1893 100.297 43.3351 100.715 43.3403C101.101 43.3569 101.479 43.2219 101.767 42.9643C101.992 42.7762 102.293 42.4754 102.481 42.3062C102.549 42.2642 102.627 42.2385 102.706 42.231L104.679 42.0053L103.627 38.2448Z" fill="#FC9D9D"/>
<path d="M122.002 34.2586L116.854 39.5422L108.192 32.4347L112.382 26.6623L122.002 34.2586Z" fill="#FC9D9D"/>
<path d="M115.858 29.4263L111.011 34.7475L107.535 31.9083L103.533 35.0295L101.203 26.0042L101.391 22.7137H103.665C105.625 22.7026 107.547 23.2504 109.207 24.2932C110.066 24.8539 110.888 25.4695 111.668 26.1358L115.858 29.4263Z" fill="#2EBA8F"/>
<path opacity="0.15" d="M115.069 34.5031L112.571 35.1988L107.704 31.3442C107.653 31.2701 107.578 31.215 107.492 31.1872C107.406 31.1594 107.314 31.1605 107.229 31.1904C107.143 31.2201 107.07 31.2771 107.021 31.3525C106.971 31.4277 106.947 31.5172 106.953 31.6074L107.14 59.3603H108.305L107.535 31.9083L112.27 35.7816L115.22 34.9919C115.263 34.9758 115.302 34.9485 115.331 34.9128C115.361 34.877 115.381 34.834 115.388 34.7881C115.396 34.7422 115.391 34.6952 115.375 34.6518C115.358 34.6083 115.331 34.57 115.295 34.5407C115.227 34.4989 115.146 34.4854 115.069 34.5031Z" fill="black"/>
<path d="M111.011 34.7475L109.921 33.8637L114.694 28.4861L115.859 29.4263L111.011 34.7475Z" fill="#333131"/>
<path d="M103.007 38.3576L119.485 33.7885C123.975 33.0364 124.839 39.3917 120.349 40.1439L103.42 42.1558L103.007 38.3576Z" fill="#FC9D9D"/>
<path d="M102.575 42.2688L101.992 38.4706L103.12 38.245L103.74 42.1183L102.575 42.2688Z" fill="#3F4249"/>
<path d="M101.297 38.4524C101.283 38.4153 101.276 38.3758 101.278 38.3361C101.279 38.2964 101.29 38.2576 101.307 38.2221C101.325 38.1865 101.35 38.1551 101.381 38.1301C101.411 38.1049 101.447 38.0864 101.485 38.0761L103.477 37.6057C103.546 37.5921 103.618 37.6036 103.68 37.6379C103.742 37.6723 103.79 37.7276 103.815 37.7938V37.8315C103.826 37.8685 103.83 37.9075 103.825 37.9459C103.821 37.9844 103.809 38.0217 103.789 38.0552C103.77 38.0887 103.744 38.1178 103.713 38.1408C103.682 38.1639 103.646 38.1803 103.608 38.189L101.617 38.6215C101.585 38.6332 101.551 38.6379 101.517 38.6355C101.483 38.6332 101.45 38.6236 101.42 38.6076C101.389 38.5918 101.363 38.5696 101.342 38.5429C101.321 38.5162 101.306 38.4853 101.297 38.4524Z" fill="#21252B"/>
<path d="M90.9071 22.8265L88.7464 23.4658C88.8779 24.0111 89.5543 24.7256 90.0804 25.1205C92.6168 27.0572 96.6564 27.3204 99.4934 25.1205C100.264 24.5188 100.715 23.4846 100.827 22.7137L98.8358 22.6573L90.9071 22.8265Z" fill="#333131"/>
<path d="M96.0177 5.13335C93.0679 4.98293 89.7987 5.84785 89.6484 10.0973L89.2914 13.2749H100.846L101.053 9.81524C101.053 7.99137 101.053 6.54355 98.5542 5.64102C97.7408 5.33867 96.8846 5.16738 96.0177 5.13335Z" fill="#333131"/>
<path d="M99.0991 12.6544C99.0991 12.6544 91.2267 7.72813 90.9636 13.745L90.8509 15.3244L90.3248 23.0712C91.6776 26.6437 99.55 25.1771 99.1742 22.8643L98.6293 18.4645C98.7308 18.0012 98.7812 17.5283 98.7796 17.0543C98.8736 14.7415 99.0991 12.6544 99.0991 12.6544Z" fill="#FC9D9D"/>
<path d="M100.377 8.25456C100.377 8.25456 102.744 20.0815 96.7692 20.8524C91.5648 21.5481 90.9824 13.4629 90.9824 13.4629L91.1327 10.2101C91.1522 9.67794 91.3797 9.17496 91.7664 8.80925C92.1529 8.44353 92.6675 8.24422 93.1994 8.25456H100.377Z" fill="#FC9D9D"/>
<path opacity="0.15" d="M90.8131 15.6816C90.8131 15.6816 91.3204 15.7005 91.5834 15.4747L90.7379 16.7729L90.8131 15.6816Z" fill="black"/>
<path d="M91.0951 12.5416C91.0951 12.5416 90.7194 11.4511 89.5733 11.9587C88.4272 12.4664 88.5211 15.5313 90.7381 15.6817C91.903 15.7757 91.6776 15.0988 91.4897 14.1963L91.0951 12.5416Z" fill="#FC9D9D"/>
<path opacity="0.3" d="M89.4791 12.7672C89.6642 12.6351 89.8936 12.5809 90.1181 12.6168C90.2248 12.639 90.3253 12.684 90.4131 12.749C90.5006 12.8139 90.573 12.8972 90.6254 12.9929C90.7945 13.2373 90.8131 13.5006 90.8507 13.8202L90.9072 14.0835C90.9072 14.1775 90.8506 14.2527 90.7943 14.2527C90.7379 14.2527 90.6254 14.1963 90.6254 14.1399L90.5878 13.8578C90.5735 13.6249 90.5025 13.3988 90.3809 13.1997C90.2682 13.0305 90.1745 12.9177 90.0617 12.9177C89.9888 12.9023 89.9133 12.9045 89.8413 12.9241C89.7696 12.9438 89.7032 12.9803 89.6484 13.0305C89.5544 13.0681 89.4791 13.0681 89.4415 12.9929C89.404 12.9177 89.4415 12.7861 89.4791 12.7672Z" fill="black"/>
<path opacity="0.15" d="M99.08 22.1686L98.8358 19.9123C98.3097 20.4388 96.8818 21.1721 95.266 20.8148C94.4551 20.5926 93.7248 20.1423 93.1617 19.5174C93.141 19.4988 93.1143 19.4887 93.0865 19.4887C93.0589 19.4887 93.032 19.4988 93.0114 19.5174C92.9997 19.5261 92.9903 19.5376 92.9837 19.5505C92.9772 19.5635 92.9738 19.578 92.9738 19.5927C92.9738 19.6071 92.9772 19.6216 92.9837 19.6346C92.9903 19.6477 92.9997 19.659 93.0114 19.6679C93.727 20.4751 94.7059 21.0015 95.7733 21.1533C96.7529 21.8074 97.9024 22.1605 99.08 22.1686Z" fill="black"/>
<path opacity="0.3" d="M97.2012 18.5021C96.9489 18.5042 96.6973 18.5294 96.4497 18.5774C96.4111 18.5732 96.3753 18.5561 96.3478 18.5288C96.3206 18.5013 96.3033 18.4654 96.2993 18.4268C96.3025 18.3862 96.3191 18.3476 96.3461 18.317C96.3732 18.2865 96.4096 18.2656 96.4497 18.2575L97.1448 18.201C97.2388 18.201 97.3139 18.2387 97.3139 18.3516C97.3139 18.4645 97.2576 18.4645 97.2012 18.5021Z" fill="black"/>
<path opacity="0.3" d="M97.4454 17.7883C96.1115 17.9952 95.529 17.2991 95.3411 16.9416C95.3261 16.9072 95.3218 16.8691 95.3284 16.8323C95.3351 16.7954 95.3526 16.7613 95.3787 16.7346C95.4138 16.725 95.4507 16.7235 95.4864 16.7299C95.5221 16.7365 95.5559 16.751 95.5854 16.7723C95.7733 17.1486 96.4309 17.8824 98.0091 17.3555C98.0262 17.3463 98.045 17.3408 98.0642 17.3397C98.0835 17.3386 98.1029 17.3418 98.1207 17.3489C98.1387 17.3561 98.1549 17.3672 98.1681 17.3813C98.1812 17.3954 98.1912 17.4123 98.197 17.4308C98.2534 17.5249 98.197 17.5813 98.1406 17.6378C97.915 17.7128 97.682 17.7632 97.4454 17.7883Z" fill="black"/>
<path opacity="0.3" d="M97.8212 16.6038L97.2012 16.6414C97.1073 16.6414 97.0321 16.6038 97.0321 16.5285C97.0321 16.4533 97.0885 16.378 97.1448 16.378L97.7837 16.3404C97.8601 16.331 97.93 16.2924 97.9789 16.2329C98.0279 16.1735 98.0522 16.0975 98.0467 16.0205C98.0373 15.9439 97.9988 15.8739 97.9394 15.825C97.8801 15.7759 97.8041 15.7516 97.7273 15.7571C97.6333 15.7571 97.577 15.7006 97.577 15.6442C97.577 15.5877 97.6146 15.4748 97.6897 15.4748C97.8413 15.4643 97.9909 15.5136 98.1068 15.612C98.2226 15.7104 98.2955 15.8502 98.3097 16.0017C98.3235 16.0741 98.3212 16.1488 98.303 16.2205C98.285 16.292 98.2515 16.3588 98.2049 16.4162C98.1585 16.4736 98.1001 16.5201 98.0337 16.5524C97.9674 16.5848 97.8949 16.6023 97.8212 16.6038Z" fill="black"/>
<path opacity="0.19" d="M101.786 14.3655C101.755 14.7624 101.607 15.1413 101.36 15.454C101.114 15.7667 100.781 15.9991 100.402 16.1221C100.024 16.245 99.6172 16.2527 99.2345 16.1444C98.8516 16.0361 98.5094 15.8165 98.2515 15.5134C97.9933 15.2103 97.831 14.8374 97.7848 14.442C97.7385 14.0464 97.8107 13.6461 97.992 13.2917C98.1733 12.9372 98.4555 12.6447 98.8031 12.4508C99.1507 12.2571 99.5479 12.1708 99.9445 12.2032C100.475 12.2462 100.967 12.4982 101.312 12.9036C101.657 13.3088 101.827 13.8345 101.786 14.3655Z" fill="white"/>
<path opacity="0.19" d="M96.8633 13.9706C96.842 14.2352 96.7686 14.4928 96.6474 14.7288C96.526 14.9649 96.3593 15.1746 96.1568 15.3459C95.9541 15.5172 95.7198 15.6467 95.4669 15.7268C95.2142 15.8071 94.9479 15.8364 94.6838 15.8133C94.1744 15.7441 93.7107 15.4826 93.3881 15.0819C93.0655 14.6814 92.9086 14.1722 92.9494 13.6595C92.9904 13.1467 93.226 12.6689 93.6079 12.3247C93.9899 11.9804 94.4893 11.7955 95.0032 11.8083C95.2673 11.8273 95.5253 11.8984 95.762 12.0176C95.9988 12.1366 96.2096 12.3013 96.3824 12.5023C96.5553 12.7033 96.6868 12.9365 96.7693 13.1884C96.8518 13.4404 96.8837 13.7063 96.8633 13.9706Z" fill="white"/>
<path d="M96.8633 13.9706C96.842 14.2352 96.7686 14.4928 96.6474 14.7288C96.526 14.9649 96.3593 15.1746 96.1568 15.3459C95.9541 15.5172 95.7198 15.6467 95.4669 15.7268C95.2142 15.8071 94.9479 15.8364 94.6838 15.8133C94.1744 15.7441 93.7107 15.4826 93.3881 15.0819C93.0655 14.6814 92.9086 14.1722 92.9494 13.6595C92.9904 13.1467 93.226 12.6689 93.6079 12.3247C93.9899 11.9804 94.4893 11.7955 95.0032 11.8083C95.2673 11.8273 95.5253 11.8984 95.762 12.0176C95.9988 12.1366 96.2096 12.3013 96.3824 12.5023C96.5553 12.7033 96.6868 12.9365 96.7693 13.1884C96.8518 13.4404 96.8837 13.7063 96.8633 13.9706Z" stroke="#1A1A1A" stroke-width="0.376926" stroke-linecap="round" stroke-linejoin="round"/>
<path d="M101.786 14.3655C101.755 14.7624 101.607 15.1413 101.36 15.454C101.114 15.7667 100.781 15.9991 100.402 16.1221C100.024 16.245 99.6172 16.2527 99.2345 16.1444C98.8516 16.0361 98.5094 15.8165 98.2515 15.5134C97.9933 15.2103 97.831 14.8374 97.7848 14.442C97.7385 14.0464 97.8107 13.6461 97.992 13.2917C98.1733 12.9372 98.4555 12.6447 98.8031 12.4508C99.1507 12.2571 99.5479 12.1708 99.9445 12.2032C100.475 12.2462 100.967 12.4982 101.312 12.9036C101.657 13.3088 101.827 13.8345 101.786 14.3655Z" stroke="#1A1A1A" stroke-width="0.376926" stroke-linecap="round" stroke-linejoin="round"/>
<path d="M96.8633 13.9706C96.8633 13.9706 97.3706 13.5566 97.7652 14.0458" stroke="#1A1A1A" stroke-width="0.376926" stroke-linecap="round" stroke-linejoin="round"/>
<path d="M92.8425 13.6513L91.1515 12.8423" stroke="#1A1A1A" stroke-width="0.376926" stroke-miterlimit="10"/>
<path d="M95.9145 14.0453C95.9352 13.7862 95.7424 13.5594 95.4839 13.5386C95.2254 13.5177 94.9988 13.7107 94.9781 13.9698C94.9573 14.2287 95.15 14.4554 95.4086 14.4763C95.6671 14.4972 95.8937 14.3042 95.9145 14.0453Z" fill="#21252B"/>
<path d="M95.7357 14.0272C95.7979 14.0272 95.8484 13.9766 95.8484 13.9143C95.8484 13.8518 95.7979 13.8014 95.7357 13.8014C95.6735 13.8014 95.623 13.8518 95.623 13.9143C95.623 13.9766 95.6735 14.0272 95.7357 14.0272Z" fill="white"/>
<path d="M99.5892 14.3863C99.6101 14.1274 99.4173 13.9005 99.1588 13.8798C98.9003 13.8589 98.6737 14.052 98.6528 14.3109C98.6322 14.5698 98.8249 14.7967 99.0835 14.8174C99.342 14.8383 99.5684 14.6452 99.5892 14.3863Z" fill="#21252B"/>
<path d="M99.3995 14.3656C99.4616 14.3656 99.5122 14.315 99.5122 14.2528C99.5122 14.1903 99.4616 14.1399 99.3995 14.1399C99.3373 14.1399 99.2867 14.1903 99.2867 14.2528C99.2867 14.315 99.3373 14.3656 99.3995 14.3656Z" fill="white"/>
<path d="M91.3018 13.4252C91.3454 13.4253 91.3884 13.4165 91.4285 13.3992C91.4685 13.3821 91.5046 13.3567 91.5346 13.3251C91.5645 13.2933 91.5876 13.2559 91.6024 13.2149C91.6175 13.1739 91.6237 13.1303 91.6212 13.0867C91.5837 12.1654 91.6024 9.94665 92.5419 9.53299C93.4249 9.68341 99.6627 10.5107 100.377 9.19454L100.79 13.2559H100.846L100.771 8.00997C97.7297 7.18272 95.9972 6.94369 92.8425 7.05103L90.3248 8.72448L91.3018 13.4252Z" fill="#333131"/>
<defs>
<filter id="filter0_d" x="79.1383" y="61.88" width="35.1307" height="81.1435" filterUnits="userSpaceOnUse" color-interpolation-filters="sRGB">
<feFlood flood-opacity="0" result="BackgroundImageFix"/>
<feColorMatrix in="SourceAlpha" type="matrix" values="0 0 0 0 0 0 0 0 0 0 0 0 0 0 0 0 0 0 127 0"/>
<feOffset dy="3.52096"/>
<feGaussianBlur stdDeviation="1.76048"/>
<feColorMatrix type="matrix" values="0 0 0 0 0 0 0 0 0 0 0 0 0 0 0 0 0 0 0.25 0"/>
<feBlend mode="normal" in2="BackgroundImageFix" result="effect1_dropShadow"/>
<feBlend mode="normal" in="SourceGraphic" in2="effect1_dropShadow" result="shape"/>
</filter>
<linearGradient id="paint0_linear" x1="209.497" y1="91.758" x2="199.197" y2="91.2898" gradientUnits="userSpaceOnUse">
<stop stop-color="#2FBF93"/>
<stop offset="1" stop-color="white" stop-opacity="0"/>
</linearGradient>
<linearGradient id="paint1_linear" x1="85.9045" y1="100.653" x2="135.727" y2="141.547" gradientUnits="userSpaceOnUse">
<stop stop-color="white"/>
<stop offset="1" stop-color="#2FBF93"/>
</linearGradient>
<linearGradient id="paint2_linear" x1="130.379" y1="38.3886" x2="66.7102" y2="25.7484" gradientUnits="userSpaceOnUse">
<stop offset="0.540387" stop-color="#2EBA8F"/>
<stop offset="1" stop-color="white" stop-opacity="0"/>
</linearGradient>
</defs>
</svg>
