<svg width="247" height="64" viewBox="0 0 247 64" fill="none" xmlns="http://www.w3.org/2000/svg">
<path d="M18.3133 27.0531C23.0111 24.8608 27.8028 23.7647 32.6885 23.7647C36.9479 23.7647 40.1424 24.7355 42.2721 26.6773C44.4644 28.6191 45.5605 31.7509 45.5605 36.0729V58.0586H51.1979V63.2262H40.299L39.9232 57.4949H39.6413C36.2589 61.3158 32.2501 63.2262 27.6149 63.2262C23.8567 63.2262 20.9754 62.2866 18.971 60.4075C16.9666 58.4658 15.9644 55.8037 15.9644 52.4213C15.9644 44.0278 22.6352 39.8311 35.977 39.8311H39.9232V35.885C39.9232 33.63 39.2655 31.9075 37.9501 30.7174C36.6973 29.5273 34.6616 28.9322 31.8429 28.9322C27.7089 28.9322 23.199 30.0284 18.3133 32.2207V27.0531ZM35.0374 44.9987C26.3935 44.9987 22.0715 47.3476 22.0715 52.0454C22.0715 54.0498 22.6352 55.5531 23.7627 56.5553C24.9528 57.5575 26.644 58.0586 28.8363 58.0586C32.8451 58.0586 36.5407 56.1482 39.9232 52.3273V44.9987H35.0374ZM31.2792 10.7048L25.8298 18.1273H20.1924L28.9303 6.85257H33.816L42.7418 18.1273H37.0105L31.4671 10.7048H31.2792ZM55.8682 58.0586H61.5055V28.9322H55.8682V23.7647H66.861L67.1429 29.3081H67.2368C70.8072 25.6125 74.9412 23.7647 79.639 23.7647C83.3973 23.7647 86.1533 24.8295 87.9072 26.9592C89.7237 29.0888 90.6319 32.0328 90.6319 35.791V58.0586H96.2693V63.2262H79.3572V58.0586H84.9945V36.4487C84.9945 33.63 84.3682 31.6883 83.1154 30.6234C81.8627 29.496 80.2028 28.9322 78.1357 28.9322C73.939 28.9322 70.2748 30.9366 67.1429 34.9454V58.0586H72.7803V63.2262H55.8682V58.0586ZM100.956 58.0586H106.593V28.9322H100.956V23.7647H112.231V58.0586H117.868V63.2262H100.956V58.0586ZM104.714 13.8993C104.714 12.4586 105.09 11.3311 105.842 10.5169C106.656 9.70257 107.69 9.29542 108.942 9.29542C110.195 9.29542 111.197 9.70257 111.949 10.5169C112.763 11.3311 113.17 12.3647 113.17 13.6174C113.17 14.9954 112.763 16.0916 111.949 16.9059C111.197 17.7202 110.195 18.1273 108.942 18.1273C107.69 18.1273 106.656 17.7202 105.842 16.9059C105.09 16.0916 104.714 15.0894 104.714 13.8993ZM123.5 58.0586H129.137V28.9322H123.5V23.7647H134.399L134.775 29.1202H134.963C138.282 25.5498 142.26 23.7647 146.895 23.7647C151.843 23.7647 155.195 25.8317 156.948 29.9658H157.23C160.738 25.8317 164.966 23.7647 169.914 23.7647C173.485 23.7647 176.178 24.7669 177.995 26.7712C179.874 28.7756 180.813 31.5943 180.813 35.2273V58.0586H186.451V63.2262H169.538V58.0586H175.176V36.7306C175.176 33.9745 174.581 32.0015 173.391 30.8114C172.201 29.5586 170.509 28.9322 168.317 28.9322C164.371 28.9322 160.863 30.9366 157.794 34.9454V58.0586H163.431V63.2262H146.519V58.0586H152.157V36.7306C152.157 33.9745 151.562 32.0015 150.371 30.8114C149.181 29.5586 147.49 28.9322 145.298 28.9322C141.352 28.9322 137.844 30.9366 134.775 34.9454V58.0586H140.412V63.2262H123.5V58.0586ZM193.011 27.0531C197.709 24.8608 202.501 23.7647 207.386 23.7647C211.646 23.7647 214.84 24.7355 216.97 26.6773C219.162 28.6191 220.258 31.7509 220.258 36.0729V58.0586H225.896V63.2262H214.997L214.621 57.4949H214.339C210.957 61.3158 206.948 63.2262 202.313 63.2262C198.554 63.2262 195.673 62.2866 193.669 60.4075C191.664 58.4658 190.662 55.8037 190.662 52.4213C190.662 44.0278 197.333 39.8311 210.675 39.8311H214.621V35.885C214.621 33.63 213.963 31.9075 212.648 30.7174C211.395 29.5273 209.359 28.9322 206.541 28.9322C202.407 28.9322 197.897 30.0284 193.011 32.2207V27.0531ZM209.735 44.9987C201.091 44.9987 196.769 47.3476 196.769 52.0454C196.769 54.0498 197.333 55.5531 198.46 56.5553C199.651 57.5575 201.342 58.0586 203.534 58.0586C207.543 58.0586 211.238 56.1482 214.621 52.3273V44.9987H209.735Z" fill="#333131"/>
<circle cx="232.788" cy="17.379" r="10.2917" fill="#2FBF93"/>
<circle cx="232.788" cy="17.379" r="10.2917" fill="url(#paint0_linear)"/>
<defs>
<linearGradient id="paint0_linear" x1="232.788" y1="7.0873" x2="232.788" y2="27.6706" gradientUnits="userSpaceOnUse">
<stop stop-color="#2CB289"/>
<stop offset="1" stop-color="white" stop-opacity="0"/>
</linearGradient>
</defs>
</svg>
