<svg width="114" height="171" viewBox="0 0 114 171" fill="none" xmlns="http://www.w3.org/2000/svg">
<g opacity="0.1">
<path opacity="0.1" d="M90.0708 29.2522H102.803V41.1805C102.803 41.1805 95.0597 43.3944 92.8249 41.1353C90.59 38.8761 90.0708 29.2522 90.0708 29.2522Z" fill="black"/>
</g>
<path d="M80.3191 101.703L100.952 85.5499C102.262 84.5084 103.316 83.1816 104.036 81.6705C104.756 80.1591 105.122 78.5036 105.106 76.8296V45.2695H75.2624L75.2173 46.1054V45.2695H45.3516V76.8296C45.3353 78.5036 45.701 80.1591 46.4209 81.6705C47.1406 83.1816 48.1955 84.5084 49.5052 85.5499L70.1607 101.703C70.593 102.05 70.9413 102.49 71.1799 102.991C71.4183 103.491 71.5406 104.04 71.5377 104.594C71.5388 105.146 71.4156 105.69 71.1772 106.187C70.9388 106.683 70.5912 107.12 70.1607 107.463L49.5052 123.616C48.1955 124.658 47.1406 125.985 46.4209 127.496C45.701 129.007 45.3353 130.663 45.3516 132.337V163.897H75.2173V163.083L75.2624 163.919H105.106V132.337C105.106 128.903 103.571 125.65 100.952 123.616L80.3191 107.463C79.8847 107.123 79.5344 106.687 79.2958 106.19C79.057 105.692 78.936 105.146 78.942 104.594C78.9341 104.039 79.0542 103.489 79.2931 102.987C79.5319 102.486 79.8829 102.046 80.3191 101.703Z" fill="#2EBA8F"/>
<path opacity="0.5" d="M105.128 163.919H45.8706V165.878H105.128V163.919Z" fill="black"/>
<path opacity="0.6" d="M80.3191 101.703L100.952 85.5499C102.262 84.5084 103.316 83.1816 104.036 81.6705C104.756 80.1591 105.122 78.5036 105.106 76.8296V45.2695H75.2624L75.2173 46.1054V45.2695H45.3516V76.8296C45.3353 78.5036 45.701 80.1591 46.4209 81.6705C47.1406 83.1816 48.1955 84.5084 49.5052 85.5499L70.1607 101.703C70.593 102.05 70.9413 102.49 71.1799 102.991C71.4183 103.491 71.5406 104.04 71.5377 104.594C71.5388 105.146 71.4156 105.69 71.1772 106.187C70.9388 106.683 70.5912 107.12 70.1607 107.463L49.5052 123.616C48.1955 124.658 47.1406 125.985 46.4209 127.496C45.701 129.007 45.3353 130.663 45.3516 132.337V163.897H75.2173V163.083L75.2624 163.919H105.106V132.337C105.106 128.903 103.571 125.65 100.952 123.616L80.3191 107.463C79.8847 107.123 79.5344 106.687 79.2958 106.19C79.057 105.692 78.936 105.146 78.942 104.594C78.9341 104.039 79.0542 103.489 79.2931 102.987C79.5319 102.486 79.8829 102.046 80.3191 101.703Z" fill="white"/>
<g opacity="0.4">
<path d="M79.3032 102.968C79.5281 102.472 79.8687 102.038 80.2965 101.703L93.9765 91.017C95.1991 89.1677 95.8506 86.9991 95.8501 84.7818V45.2695H75.2624L75.2173 46.1054V45.2695H45.3516V76.8296C45.3353 78.5036 45.701 80.1591 46.4209 81.6705C47.1406 83.1816 48.1955 84.5084 49.5052 85.5499L70.1607 101.703C70.593 102.05 70.9413 102.49 71.1799 102.991C71.4183 103.491 71.5406 104.04 71.5377 104.594C71.5366 105.152 71.4052 105.701 71.1539 106.198C70.9291 106.694 70.5884 107.128 70.1607 107.463L49.5052 123.616C48.6133 124.32 47.8366 125.158 47.2027 126.101C45.9882 127.953 45.3444 130.121 45.3516 132.337V163.897H75.2173V163.083L75.2624 163.919H95.8501L95.805 129.038C95.805 123.277 95.3084 119.234 91.9222 116.59L80.3191 107.463C78.2197 105.724 79.1678 103.307 79.1678 103.307C79.1931 103.187 79.2389 103.072 79.3032 102.968Z" fill="#2FBF93"/>
<path d="M79.3032 102.968C79.5281 102.472 79.8687 102.038 80.2965 101.703L93.9765 91.017C95.1991 89.1677 95.8506 86.9991 95.8501 84.7818V45.2695H75.2624L75.2173 46.1054V45.2695H45.3516V76.8296C45.3353 78.5036 45.701 80.1591 46.4209 81.6705C47.1406 83.1816 48.1955 84.5084 49.5052 85.5499L70.1607 101.703C70.593 102.05 70.9413 102.49 71.1799 102.991C71.4183 103.491 71.5406 104.04 71.5377 104.594C71.5366 105.152 71.4052 105.701 71.1539 106.198C70.9291 106.694 70.5884 107.128 70.1607 107.463L49.5052 123.616C48.6133 124.32 47.8366 125.158 47.2027 126.101C45.9882 127.953 45.3444 130.121 45.3516 132.337V163.897H75.2173V163.083L75.2624 163.919H95.8501L95.805 129.038C95.805 123.277 95.3084 119.234 91.9222 116.59L80.3191 107.463C78.2197 105.724 79.1678 103.307 79.1678 103.307C79.1931 103.187 79.2389 103.072 79.3032 102.968Z" fill="#79D5B9"/>
</g>
<path opacity="0.5" d="M97.0918 58.5081C91.6288 58.5081 86.5722 64.5851 75.1948 67.2509C69.2578 68.8323 61.8534 68.6064 52.8237 66.8443C52.3153 66.748 51.7921 66.765 51.2909 66.894C50.79 67.0232 50.3234 67.2613 49.9247 67.5911C49.5261 67.9212 49.2048 68.3351 48.9841 68.8034C48.7633 69.2717 48.6484 69.783 48.6475 70.3007V76.6037C48.6463 77.8625 48.9326 79.1053 49.4841 80.2367C50.0358 81.368 50.8383 82.3587 51.8304 83.1326C66.5263 94.722 67.5873 94.9705 72.5084 99.0144C72.9033 99.3521 73.2204 99.7712 73.4387 100.243C73.6568 100.715 73.7708 101.228 73.7726 101.748V145.304C73.7773 148.149 72.6671 150.883 70.6799 152.917L64.3591 161.005L62.1017 163.897H88.4007L79.2807 152.511C77.7107 150.869 76.8368 148.683 76.8427 146.411V102.087C76.8447 101.569 76.9565 101.058 77.1705 100.587C77.3845 100.115 77.696 99.695 78.0843 99.3532C83.0055 95.1964 77.6328 100.031 98.6268 83.223C99.5987 82.44 100.383 81.4494 100.922 80.3234C101.461 79.1974 101.741 77.9651 101.742 76.7167V63.7267C101.765 61.219 100.749 58.5081 97.0918 58.5081Z" fill="#208062"/>
<path d="M110.997 170.222H47.8568C46.2088 170.222 44.877 168.822 44.877 167.06C44.877 165.32 46.2088 163.897 47.8568 163.897H110.997C112.645 163.897 114 165.32 114 167.06C114 168.822 112.645 170.222 110.997 170.222Z" fill="#666262"/>
<path d="M107.002 170.222H43.8616C42.2137 170.222 40.8818 168.822 40.8818 167.06C40.8818 165.32 42.2137 163.897 43.8616 163.897H107.002C108.65 163.897 109.982 165.32 109.982 167.06C109.982 168.822 108.65 170.222 107.002 170.222Z" fill="#333131"/>
<path d="M110.997 49.2908H47.8568C46.2088 49.2908 44.877 47.8675 44.877 46.128C44.877 44.3885 46.2088 42.9652 47.8568 42.9652H110.997C112.645 42.9652 114 44.3885 114 46.128C114 47.8675 112.645 49.2908 110.997 49.2908Z" fill="#666262"/>
<path d="M107.002 49.2908H43.8616C42.2137 49.2908 40.8818 47.8675 40.8818 46.128C40.8818 44.3885 42.2137 42.9652 43.8616 42.9652H107.002C108.65 42.9652 109.982 44.3885 109.982 46.128C109.982 47.8675 108.65 49.2908 107.002 49.2908Z" fill="#333131"/>
<path d="M6.88494 66.46V34.4481C6.74949 32.9571 4.58237 26.6767 6.20771 24.0561L16.0727 21.571L29.3689 21.1418C29.4366 21.2096 36.7507 32.189 36.7507 32.189L37.6536 66.3019L6.88494 66.46Z" fill="#2FBF93"/>
<path d="M6.88494 66.46V34.4481C6.74949 32.9571 4.58237 26.6767 6.20771 24.0561L16.0727 21.571L29.3689 21.1418C29.4366 21.2096 36.7507 32.189 36.7507 32.189L37.6536 66.3019L6.88494 66.46Z" fill="#5ACAA8"/>
<path d="M32.1904 154.002H40.0237L40.2043 158.497C40.2309 159.08 40.3889 159.648 40.6666 160.161C40.9443 160.673 41.3341 161.116 41.807 161.457L47.5409 165.569L33.1837 165.207L32.1904 154.002Z" fill="#FB9C9C"/>
<path opacity="0.15" d="M38.1279 163.784L40.724 160.621C40.3059 159.55 40.1136 158.404 40.1596 157.255H32.4844V158.271L36.7961 158.407C37.1453 158.413 37.4782 158.556 37.7232 158.805C37.9681 159.055 38.1054 159.39 38.1054 159.74L38.1279 163.784Z" fill="black"/>
<path d="M7.2915 153.979L14.9442 153.957L13.7477 164.913H7.2915V153.979Z" fill="#FB9C9C"/>
<path opacity="0.15" d="M13.7251 164.868L14.5829 157.232H7.31396L7.42684 158.181L11.4451 158.249C11.641 158.252 11.83 158.323 11.9785 158.451C12.127 158.579 12.2259 158.756 12.2577 158.949L13.0478 163.083L13.7251 164.868Z" fill="black"/>
<g filter="url(#filter0_d)">
<path d="M6.99835 68.3805L37.6993 68.1997L40.5888 157.232H32.1912L24.4031 84.217C24.3805 83.9934 24.2758 83.786 24.1087 83.6357C23.9417 83.4853 23.7247 83.4026 23.5001 83.4037C23.2692 83.3963 23.0439 83.4758 22.8682 83.6262C22.6928 83.7767 22.58 83.9875 22.552 84.217L15.2605 157.232H6.84033L6.99835 68.3805Z" fill="#333131"/>
</g>
<path d="M6.6599 155.425H15.7573L15.5767 157.232H6.61475L6.6599 155.425Z" fill="#3F4249"/>
<path d="M31.7622 155.425H40.7693L40.8596 157.232H31.9654L31.7622 155.425Z" fill="#3F4249"/>
<path opacity="0.15" d="M40.7691 155.425L38.1279 155.402V157.232H40.8594L40.7691 155.425Z" fill="black"/>
<path d="M6.61357 169.138H14.4468C14.6247 169.143 14.7994 169.091 14.9457 168.989C15.0918 168.887 15.2017 168.743 15.2595 168.573C15.2595 168.731 15.2821 168.89 15.2821 169.048V169.319C15.2703 169.532 15.1764 169.731 15.0204 169.873C14.8644 170.018 14.6586 170.095 14.4468 170.088H6.61357C6.50792 170.095 6.40204 170.079 6.30248 170.043C6.20293 170.006 6.11129 169.952 6.03341 169.88C5.95553 169.81 5.89277 169.722 5.84897 169.627C5.80518 169.529 5.78103 169.425 5.77832 169.319V169.206C5.78216 169.003 5.79706 168.799 5.82347 168.596C5.87765 168.761 5.98419 168.903 6.12709 169C6.26976 169.098 6.44065 169.147 6.61357 169.138Z" fill="#2EBA8F"/>
<path opacity="0.4" d="M6.61357 169.138H14.4468C14.6247 169.143 14.7994 169.091 14.9457 168.989C15.0918 168.887 15.2017 168.743 15.2595 168.573C15.2595 168.731 15.2821 168.89 15.2821 169.048V169.319C15.2703 169.532 15.1764 169.731 15.0204 169.873C14.8644 170.018 14.6586 170.095 14.4468 170.088H6.61357C6.50792 170.095 6.40204 170.079 6.30248 170.043C6.20293 170.006 6.11129 169.952 6.03341 169.88C5.95553 169.81 5.89277 169.722 5.84897 169.627C5.80518 169.529 5.78103 169.425 5.77832 169.319V169.206C5.78216 169.003 5.79706 168.799 5.82347 168.596C5.87765 168.761 5.98419 168.903 6.12709 169C6.26976 169.098 6.44065 169.147 6.61357 169.138Z" fill="black"/>
<path d="M7.76485 160.847L7.94544 160.644C8.68791 159.936 9.67711 159.548 10.702 159.56C11.7268 159.573 12.7061 159.986 13.431 160.711L13.5438 160.847C13.7242 161.023 13.8671 161.234 13.9642 161.467C14.061 161.7 14.11 161.95 14.1082 162.202V163.016C14.1039 163.486 14.1802 163.951 14.3339 164.394L15.0112 166.63C15.1814 167.163 15.2726 167.719 15.2821 168.279V168.551C15.2703 168.763 15.1764 168.962 15.0204 169.104C14.8644 169.249 14.6586 169.325 14.4468 169.319H6.61357C6.50792 169.325 6.40204 169.31 6.30248 169.273C6.20293 169.237 6.11129 169.183 6.03341 169.111C5.95553 169.041 5.89277 168.953 5.84897 168.858C5.80518 168.761 5.78103 168.657 5.77832 168.551V168.438C5.78396 167.785 5.89073 167.136 6.09435 166.517L6.88445 164.349C7.05263 163.845 7.14405 163.321 7.15534 162.79V162.18C7.16347 161.928 7.22171 161.681 7.32623 161.452C7.43098 161.223 7.57997 161.017 7.76485 160.847Z" fill="white"/>
<path opacity="0.4" d="M12.8672 162.609C13.0293 162.609 13.1606 162.478 13.1606 162.315C13.1606 162.153 13.0293 162.021 12.8672 162.021C12.7051 162.021 12.5737 162.153 12.5737 162.315C12.5737 162.478 12.7051 162.609 12.8672 162.609Z" fill="#231F20"/>
<path opacity="0.4" d="M12.709 163.784C12.8711 163.784 13.0025 163.653 13.0025 163.49C13.0025 163.327 12.8711 163.196 12.709 163.196C12.5469 163.196 12.4155 163.327 12.4155 163.49C12.4155 163.653 12.5469 163.784 12.709 163.784Z" fill="#231F20"/>
<path opacity="0.4" d="M12.6187 164.643C12.7807 164.643 12.9121 164.512 12.9121 164.349C12.9121 164.186 12.7807 164.055 12.6187 164.055C12.4566 164.055 12.3252 164.186 12.3252 164.349C12.3252 164.512 12.4566 164.643 12.6187 164.643Z" fill="#231F20"/>
<path opacity="0.4" d="M12.7539 166.021C12.916 166.021 13.0474 165.89 13.0474 165.727C13.0474 165.564 12.916 165.433 12.7539 165.433C12.5918 165.433 12.4604 165.564 12.4604 165.727C12.4604 165.89 12.5918 166.021 12.7539 166.021Z" fill="#231F20"/>
<path opacity="0.4" d="M12.7773 167.241C12.9394 167.241 13.0708 167.11 13.0708 166.947C13.0708 166.784 12.9394 166.653 12.7773 166.653C12.6153 166.653 12.4839 166.784 12.4839 166.947C12.4839 167.11 12.6153 167.241 12.7773 167.241Z" fill="#231F20"/>
<path opacity="0.4" d="M9.07473 167.489C9.23681 167.489 9.36819 167.358 9.36819 167.195C9.36819 167.033 9.23681 166.901 9.07473 166.901C8.91264 166.901 8.78125 167.033 8.78125 167.195C8.78125 167.358 8.91264 167.489 9.07473 167.489Z" fill="#231F20"/>
<path opacity="0.4" d="M9.0293 166.36C9.19139 166.36 9.32277 166.228 9.32277 166.066C9.32277 165.903 9.19139 165.772 9.0293 165.772C8.86722 165.772 8.73584 165.903 8.73584 166.066C8.73584 166.228 8.86722 166.36 9.0293 166.36Z" fill="#231F20"/>
<path opacity="0.4" d="M8.98439 164.891C9.14648 164.891 9.27786 164.76 9.27786 164.597C9.27786 164.435 9.14648 164.303 8.98439 164.303C8.82231 164.303 8.69092 164.435 8.69092 164.597C8.69092 164.76 8.82231 164.891 8.98439 164.891Z" fill="#231F20"/>
<path opacity="0.4" d="M9.07473 163.49C9.23681 163.49 9.36819 163.359 9.36819 163.197C9.36819 163.034 9.23681 162.902 9.07473 162.902C8.91264 162.902 8.78125 163.034 8.78125 163.197C8.78125 163.359 8.91264 163.49 9.07473 163.49Z" fill="#231F20"/>
<path opacity="0.4" d="M9.12012 162.383C9.28221 162.383 9.41359 162.252 9.41359 162.089C9.41359 161.927 9.28221 161.796 9.12012 161.796C8.95804 161.796 8.82666 161.927 8.82666 162.089C8.82666 162.252 8.95804 162.383 9.12012 162.383Z" fill="#231F20"/>
<path d="M12.7546 162.248C12.7546 162.248 11.4227 160.824 9.12012 161.999" stroke="white" stroke-width="0.88024" stroke-miterlimit="10" stroke-linecap="round"/>
<path d="M12.7087 163.4C12.7087 163.4 11.3768 161.976 9.07422 163.174" stroke="white" stroke-width="0.88024" stroke-miterlimit="10" stroke-linecap="round"/>
<path d="M12.6193 164.304C12.2807 164.032 10.5425 163.49 8.98486 164.575" stroke="white" stroke-width="0.88024" stroke-miterlimit="10" stroke-linecap="round"/>
<path d="M12.6638 165.727C12.6638 165.727 11.1513 164.484 9.0293 165.976" stroke="white" stroke-width="0.88024" stroke-miterlimit="10" stroke-linecap="round"/>
<path d="M12.777 166.879C12.777 166.879 11.2646 165.658 9.14258 167.15" stroke="white" stroke-width="0.88024" stroke-miterlimit="10" stroke-linecap="round"/>
<path d="M32.2812 169.003L53.2752 169.048C53.3229 168.946 53.3608 168.84 53.3881 168.731C53.4093 168.98 53.4168 169.229 53.4107 169.477C53.4001 169.665 53.3204 169.844 53.1872 169.977C53.054 170.11 52.8764 170.189 52.6883 170.201L32.9584 170.155C32.8648 170.155 32.7718 170.137 32.6853 170.099C32.5991 170.063 32.5207 170.011 32.4555 169.943C32.3903 169.875 32.3392 169.794 32.3054 169.708C32.2715 169.62 32.2557 169.527 32.2586 169.432L32.2812 169.003Z" fill="#2EBA8F"/>
<path opacity="0.4" d="M32.2812 169.003L53.2752 169.048C53.3229 168.946 53.3608 168.84 53.3881 168.731C53.4093 168.98 53.4168 169.229 53.4107 169.477C53.4001 169.665 53.3204 169.844 53.1872 169.977C53.054 170.11 52.8764 170.189 52.6883 170.201L32.9584 170.155C32.8648 170.155 32.7718 170.137 32.6853 170.099C32.5991 170.063 32.5207 170.011 32.4555 169.943C32.3903 169.875 32.3392 169.794 32.3054 169.708C32.2715 169.62 32.2557 169.527 32.2586 169.432L32.2812 169.003Z" fill="black"/>
<path d="M52.1239 166.63C48.3766 164.959 45.3516 163.558 42.5524 161.073C41.9204 160.485 41.4237 160.079 40.5885 159.988L37.4506 161.954C37.2583 162.079 37.033 162.143 36.8037 162.139C36.5745 162.135 36.3517 162.063 36.1639 161.931L32.7778 160.147C32.2134 160.101 31.7619 160.824 31.7845 161.412L32.2811 169.002L53.2752 169.048C53.7267 168.121 52.8011 166.924 52.1239 166.63Z" fill="white"/>
<path opacity="0.4" d="M48.4668 167.015C48.6787 167.015 48.8505 166.843 48.8505 166.631C48.8505 166.418 48.6787 166.246 48.4668 166.246C48.2548 166.246 48.083 166.418 48.083 166.631C48.083 166.843 48.2548 167.015 48.4668 167.015Z" fill="#231F20"/>
<path opacity="0.4" d="M46.164 166.382C46.376 166.382 46.5478 166.211 46.5478 165.998C46.5478 165.786 46.376 165.614 46.164 165.614C45.9521 165.614 45.7803 165.786 45.7803 165.998C45.7803 166.211 45.9521 166.382 46.164 166.382Z" fill="#231F20"/>
<path opacity="0.4" d="M44.2456 165.049C44.4576 165.049 44.6294 164.878 44.6294 164.665C44.6294 164.453 44.4576 164.281 44.2456 164.281C44.0336 164.281 43.8618 164.453 43.8618 164.665C43.8618 164.878 44.0336 165.049 44.2456 165.049Z" fill="#231F20"/>
<path opacity="0.4" d="M42.394 163.694C42.606 163.694 42.7778 163.522 42.7778 163.31C42.7778 163.097 42.606 162.925 42.394 162.925C42.182 162.925 42.0103 163.097 42.0103 163.31C42.0103 163.522 42.182 163.694 42.394 163.694Z" fill="#231F20"/>
<path opacity="0.4" d="M40.7466 162.045C40.9585 162.045 41.1303 161.873 41.1303 161.66C41.1303 161.448 40.9585 161.276 40.7466 161.276C40.5346 161.276 40.3628 161.448 40.3628 161.66C40.3628 161.873 40.5346 162.045 40.7466 162.045Z" fill="#231F20"/>
<path d="M49.1892 165.727L48.9409 166.428C48.9233 166.475 48.8965 166.518 48.8619 166.556C48.8274 166.593 48.7859 166.624 48.7396 166.645C48.6935 166.665 48.6436 166.676 48.5929 166.679C48.5421 166.681 48.4917 166.672 48.4443 166.654C48.3962 166.638 48.3524 166.611 48.3161 166.575C48.28 166.538 48.252 166.495 48.2348 166.448C48.2174 166.4 48.2109 166.348 48.2161 166.299C48.2211 166.249 48.2373 166.199 48.2637 166.156L48.6249 165.478L49.1892 165.727Z" fill="white"/>
<path d="M47.135 164.755L46.6609 165.818C46.6372 165.863 46.6051 165.902 46.5661 165.933C46.5272 165.967 46.4823 165.99 46.434 166.006C46.3859 166.019 46.3354 166.024 46.285 166.019C46.2349 166.015 46.1861 166.001 46.1417 165.976C46.0988 165.958 46.0604 165.929 46.0288 165.895C45.9972 165.859 45.9733 165.818 45.9584 165.773C45.9435 165.73 45.9381 165.682 45.9423 165.635C45.9469 165.587 45.9609 165.542 45.9837 165.501L46.548 164.484L47.135 164.755Z" fill="white"/>
<path d="M45.4192 163.694L44.7646 164.598C44.7321 164.636 44.6921 164.668 44.6472 164.691C44.6025 164.715 44.5533 164.729 44.503 164.734C44.4526 164.738 44.4021 164.731 44.354 164.715C44.3059 164.7 44.2612 164.675 44.2228 164.643H44.2002C44.1671 164.616 44.1395 164.584 44.1192 164.546C44.0989 164.51 44.0862 164.469 44.0822 164.426C44.0779 164.385 44.0822 164.342 44.0948 164.302C44.1072 164.261 44.1278 164.223 44.1551 164.191L44.7872 163.332L45.4192 163.694Z" fill="white"/>
<path d="M43.7486 162.564L42.9134 163.355C42.8425 163.421 42.7499 163.457 42.6538 163.457C42.5576 163.457 42.4651 163.421 42.3942 163.355C42.3583 163.319 42.331 163.274 42.3136 163.226C42.2962 163.177 42.2894 163.125 42.2937 163.074C42.298 163.022 42.3134 162.973 42.3384 162.928C42.3635 162.882 42.3978 162.843 42.4393 162.813L43.2746 162.18L43.7486 162.564Z" fill="white"/>
<path d="M42.1007 161.096L41.2881 161.729C41.2533 161.76 41.2124 161.784 41.168 161.799C41.1235 161.814 41.0765 161.82 41.0298 161.815C40.9831 161.811 40.9379 161.797 40.8969 161.774C40.8558 161.752 40.8199 161.721 40.7914 161.683C40.7589 161.646 40.7359 161.601 40.7237 161.553C40.7117 161.505 40.7113 161.455 40.7221 161.406C40.7332 161.358 40.7553 161.313 40.7871 161.274C40.8187 161.236 40.8589 161.206 40.9043 161.186L41.8976 160.711L42.1007 161.096Z" fill="white"/>
<path d="M6.97559 65.1725H37.6765L37.7443 68.2901L6.97559 68.3805V65.1725Z" fill="#1A1A1A"/>
<path d="M26.2766 65.1725H20.2944V68.3737H26.2766V65.1725Z" fill="#61656D"/>
<path d="M25.9604 65.1725H20.6104V68.3737H25.9604V65.1725Z" fill="#DADDDF"/>
<path d="M25.622 39.1696L22.2585 39.4859C22.281 39.5085 22.2811 39.5537 22.2811 39.6215L22.3488 39.8926C22.3713 39.9151 22.3713 39.9603 22.3939 40.0055C22.3939 40.0175 22.3987 40.029 22.4072 40.0376C22.4156 40.046 22.4271 40.0507 22.4391 40.0507L22.868 40.5477L22.9131 40.6155C22.9131 40.6381 22.9357 40.6381 22.9357 40.6607C22.9589 40.742 22.9589 40.8281 22.9357 40.9092C22.9368 40.9216 22.9352 40.9338 22.9314 40.9455C22.9276 40.9571 22.9213 40.9679 22.9131 40.9769C22.9118 40.9943 22.9036 41.0106 22.8905 41.0221L22.7325 41.1577H22.6648C22.6422 41.1577 22.6422 41.4514 22.6197 41.4514C22.7422 41.3974 22.8711 41.3594 23.0034 41.3384C23.0951 41.3985 23.1673 41.4837 23.2115 41.584C23.2556 41.6843 23.2696 41.7952 23.2517 41.9032L23.184 42.1743C23.1585 42.2942 23.0973 42.4036 23.0088 42.4883C22.9201 42.5728 22.8082 42.6288 22.6874 42.6487L22.868 42.8746C22.9203 42.939 22.952 43.0178 22.9583 43.1005L23.0711 43.6879C23.08 43.7911 23.0565 43.8944 23.0039 43.9836C22.9513 44.0726 22.8723 44.1431 22.7777 44.1849L20.7009 45.0434L19.7527 45.45L14.9444 49.7198L13.9512 43.0328L16.4569 40.9995C16.5704 40.9279 16.6698 40.836 16.7504 40.7284L17.6308 39.6666C17.9971 39.2078 18.4924 38.8696 19.0529 38.6952L19.3238 38.6048L25.5092 38.0175C26.4121 38.0627 26.1864 39.1019 25.622 39.1696Z" fill="#2EBA8F"/>
<path d="M23.2511 41.926L23.1833 42.1971C23.1578 42.3168 23.0969 42.4262 23.0082 42.5109C22.9197 42.5956 22.8077 42.6514 22.6867 42.6715L22.8673 42.8974C22.9199 42.9618 22.9513 43.0404 22.9576 43.1233L23.0705 43.7107C23.0795 43.8137 23.056 43.9172 23.0034 44.0062C22.9508 44.0952 22.8716 44.1657 22.777 44.2077L20.7002 45.0662L21.2871 42.9652C21.3907 42.5906 21.5883 42.2488 21.8607 41.9721C22.1334 41.6953 22.472 41.4927 22.8447 41.3838H23.0027C23.0906 41.4419 23.1605 41.5236 23.2043 41.6194C23.2481 41.7152 23.2644 41.8214 23.2511 41.926Z" fill="#2EBA8F"/>
<path d="M8.71366 53.7184H0V36.5264L8.64594 36.5038L8.71366 53.7184Z" fill="#2EBA8F"/>
<path d="M15.1022 42.3326L0 51.5047V53.5831C0 56.0907 2.1897 58.011 4.85346 58.011C5.93318 58.0225 6.98718 57.6814 7.85584 57.0396L16.0728 48.7034L15.1022 42.3326Z" fill="#2EBA8F"/>
<path d="M15.5762 28.9812L8.73623 31.647L8.66851 39.2376L0 39.328V31.918C0 28.5745 2.28 25.6151 5.9596 24.1466L6.50139 23.9659L14.2669 22.136L15.057 23.8077L15.5762 28.9812Z" fill="#2EBA8F"/>
<path d="M10.4973 45.1338L9.66203 38.0175C9.61688 37.6108 9.14282 37.3623 8.7139 37.4979C8.58026 37.5284 8.46108 37.6029 8.37507 37.7093C8.28906 37.816 8.24143 37.9484 8.23985 38.0853L8.33014 45.6308L5.6438 47.3477C5.26004 47.5962 5.53093 48.161 5.93726 47.9125L10.4973 45.1338Z" fill="#2EBA8F"/>
<path d="M8.66851 37.6111L0 37.6562V39.328H8.66851V37.6111Z" fill="#2EBA8F"/>
<path d="M25.622 39.1696L22.2585 39.4859C22.281 39.5085 22.2811 39.5537 22.2811 39.6215L22.3488 39.8926C22.3713 39.9151 22.3713 39.9603 22.3939 40.0055C22.3939 40.0175 22.3987 40.029 22.4072 40.0376C22.4156 40.046 22.4271 40.0507 22.4391 40.0507L22.868 40.5477L22.9131 40.6155C22.9131 40.6381 22.9357 40.6381 22.9357 40.6607C22.9589 40.742 22.9589 40.8281 22.9357 40.9092C22.9368 40.9216 22.9352 40.9338 22.9314 40.9455C22.9276 40.9571 22.9213 40.9679 22.9131 40.9769C22.9118 40.9943 22.9036 41.0106 22.8905 41.0221L22.7325 41.1577H22.6648C22.6422 41.1577 22.6422 41.4514 22.6197 41.4514C22.7422 41.3974 22.8711 41.3594 23.0034 41.3384C23.0951 41.3985 23.1673 41.4837 23.2115 41.584C23.2556 41.6843 23.2696 41.7952 23.2517 41.9032L23.184 42.1743C23.1585 42.2942 23.0973 42.4036 23.0088 42.4883C22.9201 42.5728 22.8082 42.6288 22.6874 42.6487L22.868 42.8746C22.9203 42.939 22.952 43.0178 22.9583 43.1005L23.0711 43.6879C23.08 43.7911 23.0565 43.8944 23.0039 43.9836C22.9513 44.0726 22.8723 44.1431 22.7777 44.1849L20.7009 45.0434L19.7527 45.45L14.9444 49.7198L13.9512 43.0328L16.4569 40.9995C16.5704 40.9279 16.6698 40.836 16.7504 40.7284L17.6308 39.6666C17.9971 39.2078 18.4924 38.8696 19.0529 38.6952L19.3238 38.6048L25.5092 38.0175C26.4121 38.0627 26.1864 39.1019 25.622 39.1696Z" fill="#FC9D9D"/>
<path opacity="0.15" d="M23.2511 41.926L23.1833 42.1971C23.1578 42.3168 23.0969 42.4262 23.0082 42.5109C22.9197 42.5956 22.8077 42.6514 22.6867 42.6715L22.8673 42.8974C22.9199 42.9618 22.9513 43.0404 22.9576 43.1233L23.0705 43.7107C23.0795 43.8137 23.056 43.9172 23.0034 44.0062C22.9508 44.0952 22.8716 44.1657 22.777 44.2077L20.7002 45.0662L21.2871 42.9652C21.3907 42.5906 21.5883 42.2488 21.8607 41.9721C22.1334 41.6953 22.472 41.4927 22.8447 41.3838H23.0027C23.0906 41.4419 23.1605 41.5236 23.2043 41.6194C23.2481 41.7152 23.2644 41.8214 23.2511 41.926Z" fill="black"/>
<path d="M8.71366 53.7184H0V36.5264L8.64594 36.5038L8.71366 53.7184Z" fill="#FC9D9D"/>
<path d="M15.1022 42.3326L0 51.5047V53.5831C0 56.0907 2.1897 58.011 4.85346 58.011C5.93318 58.0225 6.98718 57.6814 7.85584 57.0396L16.0728 48.7034L15.1022 42.3326Z" fill="#FC9D9D"/>
<path d="M15.5762 28.9812L8.73623 31.647L8.66851 39.2376L0 39.328V31.918C0 28.5745 2.28 25.6151 5.9596 24.1466L6.50139 23.9659L14.2669 22.136L15.057 23.8077L15.5762 28.9812Z" fill="#5ACAA8"/>
<path opacity="0.15" d="M10.4973 45.1338L9.66203 38.0175C9.61688 37.6108 9.14282 37.3623 8.7139 37.4979C8.58026 37.5284 8.46108 37.6029 8.37507 37.7093C8.28906 37.816 8.24143 37.9484 8.23985 38.0853L8.33014 45.6308L5.6438 47.3477C5.26004 47.5962 5.53093 48.161 5.93726 47.9125L10.4973 45.1338Z" fill="#333131"/>
<path d="M8.66851 37.6111L0 37.6562V39.328H8.66851V37.6111Z" fill="#333131"/>
<path d="M23.4771 46.06L24.1995 46.557L25.4636 45.1338C25.5629 45.0213 25.6979 44.9467 25.8458 44.9219C25.9939 44.8972 26.1458 44.9241 26.2763 44.9982C26.314 45.0204 26.3463 45.0506 26.3709 45.087C26.3952 45.1231 26.4115 45.1645 26.4178 45.2079C26.4244 45.2512 26.4212 45.2955 26.4083 45.3373C26.3955 45.3791 26.3736 45.4177 26.344 45.45C25.7345 46.2181 24.4703 47.7317 24.4478 47.7317C24.4252 47.7317 22.8901 46.9185 22.8901 46.9185L23.4771 46.06Z" fill="#FC9D9D"/>
<path d="M23.1839 45.2919L23.7934 45.676L24.4481 45.0886C24.5086 45.0341 24.5851 45.0002 24.6664 44.9921C24.7476 44.984 24.8291 45.002 24.8996 45.0434H24.9221C24.9797 45.0752 25.0298 45.1191 25.0686 45.1722C25.1075 45.2253 25.1343 45.2862 25.1472 45.3509C25.1603 45.4155 25.1589 45.4819 25.1434 45.546C25.1278 45.61 25.0984 45.6698 25.0576 45.7211C24.6287 46.2859 23.9289 47.1896 23.9063 47.1896C23.8837 47.1896 22.439 46.3989 22.439 46.3989L23.1839 45.2919Z" fill="#FC9D9D"/>
<path opacity="0.15" d="M23.4771 46.06L24.1995 46.557L25.4636 45.1338C25.5629 45.0213 25.6979 44.9467 25.8458 44.9219C25.9939 44.8972 26.1458 44.9241 26.2763 44.9982C26.314 45.0204 26.3463 45.0506 26.3709 45.087C26.3952 45.1231 26.4115 45.1645 26.4178 45.2079C26.4244 45.2512 26.4212 45.2955 26.4083 45.3373C26.3955 45.3791 26.3736 45.4177 26.344 45.45C25.7345 46.2181 24.4703 47.7317 24.4478 47.7317C24.4252 47.7317 22.8901 46.9185 22.8901 46.9185L23.4771 46.06Z" fill="black"/>
<path opacity="0.15" d="M23.1839 45.2919L23.7934 45.676L24.4481 45.0886C24.5086 45.0341 24.5851 45.0002 24.6664 44.9921C24.7476 44.984 24.8291 45.002 24.8996 45.0434H24.9221C24.9797 45.0752 25.0298 45.1191 25.0686 45.1722C25.1075 45.2253 25.1343 45.2862 25.1472 45.3509C25.1603 45.4155 25.1589 45.4819 25.1434 45.546C25.1278 45.61 25.0984 45.6698 25.0576 45.7211C24.6287 46.2859 23.9289 47.1896 23.9063 47.1896C23.8837 47.1896 22.439 46.3989 22.439 46.3989L23.1839 45.2919Z" fill="black"/>
<path d="M32.0327 39.8022L24.1994 41.4062C23.8265 41.5072 23.4863 41.7042 23.2129 41.9777C22.9398 42.2513 22.7427 42.5916 22.6418 42.965L22.0097 45.2241C21.9113 45.593 21.9278 45.9832 22.0567 46.3424C22.1858 46.7018 22.4215 47.0131 22.7321 47.2348L24.2897 48.2966C24.6283 48.5225 24.9895 48.4095 25.3056 48.1384L26.7503 46.9411C26.9761 46.7603 27.0889 46.4215 26.8406 46.2407C26.7695 46.1858 26.6822 46.156 26.5923 46.156C26.5025 46.156 26.4151 46.1858 26.344 46.2407L25.6442 46.7377C25.4774 46.8604 25.2699 46.9149 25.0642 46.8896C24.8586 46.8643 24.6705 46.7615 24.538 46.6022L23.8834 45.8793C23.8321 45.8081 23.8084 45.7209 23.8168 45.6335C23.8251 45.5463 23.8649 45.465 23.9285 45.4049L24.4477 45.0208C24.7638 44.7497 25.5087 44.3205 25.8925 44.5012L27.1567 45.4275C27.547 45.7431 28.0319 45.9181 28.5337 45.9245C28.9978 45.9443 29.4513 45.7821 29.7978 45.4726C30.0687 45.2467 30.4299 44.8853 30.6557 44.6819C30.7378 44.6316 30.8306 44.6006 30.9266 44.5916L33.2969 44.3205L32.0327 39.8022Z" fill="#FC9D9D"/>
<path d="M54.1101 35.0128L47.9248 41.361L37.5181 32.8215L42.5521 25.8859L54.1101 35.0128Z" fill="#FC9D9D"/>
<path d="M46.7285 29.2068L40.9044 35.6002L36.7281 32.1889L31.9198 35.9391L29.1206 25.0952L29.3463 21.1417H32.0778C34.4328 21.1284 36.7428 21.7865 38.7372 23.0394C39.7696 23.7131 40.7572 24.4527 41.6945 25.2534L46.7285 29.2068Z" fill="#5ACAA8"/>
<path opacity="0.15" d="M45.7804 35.3065L42.7782 36.1424L36.9313 31.5112C36.8694 31.4222 36.78 31.356 36.6767 31.3226C36.5735 31.2891 36.4624 31.2905 36.3599 31.3264C36.2577 31.3621 36.1699 31.4305 36.11 31.5211C36.05 31.6115 36.0216 31.719 36.0283 31.8275L36.2541 65.1723H37.6537L36.7284 32.1889L42.4168 36.8427L45.961 35.8939C46.0133 35.8745 46.0598 35.8417 46.0953 35.7988C46.1309 35.7559 46.1544 35.7041 46.1637 35.649C46.1729 35.5939 46.1673 35.5374 46.1477 35.4852C46.1278 35.433 46.0946 35.387 46.0515 35.3517C45.9705 35.3016 45.8732 35.2853 45.7804 35.3065Z" fill="black"/>
<path d="M40.9045 35.6002L39.5952 34.5384L45.3291 28.0773L46.7287 29.2068L40.9045 35.6002Z" fill="#333131"/>
<path d="M31.2876 39.9377L51.0852 34.448C56.4804 33.5444 57.5189 41.1803 52.1236 42.0839L31.7842 44.5012L31.2876 39.9377Z" fill="#FC9D9D"/>
<path d="M30.7682 44.637L30.0684 40.0735L31.4228 39.8024L32.1678 44.4562L30.7682 44.637Z" fill="#3F4249"/>
<path d="M29.2333 40.0516C29.2159 40.0071 29.2077 39.9596 29.2098 39.9119C29.2118 39.8642 29.224 39.8176 29.2452 39.7749C29.2667 39.7322 29.2967 39.6944 29.3335 39.6644C29.3703 39.6341 29.4132 39.6119 29.459 39.5995L31.8519 39.0343C31.9354 39.018 32.0219 39.0318 32.0964 39.073C32.1706 39.1143 32.228 39.1808 32.2582 39.2604V39.3056C32.2718 39.3501 32.2761 39.3969 32.2709 39.443C32.2655 39.4894 32.2508 39.5341 32.2275 39.5744C32.2043 39.6146 32.1729 39.6497 32.1354 39.6772C32.098 39.7051 32.0553 39.7247 32.0099 39.7351L29.617 40.2549C29.5786 40.2689 29.5378 40.2745 29.4969 40.2716C29.4561 40.2689 29.4163 40.2573 29.3802 40.2381C29.3441 40.2191 29.3125 40.1925 29.2872 40.1604C29.2617 40.1283 29.2434 40.0912 29.2333 40.0516Z" fill="#21252B"/>
<path d="M16.7498 21.2773L14.1538 22.0454C14.3118 22.7005 15.1245 23.559 15.7566 24.0334C18.8041 26.3603 23.6576 26.6766 27.0663 24.0334C27.9918 23.3105 28.5336 22.068 28.669 21.1417L26.2762 21.074L16.7498 21.2773Z" fill="#333131"/>
<path d="M22.8902 0.0190526C19.346 -0.161678 15.4181 0.877524 15.2375 5.98318L14.8086 9.80112H28.6917L28.94 5.64431C28.94 3.45294 28.94 1.7134 25.9377 0.629016C24.9604 0.265746 23.9317 0.0599431 22.8902 0.0190526Z" fill="#333131"/>
<path d="M26.5925 9.05558C26.5925 9.05558 17.1338 3.13665 16.8178 10.3659L16.6824 12.2635L16.0503 21.5712C17.6756 25.8635 27.1342 24.1014 26.6828 21.3227L26.0281 16.0363C26.15 15.4797 26.2105 14.9115 26.2087 14.342C26.3216 11.5632 26.5925 9.05558 26.5925 9.05558Z" fill="#FC9D9D"/>
<path d="M28.1274 3.76917C28.1274 3.76917 30.9718 17.9791 23.7932 18.9054C17.5401 19.7413 16.8403 10.027 16.8403 10.027L17.0209 6.11868C17.0444 5.47934 17.3178 4.87502 17.7823 4.43562C18.2467 3.99621 18.865 3.75674 19.5041 3.76917H28.1274Z" fill="#FC9D9D"/>
<path opacity="0.15" d="M16.6367 12.6927C16.6367 12.6927 17.2462 12.7154 17.5622 12.4441L16.5464 14.0039L16.6367 12.6927Z" fill="black"/>
<path d="M16.9758 8.92004C16.9758 8.92004 16.5243 7.60974 15.1473 8.21971C13.7703 8.82968 13.8831 12.5121 16.5469 12.6928C17.9465 12.8058 17.6756 11.9925 17.4499 10.9081L16.9758 8.92004Z" fill="#FC9D9D"/>
<path opacity="0.3" d="M15.0341 9.19113C15.2564 9.03231 15.532 8.96725 15.8018 9.0104C15.93 9.03706 16.0508 9.09105 16.1562 9.16922C16.2614 9.24716 16.3483 9.34724 16.4113 9.46223C16.6145 9.75592 16.6368 10.0722 16.682 10.4563L16.7499 10.7726C16.7499 10.8855 16.682 10.9759 16.6142 10.9759C16.5465 10.9759 16.4113 10.9081 16.4113 10.8403L16.3661 10.5015C16.349 10.2215 16.2637 9.94999 16.1176 9.71074C15.9822 9.50742 15.8695 9.37187 15.7341 9.37187C15.6465 9.35334 15.5558 9.35605 15.4693 9.37955C15.3831 9.40327 15.3034 9.4471 15.2374 9.50742C15.1246 9.5526 15.0341 9.5526 14.9889 9.46223C14.9438 9.37187 14.9889 9.21372 15.0341 9.19113Z" fill="black"/>
<path opacity="0.15" d="M26.5695 20.4868L26.2761 17.7759C25.644 18.4084 23.9283 19.2895 21.987 18.8602C21.0127 18.5932 20.1352 18.0522 19.4587 17.3014C19.4338 17.2791 19.4018 17.2669 19.3683 17.2669C19.3352 17.2669 19.3029 17.2791 19.2781 17.3014C19.2641 17.3118 19.2528 17.3256 19.2449 17.3412C19.237 17.3568 19.2329 17.3742 19.2329 17.3918C19.2329 17.4092 19.237 17.4266 19.2449 17.4422C19.2528 17.458 19.2641 17.4716 19.2781 17.4822C20.1379 18.452 21.314 19.0846 22.5965 19.2669C23.7735 20.0528 25.1546 20.4771 26.5695 20.4868Z" fill="black"/>
<path opacity="0.3" d="M24.3121 16.0815C24.0089 16.084 23.7066 16.1143 23.4091 16.1719C23.3628 16.167 23.3197 16.1464 23.2868 16.1136C23.254 16.0806 23.2333 16.0374 23.2285 15.9911C23.2324 15.9422 23.2522 15.8959 23.2847 15.8591C23.3172 15.8224 23.361 15.7973 23.4091 15.7876L24.2444 15.7198C24.3572 15.7198 24.4475 15.765 24.4475 15.9007C24.4475 16.0363 24.3798 16.0363 24.3121 16.0815Z" fill="black"/>
<path opacity="0.3" d="M24.6054 15.2238C23.0026 15.4725 22.3028 14.6361 22.077 14.2066C22.059 14.1652 22.0538 14.1195 22.0617 14.0752C22.0698 14.0309 22.0908 13.99 22.1222 13.9579C22.1644 13.9464 22.2086 13.9446 22.2515 13.9522C22.2944 13.9602 22.3351 13.9776 22.3705 14.0031C22.5962 14.4552 23.3863 15.3369 25.2826 14.7039C25.3031 14.6928 25.3257 14.6863 25.3487 14.6849C25.372 14.6836 25.3952 14.6874 25.4167 14.696C25.4383 14.7046 25.4578 14.7179 25.4736 14.7349C25.4894 14.7518 25.5013 14.7722 25.5083 14.7943C25.576 14.9074 25.5083 14.9752 25.4406 15.043C25.1695 15.1332 24.8896 15.1938 24.6054 15.2238Z" fill="black"/>
<path opacity="0.3" d="M25.057 13.8007L24.3121 13.8459C24.1992 13.8459 24.1089 13.8007 24.1089 13.7103C24.1089 13.6198 24.1766 13.5294 24.2443 13.5294L25.0119 13.4842C25.1038 13.4729 25.1877 13.4266 25.2464 13.3551C25.3053 13.2837 25.3345 13.1924 25.3279 13.0999C25.3166 13.0079 25.2704 12.9238 25.199 12.865C25.1277 12.806 25.0365 12.7768 24.9442 12.7834C24.8313 12.7834 24.7636 12.7156 24.7636 12.6478C24.7636 12.5799 24.8087 12.4443 24.899 12.4443C25.0812 12.4316 25.2609 12.4909 25.4002 12.6091C25.5392 12.7273 25.6268 12.8953 25.644 13.0773C25.6604 13.1643 25.6577 13.2541 25.6358 13.3402C25.6142 13.4261 25.574 13.5064 25.518 13.5753C25.4622 13.6443 25.392 13.7001 25.3123 13.739C25.2327 13.7779 25.1455 13.7989 25.057 13.8007Z" fill="black"/>
<path opacity="0.19" d="M29.8206 11.1114C29.7834 11.5883 29.6055 12.0435 29.3095 12.4192C29.0136 12.7949 28.6129 13.0742 28.1582 13.2219C27.7034 13.3697 27.2151 13.3789 26.7552 13.2488C26.2952 13.1187 25.8841 12.8548 25.5742 12.4906C25.264 12.1265 25.069 11.6785 25.0134 11.2034C24.9579 10.7281 25.0446 10.2471 25.2624 9.82123C25.4802 9.39538 25.8193 9.04386 26.2369 8.81094C26.6546 8.57825 27.1318 8.47455 27.6083 8.51341C28.2456 8.56514 28.8364 8.86787 29.2511 9.35494C29.6657 9.84179 29.8705 10.4734 29.8206 11.1114Z" fill="white"/>
<path opacity="0.19" d="M23.9064 10.637C23.8809 10.9549 23.7926 11.2644 23.647 11.5479C23.5012 11.8316 23.3009 12.0835 23.0576 12.2893C22.814 12.4951 22.5325 12.6508 22.2286 12.747C21.925 12.8435 21.6052 12.8787 21.2878 12.851C20.6758 12.7678 20.1186 12.4536 19.731 11.9721C19.3434 11.4909 19.1549 10.8792 19.2039 10.2631C19.2531 9.64705 19.5362 9.07301 19.9951 8.65936C20.4541 8.24571 21.0541 8.02364 21.6715 8.039C21.9889 8.06182 22.2989 8.14721 22.5833 8.29044C22.8677 8.43344 23.121 8.63134 23.3287 8.87284C23.5364 9.11434 23.6944 9.39448 23.7935 9.6972C23.8926 9.99993 23.931 10.3194 23.9064 10.637Z" fill="white"/>
<path d="M23.9064 10.637C23.8809 10.9549 23.7926 11.2644 23.647 11.5479C23.5012 11.8316 23.3009 12.0835 23.0576 12.2893C22.814 12.4951 22.5325 12.6508 22.2286 12.747C21.925 12.8435 21.6052 12.8787 21.2878 12.851C20.6758 12.7678 20.1186 12.4536 19.731 11.9721C19.3434 11.4909 19.1549 10.8792 19.2039 10.2631C19.2531 9.64705 19.5362 9.07301 19.9951 8.65936C20.4541 8.24571 21.0541 8.02364 21.6715 8.039C21.9889 8.06182 22.2989 8.14721 22.5833 8.29044C22.8677 8.43344 23.121 8.63134 23.3287 8.87284C23.5364 9.11434 23.6944 9.39448 23.7935 9.6972C23.8926 9.99993 23.931 10.3194 23.9064 10.637Z" stroke="#1A1A1A" stroke-width="0.376926" stroke-linecap="round" stroke-linejoin="round"/>
<path d="M29.8206 11.1114C29.7834 11.5883 29.6055 12.0435 29.3095 12.4192C29.0136 12.7949 28.6129 13.0742 28.1582 13.2219C27.7034 13.3697 27.2151 13.3789 26.7552 13.2488C26.2952 13.1187 25.8841 12.8548 25.5742 12.4906C25.264 12.1265 25.069 11.6785 25.0134 11.2034C24.9579 10.7281 25.0446 10.2471 25.2624 9.82123C25.4802 9.39538 25.8193 9.04386 26.2369 8.81094C26.6546 8.57825 27.1318 8.47455 27.6083 8.51341C28.2456 8.56514 28.8364 8.86787 29.2511 9.35494C29.6657 9.84179 29.8705 10.4734 29.8206 11.1114Z" stroke="#1A1A1A" stroke-width="0.376926" stroke-linecap="round" stroke-linejoin="round"/>
<path d="M23.9062 10.6369C23.9062 10.6369 24.5158 10.1395 24.9898 10.7273" stroke="#1A1A1A" stroke-width="0.376926" stroke-linecap="round" stroke-linejoin="round"/>
<path d="M19.0751 10.2533L17.0435 9.28123" stroke="#1A1A1A" stroke-width="0.376926" stroke-miterlimit="10"/>
<path d="M22.7661 10.7266C22.791 10.4154 22.5593 10.1429 22.2487 10.1179C21.9381 10.0928 21.6658 10.3247 21.641 10.636C21.616 10.9471 21.8476 11.2195 22.1582 11.2446C22.4688 11.2696 22.7411 11.0377 22.7661 10.7266Z" fill="#21252B"/>
<path d="M22.5515 10.7049C22.6262 10.7049 22.6869 10.6441 22.6869 10.5693C22.6869 10.4942 22.6262 10.4336 22.5515 10.4336C22.4768 10.4336 22.416 10.4942 22.416 10.5693C22.416 10.6441 22.4768 10.7049 22.5515 10.7049Z" fill="white"/>
<path d="M27.1811 11.1364C27.2062 10.8254 26.9746 10.5527 26.6639 10.5279C26.3533 10.5028 26.0811 10.7347 26.056 11.0458C26.0312 11.3568 26.2628 11.6295 26.5734 11.6543C26.884 11.6794 27.156 11.4475 27.1811 11.1364Z" fill="#21252B"/>
<path d="M26.9533 11.1116C27.028 11.1116 27.0888 11.0508 27.0888 10.9759C27.0888 10.9009 27.028 10.8403 26.9533 10.8403C26.8786 10.8403 26.8179 10.9009 26.8179 10.9759C26.8179 11.0508 26.8786 11.1116 26.9533 11.1116Z" fill="white"/>
<path d="M17.2242 9.98159C17.2765 9.98182 17.3282 9.9712 17.3763 9.95042C17.4244 9.92986 17.4677 9.89936 17.5038 9.86141C17.5397 9.82323 17.5675 9.77827 17.5853 9.72902C17.6034 9.67977 17.6108 9.62736 17.6079 9.57495C17.5628 8.46797 17.5853 5.8022 18.714 5.30519C19.775 5.48592 27.2697 6.47994 28.1275 4.89855L28.6241 9.77827H28.6919L28.6016 3.47529C24.9471 2.48135 22.8656 2.19417 19.0752 2.32313L16.0503 4.33376L17.2242 9.98159Z" fill="#333131"/>
<defs>
<filter id="filter0_d" x="3.31937" y="68.1997" width="40.7904" height="96.0744" filterUnits="userSpaceOnUse" color-interpolation-filters="sRGB">
<feFlood flood-opacity="0" result="BackgroundImageFix"/>
<feColorMatrix in="SourceAlpha" type="matrix" values="0 0 0 0 0 0 0 0 0 0 0 0 0 0 0 0 0 0 127 0"/>
<feOffset dy="3.52096"/>
<feGaussianBlur stdDeviation="1.76048"/>
<feColorMatrix type="matrix" values="0 0 0 0 0 0 0 0 0 0 0 0 0 0 0 0 0 0 0.25 0"/>
<feBlend mode="normal" in2="BackgroundImageFix" result="effect1_dropShadow"/>
<feBlend mode="normal" in="SourceGraphic" in2="effect1_dropShadow" result="shape"/>
</filter>
</defs>
</svg>
