<svg width="300" height="185" viewBox="0 0 300 185" fill="none" xmlns="http://www.w3.org/2000/svg">
<rect y="45" width="300" height="115" rx="5" fill="#2CB289"/>
<path d="M244 67.0858H276.615V22H244V67.0858Z" fill="white"/>
<path d="M248.796 62.2894H271.819V25.8371H248.796V62.2894Z" fill="#DDDDDD"/>
<path d="M277.575 22H276.615V67.0858H277.575V22Z" fill="#DADDDF"/>
<path d="M254.552 56.5338H266.064V39.2669H254.552V56.5338Z" fill="#333131"/>
<path d="M260.292 36.3891C261.818 36.3891 263.281 35.8847 264.362 34.9858C265.444 34.0871 266.055 32.8671 266.064 31.5927H254.552C254.552 32.8648 255.157 34.0848 256.234 34.9842C257.31 35.8839 258.77 36.3891 260.292 36.3891Z" fill="#2EBA8F"/>
<path d="M220.731 97.5655L216.313 75.8737" stroke="#868A91" stroke-width="0.407332" stroke-miterlimit="10"/>
<path d="M221.954 68.5597L221.342 96.759" stroke="#868A91" stroke-width="0.407332" stroke-miterlimit="10"/>
<path d="M228.374 73.7879L221.649 82.2422" stroke="#868A91" stroke-width="0.407332" stroke-miterlimit="10"/>
<path d="M224.066 102.961L223.399 101.959C222.733 100.954 222.374 99.7738 222.371 98.5666V96.1749H219.787V98.5666C219.795 99.7713 219.448 100.952 218.787 101.959L218.12 102.961C217.433 104.008 216.969 105.186 216.761 106.42C216.549 107.655 216.597 108.92 216.897 110.136L217.647 113.111H224.539L225.289 110.136C225.589 108.92 225.636 107.655 225.425 106.42C225.217 105.186 224.753 104.008 224.066 102.961Z" fill="#333131"/>
<path opacity="0.2" d="M224.066 102.961L223.399 101.959C222.732 100.954 222.374 99.7738 222.371 98.5666V96.1749H221.648V98.5666C221.668 99.7371 221.951 100.888 222.482 101.932L223.26 103.378C225.15 107.66 221.565 113.111 221.565 113.111H224.538L225.289 110.136C225.589 108.92 225.636 107.655 225.425 106.42C225.216 105.186 224.752 104.008 224.066 102.961Z" fill="black"/>
<path d="M219.008 89.0834L227.012 82.4647" stroke="#868A91" stroke-width="0.407332" stroke-miterlimit="10"/>
<path d="M212.978 87.6095L220.064 94.2838" stroke="#868A91" stroke-width="0.407332" stroke-miterlimit="10"/>
<path d="M224.372 78.8216L225.484 73.9548C225.573 73.5579 225.761 73.1903 226.031 72.8866C226.303 72.5832 226.645 72.3538 227.031 72.2203C227.415 72.0865 227.826 72.0531 228.226 72.1229C228.627 72.193 229.002 72.3641 229.318 72.6199C229.638 72.8713 229.885 73.1995 230.044 73.5738C230.199 73.9481 230.258 74.3561 230.213 74.7593C230.169 75.1626 230.022 75.548 229.788 75.8793C229.555 76.2102 229.241 76.4763 228.874 76.6524L224.372 78.8216Z" fill="#2EBA8F"/>
<path opacity="0.3" d="M224.372 78.8216L225.484 73.9548C225.573 73.5579 225.761 73.1903 226.031 72.8866C226.303 72.5832 226.645 72.3538 227.031 72.2203C227.415 72.0865 227.826 72.0531 228.226 72.1229C228.627 72.193 229.002 72.3641 229.318 72.6199C229.638 72.8713 229.885 73.1995 230.044 73.5738C230.199 73.9481 230.258 74.3561 230.213 74.7593C230.169 75.1626 230.022 75.548 229.788 75.8793C229.555 76.2102 229.241 76.4763 228.874 76.6524L224.372 78.8216Z" fill="#165945"/>
<path d="M230.236 74.5388C230.224 74.9824 230.091 75.414 229.852 75.7866C229.61 76.1593 229.274 76.4588 228.874 76.6523L224.372 78.8215L229.318 72.6199C229.613 72.8444 229.849 73.1352 230.008 73.469C230.166 73.8027 230.247 74.1692 230.236 74.5388Z" fill="#2EBA8F"/>
<path d="M221.815 76.6524L218.647 70.0892C218.383 69.5508 218.261 68.9537 218.292 68.3544C218.319 67.7554 218.503 67.1736 218.82 66.6644C219.136 66.1552 219.578 65.735 220.104 65.4438C220.626 65.1527 221.215 65 221.815 65C222.413 65.0022 222.996 65.1555 223.519 65.445C224.038 65.7347 224.477 66.1516 224.794 66.6569C225.111 67.1622 225.292 67.7396 225.325 68.3347C225.358 68.9301 225.242 69.5241 224.983 70.0614L221.815 76.6524Z" fill="#2EBA8F"/>
<path opacity="0.3" d="M221.815 76.6524L218.647 70.0892C218.383 69.5508 218.261 68.9537 218.292 68.3544C218.319 67.7554 218.503 67.1736 218.82 66.6644C219.136 66.1552 219.578 65.735 220.104 65.4438C220.626 65.1527 221.215 65 221.815 65C222.413 65.0022 222.996 65.1555 223.519 65.445C224.038 65.7347 224.477 66.1516 224.794 66.6569C225.111 67.1622 225.292 67.7396 225.325 68.3347C225.358 68.9301 225.242 69.5241 224.983 70.0614L221.815 76.6524Z" fill="#2FBF93"/>
<path opacity="0.3" d="M221.954 65.0278L221.815 76.6524L224.983 70.0615C225.239 69.5364 225.358 68.9557 225.333 68.3726C225.306 67.7894 225.136 67.2221 224.833 66.722C224.533 66.222 224.111 65.8051 223.611 65.5092C223.108 65.2133 222.538 65.0479 221.954 65.0278Z" fill="#165945"/>
<path d="M218.286 85.9387L213.673 80.4324C213.293 79.9835 213.031 79.4451 212.915 78.8675C212.798 78.2899 212.831 77.6925 213.009 77.1307C213.187 76.5693 213.504 76.062 213.932 75.6568C214.36 75.2516 214.882 74.9618 215.452 74.8147C216.024 74.6657 216.622 74.6648 217.194 74.8119C217.767 74.959 218.289 75.2497 218.717 75.6557C219.145 76.062 219.464 76.5709 219.642 77.1341C219.817 77.6972 219.851 78.2965 219.731 78.875L218.286 85.9387Z" fill="#2FBF93"/>
<path opacity="0.3" d="M219.998 78.875C220.117 78.2965 220.084 77.6972 219.909 77.1341C219.731 76.5709 219.414 76.062 218.983 75.6557C218.555 75.2497 218.033 74.959 217.461 74.8119C216.888 74.6648 216.291 74.6657 215.718 74.8147L218.58 85.9109L219.998 78.875Z" fill="#238C6C"/>
<path d="M217.647 92.0035L215.535 86.7196C215.36 86.2921 215.082 85.9159 214.724 85.625C214.365 85.3341 213.937 85.138 213.484 85.0551C213.031 84.972 212.565 85.0045 212.126 85.1494C211.686 85.2946 211.292 85.5476 210.978 85.8853C210.661 86.2251 210.436 86.6406 210.322 87.0922C210.211 87.5441 210.216 88.0169 210.339 88.4658C210.461 88.9146 210.697 89.3245 211.022 89.6566C211.35 89.9886 211.753 90.2317 212.201 90.3627L217.647 92.0035Z" fill="#2EBA8F"/>
<path opacity="0.3" d="M217.647 92.0035L215.535 86.7196C215.36 86.2921 215.082 85.9159 214.724 85.625C214.365 85.3341 213.937 85.138 213.484 85.0551C213.031 84.972 212.565 85.0045 212.126 85.1494C211.686 85.2946 211.292 85.5476 210.978 85.8853C210.661 86.2251 210.436 86.6406 210.322 87.0922C210.211 87.5441 210.216 88.0169 210.339 88.4658C210.461 88.9146 210.697 89.3245 211.022 89.6566C211.35 89.9886 211.753 90.2317 212.201 90.3627L217.647 92.0035Z" fill="#238C6C"/>
<path opacity="0.3" d="M211.061 85.8019L217.619 92.0035H217.646L215.535 86.7196C215.368 86.2969 215.101 85.9223 214.754 85.63C214.406 85.3377 213.992 85.1367 213.548 85.0454C213.103 84.9545 212.642 84.9759 212.208 85.108C211.775 85.2398 211.38 85.4784 211.061 85.8019Z" fill="#165945"/>
<path d="M221.148 87.387L223.454 81.825C223.641 81.3701 223.938 80.9693 224.319 80.6614C224.702 80.3533 225.158 80.1478 225.641 80.0644C226.125 79.9809 226.622 80.0221 227.086 80.1842C227.548 80.3464 227.965 80.6239 228.29 80.9907C228.62 81.3559 228.854 81.7997 228.965 82.28C229.076 82.76 229.062 83.2609 228.926 83.7345C228.79 84.2081 228.534 84.6391 228.184 84.9862C227.834 85.3335 227.403 85.5855 226.928 85.7184L221.148 87.387Z" fill="#2EBA8F"/>
<path opacity="0.3" d="M221.148 87.387L223.454 81.825C223.641 81.3701 223.938 80.9693 224.319 80.6614C224.702 80.3533 225.158 80.1478 225.641 80.0644C226.125 79.9809 226.622 80.0221 227.086 80.1842C227.548 80.3464 227.965 80.6239 228.29 80.9907C228.62 81.3559 228.854 81.7997 228.965 82.28C229.076 82.76 229.062 83.2609 228.926 83.7345C228.79 84.2081 228.534 84.6391 228.184 84.9862C227.834 85.3335 227.403 85.5855 226.928 85.7184L221.148 87.387Z" fill="#238C6C"/>
<path d="M221.371 94.1449L232.292 88.138" stroke="#868A91" stroke-width="0.407332" stroke-miterlimit="10"/>
<path d="M223.148 93.1437L227.122 87.7207C227.447 87.2802 227.878 86.9295 228.376 86.7004C228.873 86.4712 229.42 86.3716 229.965 86.4103C230.513 86.4492 231.041 86.6253 231.499 86.9226C231.96 87.2196 232.336 87.6281 232.597 88.11C232.855 88.5948 232.989 89.1376 232.98 89.6872C232.972 90.237 232.825 90.7759 232.555 91.2534C232.283 91.7312 231.894 92.1322 231.424 92.4189C230.957 92.7057 230.421 92.8689 229.873 92.8934L223.148 93.1437Z" fill="#2EBA8F"/>
<path opacity="0.3" d="M223.148 93.1437L227.122 87.7207C227.447 87.2802 227.878 86.9295 228.376 86.7004C228.873 86.4712 229.42 86.3716 229.965 86.4103C230.513 86.4492 231.041 86.6253 231.499 86.9226C231.96 87.2196 232.336 87.6281 232.597 88.11C232.855 88.5948 232.989 89.1376 232.98 89.6872C232.972 90.237 232.825 90.7759 232.555 91.2534C232.283 91.7312 231.894 92.1322 231.424 92.4189C230.957 92.7057 230.421 92.8689 229.873 92.8934L223.148 93.1437Z" fill="#165945"/>
<path d="M232.708 91.4729C232.458 92.0227 232.06 92.493 231.56 92.8317C231.06 93.1701 230.476 93.364 229.873 93.3918L223.148 93.6421L232.597 88.6085C232.833 89.0456 232.966 89.5312 232.986 90.0276C233.002 90.5243 232.908 91.0185 232.708 91.4729Z" fill="#238C6C"/>
<path opacity="0.3" d="M223.454 81.825L221.148 87.387L228.29 80.9907C227.965 80.6239 227.548 80.3464 227.086 80.1842C226.622 80.0221 226.125 79.9809 225.641 80.0644C225.158 80.1478 224.702 80.3533 224.319 80.6614C223.938 80.9693 223.641 81.3701 223.454 81.825Z" fill="#165945"/>
<path d="M262.164 115.559H258.941L268.639 185H269.89L262.164 115.559Z" fill="#B1B5BA"/>
<path d="M198 185H199.25L208.949 115.559H205.725L198 185Z" fill="#B1B5BA"/>
<path d="M269.89 185H269.334L261.025 117.505C261.006 117.271 260.903 117.052 260.733 116.889C260.564 116.725 260.341 116.628 260.108 116.616L259.052 116.504L258.941 115.559H262.164L269.89 185Z" fill="#999393"/>
<path d="M198.806 185L207.448 117.589C207.476 117.344 207.409 117.098 207.267 116.898C207.123 116.698 206.912 116.558 206.67 116.504L205.642 116.31L205.725 115.559H208.949L199.278 185H198.806Z" fill="#999393"/>
<path d="M272.085 115.559H268.861L278.56 185H279.81L272.085 115.559Z" fill="#B1B5BA"/>
<path d="M207.921 185H209.199L218.898 115.559H215.674L207.921 185Z" fill="#B1B5BA"/>
<path d="M279.81 185H279.282L276.031 160.388L275.03 159.804L269 116.504L268.861 115.559H272.085L279.81 185Z" fill="#999393"/>
<path d="M208.727 185L211.867 160.583L210.727 159.804L215.674 115.559H218.897L209.199 185H208.727Z" fill="#999393"/>
<path d="M209.699 114.307C209.699 114.634 209.827 114.948 210.055 115.183C210.283 115.416 210.594 115.551 210.922 115.559H277.421C277.718 115.514 277.988 115.365 278.182 115.137C278.377 114.911 278.485 114.621 278.485 114.321C278.485 114.021 278.377 113.732 278.182 113.504C277.988 113.278 277.718 113.128 277.421 113.083H210.922C210.761 113.083 210.602 113.115 210.455 113.177C210.305 113.238 210.172 113.328 210.058 113.442C209.944 113.556 209.855 113.69 209.791 113.839C209.73 113.987 209.699 114.147 209.699 114.307Z" fill="#999393"/>
<path d="M200.029 114.307C200.029 114.634 200.157 114.948 200.384 115.183C200.615 115.416 200.924 115.551 201.251 115.559H253.939C254.237 115.514 254.506 115.365 254.701 115.137C254.898 114.911 255.004 114.621 255.004 114.321C255.004 114.021 254.898 113.732 254.701 113.504C254.506 113.278 254.237 113.128 253.939 113.083H201.251C200.926 113.083 200.615 113.212 200.387 113.442C200.157 113.671 200.029 113.982 200.029 114.307Z" fill="#CCC4C4"/>
<path d="M236.682 108.022H256.023V113.083H236.682C236.012 113.083 235.368 112.817 234.895 112.342C234.42 111.868 234.153 111.224 234.153 110.553C234.153 109.882 234.42 109.238 234.895 108.763C235.368 108.289 236.012 108.022 236.682 108.022Z" fill="#666262"/>
<path d="M254.412 113.083H264.193V112.36H261.164V108.773H264.193V108.022H254.412C253.742 108.022 253.097 108.289 252.625 108.763C252.15 109.238 251.883 109.882 251.883 110.553C251.883 111.224 252.15 111.868 252.625 112.342C253.097 112.817 253.742 113.083 254.412 113.083Z" fill="#666262"/>
<path d="M263.471 112.333H254.44C253.967 112.333 253.514 112.145 253.181 111.811C252.847 111.477 252.661 111.025 252.661 110.553C252.661 110.081 252.847 109.628 253.181 109.294C253.514 108.96 253.967 108.773 254.44 108.773H263.471V112.333Z" fill="white"/>
<path d="M233.792 104.129H249.937V108.022H233.792C233.614 108.022 233.445 107.952 233.32 107.826C233.194 107.701 233.125 107.532 233.125 107.355V104.796C233.125 104.619 233.194 104.449 233.32 104.324C233.445 104.199 233.614 104.129 233.792 104.129Z" fill="#333131"/>
<path d="M242.963 105.436H237.405C237.252 105.436 237.127 105.56 237.127 105.714V106.574C237.127 106.728 237.252 106.852 237.405 106.852H242.963C243.115 106.852 243.241 106.728 243.241 106.574V105.714C243.241 105.56 243.115 105.436 242.963 105.436Z" fill="#333131"/>
<path d="M256.19 108.022H247.409C247.231 108.022 247.062 107.952 246.937 107.826C246.812 107.701 246.742 107.532 246.742 107.355V104.796C246.742 104.619 246.812 104.449 246.937 104.324C247.062 104.199 247.231 104.129 247.409 104.129H256.19V108.022Z" fill="#333131"/>
<path d="M256.19 107.438H247.659C247.57 107.438 247.486 107.403 247.422 107.34C247.361 107.278 247.325 107.193 247.325 107.105V105.019C247.325 104.93 247.361 104.845 247.422 104.783C247.486 104.72 247.57 104.685 247.659 104.685H256.19V107.438Z" fill="white"/>
<path d="M261.165 104.129H242.074V100.235H261.165C261.409 100.235 261.643 100.332 261.815 100.504C261.984 100.676 262.082 100.91 262.082 101.153V103.239C262.076 103.477 261.976 103.704 261.804 103.87C261.632 104.036 261.404 104.129 261.165 104.129Z" fill="#79D5B9"/>
<path d="M261.165 104.129H242.074V100.235H261.165C261.409 100.235 261.643 100.332 261.815 100.504C261.984 100.676 262.082 100.91 262.082 101.153V103.239C262.076 103.477 261.976 103.704 261.804 103.87C261.632 104.036 261.404 104.129 261.165 104.129Z" fill="#79D5B9"/>
<path d="M235.543 100.819H244.324C244.413 100.819 244.499 100.854 244.56 100.917C244.624 100.979 244.658 101.064 244.658 101.153V103.239C244.658 103.327 244.624 103.412 244.56 103.475C244.499 103.537 244.413 103.572 244.324 103.572H235.543V100.819Z" fill="white"/>
<path d="M244.574 100.235H234.904V100.819H244.324C244.366 100.815 244.41 100.82 244.449 100.834C244.491 100.848 244.527 100.87 244.558 100.898C244.591 100.927 244.616 100.962 244.633 101.001C244.649 101.04 244.658 101.083 244.658 101.125V103.239C244.658 103.281 244.649 103.323 244.633 103.363C244.616 103.402 244.591 103.437 244.558 103.466C244.527 103.494 244.491 103.516 244.449 103.53C244.41 103.543 244.366 103.548 244.324 103.545H234.904V104.129H244.574C244.752 104.129 244.922 104.058 245.047 103.933C245.172 103.808 245.241 103.638 245.241 103.461V100.903C245.241 100.726 245.172 100.556 245.047 100.431C244.922 100.306 244.752 100.235 244.574 100.235Z" fill="#79D5B9"/>
<path d="M115.879 53.298H117.878V28.1529H116.073C114.488 28.1529 113.203 29.5462 113.203 31.267L113 50.1754C113.009 51.9019 114.3 53.298 115.879 53.298Z" fill="#2CB289"/>
<path d="M117.301 53.9099H119.3V28.1529H117.098C115.513 28.1529 114.633 29.2532 114.633 31.0257L114.43 50.7241C114.43 52.4822 115.727 53.9099 117.301 53.9099Z" fill="#208062"/>
<path d="M120.163 25.734H140.356C142.846 25.734 144.866 27.5582 144.866 29.8076V66.8258C144.866 69.0751 142.846 70.8964 140.356 70.8964H119.506C117.015 70.8964 114.999 69.0751 114.999 66.8258L115.653 29.8076C115.645 27.5582 117.664 25.734 120.163 25.734Z" fill="black"/>
<path d="M124.626 27.1445L141.691 26.5528C142.711 26.5732 143.682 27 144.389 27.7395C145.097 28.4789 145.483 29.4709 145.464 30.497V66.1334C145.476 66.6428 145.387 67.1498 145.204 67.6247C145.021 68.0998 144.746 68.5339 144.395 68.9019C144.045 69.2699 143.625 69.5649 143.161 69.7695C142.697 69.9743 142.198 70.0849 141.691 70.095L124.246 70.9108C123.226 70.8904 122.255 70.4635 121.548 69.7238C120.84 68.9844 120.454 67.9927 120.473 66.9665L120.853 31.1061C120.841 30.5965 120.93 30.0897 121.113 29.6145C121.296 29.1394 121.571 28.7053 121.921 28.3373C122.272 27.9693 122.691 27.6746 123.155 27.4697C123.619 27.2652 124.119 27.1546 124.626 27.1445Z" fill="#208062"/>
<path d="M136.219 28.6987C136.095 28.6996 135.975 28.6625 135.873 28.5927C135.771 28.5229 135.692 28.4235 135.647 28.308L134.922 26.4293C134.766 26.1239 134.529 25.8679 134.238 25.6895C133.947 25.5111 133.612 25.4172 133.271 25.418H129.224C128.844 25.4189 128.474 25.5364 128.162 25.7544C127.85 25.9725 127.612 26.281 127.479 26.639L127.056 28.2333C127.036 28.3109 127 28.3839 126.951 28.4476C126.903 28.5117 126.842 28.5651 126.773 28.6054C126.704 28.6459 126.627 28.672 126.548 28.6824C126.469 28.693 126.388 28.6878 126.311 28.6671C126.234 28.6464 126.161 28.6105 126.098 28.5614C126.034 28.5126 125.981 28.4517 125.941 28.3819C125.901 28.3123 125.875 28.2356 125.864 28.1558C125.854 28.0759 125.859 27.9949 125.88 27.9173L126.325 26.2483C126.539 25.647 126.932 25.127 127.451 24.7593C127.97 24.3916 128.589 24.1942 129.224 24.1942H133.271C133.845 24.1934 134.407 24.3546 134.893 24.6594C135.38 24.9639 135.772 25.3999 136.024 25.9179L136.047 25.9696L136.787 27.8656C136.823 27.959 136.836 28.0598 136.825 28.1595C136.814 28.2589 136.778 28.3543 136.722 28.437C136.666 28.5198 136.59 28.5873 136.502 28.6341C136.414 28.6806 136.315 28.7047 136.216 28.7045L136.219 28.6987Z" fill="#208062"/>
<path d="M148.256 29.3164L157.504 32.1434C158.393 32.4313 159.182 32.9688 159.778 33.6924C160.374 34.4161 160.751 35.296 160.866 36.2282L163.471 54.3756H158.204V74.5678H128.246V54.2518H118.181L118.773 36.5212C118.785 35.4405 119.149 34.3936 119.81 33.5407C120.47 32.6878 121.39 32.0759 122.428 31.7984L133.822 29.1526L148.256 29.3164Z" fill="#5ACAA8"/>
<g opacity="0.2">
<path opacity="0.2" d="M157.732 64.8407H128.313V65.2142H157.743L157.732 64.8407Z" fill="white"/>
<path opacity="0.2" d="M157.832 67.9059H128.313V68.2794H157.843L157.832 67.9059Z" fill="white"/>
<path opacity="0.2" d="M157.929 70.9683H128.313V71.3446H157.94L157.929 70.9683Z" fill="white"/>
<path opacity="0.2" d="M155.649 31.1319H129.861L129.812 31.5054H155.735L155.649 31.1319Z" fill="white"/>
<path opacity="0.2" d="M156.108 34.1972H129.455L129.406 34.5706H156.194L156.108 34.1972Z" fill="white"/>
<path opacity="0.2" d="M157.017 37.2595H129.07L129.019 37.6358H157.106L157.017 37.2595Z" fill="white"/>
<path opacity="0.2" d="M157.253 40.3247H128.657L128.606 40.701H157.341L157.253 40.3247Z" fill="white"/>
<path opacity="0.2" d="M157.737 43.3899H128.313V43.7634H157.749L157.737 43.3899Z" fill="white"/>
<path opacity="0.2" d="M157.926 46.4551H128.313V46.8286H157.937L157.926 46.4551Z" fill="white"/>
<path opacity="0.2" d="M158.029 49.5175H128.313V49.8938H158.04L158.029 49.5175Z" fill="white"/>
<path opacity="0.2" d="M158.114 52.5827H128.313V52.959H158.126L158.114 52.5827Z" fill="white"/>
<path opacity="0.2" d="M158.217 55.6479H128.313V56.0214H158.229L158.217 55.6479Z" fill="white"/>
<path opacity="0.2" d="M158.317 58.7103H128.313V59.0866H158.331L158.317 58.7103Z" fill="white"/>
<path opacity="0.2" d="M157.632 61.7755H128.313V62.1518H157.646L157.632 61.7755Z" fill="white"/>
<path opacity="0.2" d="M158.029 74.0335H128.313V74.4098H158.04L158.029 74.0335Z" fill="white"/>
</g>
<path d="M143.885 3.26342C144.789 2.89542 145.78 2.80206 146.736 2.99453C147.692 3.18701 148.571 3.65699 149.264 4.34645C151.72 6.7653 149.986 8.36828 152.151 9.57484C154.316 10.7814 152.722 14.0908 155.264 15.6076C157.806 17.1244 156.121 20.836 153.525 21.3675C153.525 21.3675 152.277 24.8147 149.526 24.4901C149.526 24.4901 146.993 27.4404 142.052 25.5645L140.235 24.7918L143.885 3.26342Z" fill="black"/>
<path d="M132.687 4.28039C132.687 4.28039 129.368 4.72566 128.726 7.78226C128.083 10.8389 128.317 10.1149 126.492 11.6691C124.667 13.2232 126.975 14.9842 125.53 16.5528C124.79 17.3456 124.433 17.9891 124.373 18.7447C124.329 19.383 124.504 20.0176 124.867 20.543C125.223 21.061 125.75 21.4356 126.355 21.6002C127.212 21.8472 127.88 22.6688 128.38 23.7921C129.371 26.0127 132.913 25.0475 132.913 25.0475C132.913 25.0475 136.257 27.0584 138.305 25.5674C140.353 24.0765 137.268 3.40421 137.268 3.40421L132.687 4.28039Z" fill="black"/>
<path d="M147.024 3.19162C147.024 3.19162 145.636 0 140.652 0C135.668 0 134.12 4.91526 134.12 4.91526L141.374 8.89115L147.024 3.19162Z" fill="black"/>
<path d="M148.422 20.7039C149.069 20.7039 149.593 20.1764 149.593 19.526C149.593 18.8757 149.069 18.3482 148.422 18.3482C147.775 18.3482 147.251 18.8757 147.251 19.526C147.251 20.1764 147.775 20.7039 148.422 20.7039Z" fill="#2CB289"/>
<path opacity="0.2" d="M148.421 18.3482C148.342 18.3479 148.264 18.3568 148.187 18.3741C148.449 18.4301 148.683 18.5749 148.851 18.784C149.02 18.9931 149.112 19.254 149.112 19.5232C149.112 19.7921 149.02 20.0529 148.851 20.262C148.683 20.4715 148.449 20.616 148.187 20.6723C148.264 20.6884 148.343 20.6961 148.421 20.6953C148.58 20.703 148.738 20.6786 148.887 20.6229C149.036 20.5674 149.172 20.4821 149.286 20.3721C149.401 20.262 149.493 20.1296 149.555 19.9828C149.618 19.8363 149.65 19.6783 149.65 19.5189C149.65 19.3591 149.618 19.2014 149.555 19.0546C149.493 18.9081 149.401 18.7757 149.286 18.6657C149.172 18.5556 149.036 18.4703 148.887 18.4146C148.738 18.3591 148.58 18.3344 148.421 18.3425V18.3482Z" fill="black"/>
<path d="M133.263 29.302C133.263 29.302 135.882 28.8768 135.565 27.3428L135.85 17.1216L144.856 15.2916L146.181 27.4433C146.227 27.8111 146.379 28.1566 146.619 28.4376C146.858 28.7188 147.175 28.9225 147.529 29.0233L148.854 29.4485L147.812 39.9312L133.263 29.302Z" fill="#FC9D9D"/>
<path d="M148.178 18.3999L147.867 10.1954C147.844 9.48178 147.549 8.8041 147.044 8.30223C146.803 8.06178 146.515 7.87362 146.199 7.75009C145.883 7.62656 145.544 7.56997 145.205 7.58405L137.456 7.95176C137.196 7.96296 136.941 8.02846 136.708 8.14423C136.47 8.26173 136.259 8.42576 136.085 8.62685C135.909 8.83254 135.773 9.07041 135.686 9.3278C135.596 9.58807 135.555 9.86271 135.566 10.1379L135.903 18.9601C135.936 19.7829 136.121 20.5921 136.448 21.3474C136.77 22.0903 137.231 22.7633 137.808 23.3296C138.373 23.8829 139.043 24.3166 139.778 24.6051C140.506 24.8869 141.284 25.0141 142.063 24.9785L142.515 24.9498C143.299 24.9064 144.067 24.7033 144.772 24.3528C145.476 24.0023 146.103 23.5114 146.613 22.9101C147.685 21.657 148.247 20.0431 148.187 18.3913L148.178 18.3999Z" fill="#FC9D9D"/>
<path d="M141.993 17.0526C142.128 17.0532 142.26 17.0132 142.372 16.9386C142.484 16.8636 142.572 16.7567 142.623 16.6317C142.675 16.5068 142.689 16.3689 142.663 16.2362C142.637 16.1032 142.572 15.9811 142.477 15.8854C142.381 15.7895 142.26 15.7242 142.128 15.6981C141.996 15.6717 141.859 15.6855 141.735 15.7377C141.61 15.7897 141.504 15.8779 141.43 15.9908C141.355 16.1037 141.316 16.2362 141.316 16.3718C141.316 16.5522 141.388 16.7254 141.515 16.8529C141.641 16.9808 141.814 17.0526 141.993 17.0526Z" fill="black"/>
<path d="M142.276 16.636C142.304 16.6355 142.33 16.6266 142.353 16.6108C142.376 16.595 142.393 16.5728 142.403 16.547C142.413 16.5214 142.416 16.493 142.41 16.466C142.404 16.439 142.391 16.414 142.371 16.3947C142.352 16.3752 142.327 16.3623 142.3 16.3568C142.272 16.3516 142.244 16.3548 142.219 16.3654C142.194 16.3761 142.172 16.3942 142.157 16.4171C142.141 16.4404 142.133 16.4674 142.133 16.4953C142.133 16.514 142.137 16.5323 142.144 16.5496C142.151 16.5671 142.162 16.5826 142.175 16.5958C142.188 16.6087 142.204 16.6191 142.222 16.626C142.239 16.6329 142.258 16.6363 142.276 16.636Z" fill="white"/>
<path d="M147.271 17.0526C147.405 17.0532 147.537 17.0132 147.649 16.9386C147.762 16.8636 147.849 16.7567 147.901 16.6317C147.953 16.5068 147.966 16.3689 147.94 16.2362C147.914 16.1032 147.849 15.9811 147.754 15.8854C147.659 15.7895 147.538 15.7242 147.405 15.6981C147.273 15.6717 147.136 15.6855 147.012 15.7377C146.888 15.7897 146.782 15.8779 146.707 15.9908C146.633 16.1037 146.593 16.2362 146.594 16.3718C146.594 16.5522 146.665 16.7254 146.792 16.8529C146.919 16.9808 147.091 17.0526 147.271 17.0526Z" fill="black"/>
<path d="M147.553 16.6102C147.59 16.6096 147.626 16.5941 147.652 16.5671C147.678 16.5404 147.693 16.5042 147.693 16.4666C147.693 16.4287 147.678 16.3922 147.651 16.3652C147.624 16.3382 147.588 16.3229 147.55 16.3229C147.512 16.3229 147.476 16.3382 147.449 16.3652C147.422 16.3922 147.407 16.4287 147.407 16.4666C147.407 16.4858 147.411 16.5048 147.418 16.5223C147.426 16.5398 147.436 16.5559 147.45 16.5691C147.463 16.5826 147.479 16.5933 147.497 16.6002C147.515 16.6073 147.534 16.6108 147.553 16.6102Z" fill="white"/>
<path opacity="0.15" d="M135.737 21.3819L136.751 19.3365H135.791L135.737 21.3819Z" fill="black"/>
<g opacity="0.15">
<path opacity="0.15" d="M145.756 18.3855C145.735 18.1721 145.632 17.9753 145.468 17.8374C145.305 17.6995 145.094 17.6312 144.882 17.6472C144.833 17.6584 144.79 17.6883 144.762 17.7306C144.734 17.7716 144.721 17.8216 144.728 17.8713C144.736 17.9213 144.761 17.967 144.799 18.0006C144.838 18.0313 144.887 18.0466 144.936 18.0437C145.041 18.0491 145.142 18.0896 145.222 18.1586C145.306 18.2324 145.36 18.3347 145.373 18.4459C145.379 18.4996 145.374 18.5539 145.359 18.6056C145.344 18.6576 145.319 18.7056 145.285 18.7475C145.25 18.7912 145.206 18.8271 145.157 18.8532C145.108 18.8794 145.055 18.8952 144.999 18.8998L144.097 18.9859C144.048 18.9971 144.005 19.0259 143.977 19.0664C143.948 19.1083 143.937 19.1597 143.945 19.21C143.951 19.2591 143.976 19.3042 144.014 19.3364C144.053 19.3686 144.103 19.385 144.154 19.3824L145.056 19.2962C145.164 19.2928 145.271 19.2652 145.368 19.2158C145.463 19.1652 145.546 19.0937 145.61 19.0061C145.675 18.9216 145.72 18.8233 145.742 18.7188C145.767 18.6122 145.767 18.5007 145.742 18.3942L145.756 18.3855Z" fill="black"/>
</g>
<path d="M136.729 19.3077L136.052 16.0701C135.289 13.1198 131.676 13.9701 132.553 16.8946C133.43 19.8191 136.392 19.3077 136.392 19.3077H136.729Z" fill="#FC9D9D"/>
<path opacity="0.15" d="M133.251 15.5128C133.287 15.5504 133.334 15.574 133.386 15.5789C133.438 15.5846 133.49 15.5714 133.534 15.5415C133.605 15.4568 133.697 15.3916 133.8 15.3519C133.902 15.3117 134.013 15.2979 134.123 15.3117C134.232 15.3261 134.336 15.3674 134.425 15.4324C134.514 15.4967 134.586 15.5829 134.634 15.6823C134.819 15.963 134.936 16.2841 134.974 16.6188L135.031 16.9607C135.057 17.2479 135.454 17.1302 135.425 16.9032L135.396 16.5901C135.365 16.175 135.219 15.7768 134.974 15.441C134.891 15.3054 134.78 15.1896 134.648 15.102C134.516 15.0135 134.367 14.9546 134.211 14.9296C134.051 14.919 133.891 14.9406 133.74 14.9928C133.59 15.0471 133.453 15.1322 133.337 15.2428C133.299 15.2712 133.269 15.31 133.251 15.3548C133.237 15.4016 133.237 15.4516 133.251 15.4984V15.5128Z" fill="black"/>
<path d="M147.25 13.5019C146.879 13.5381 146.519 13.6544 146.197 13.8435C145.874 14.0325 145.597 14.2893 145.382 14.5964C144.877 14.4241 144.328 14.4332 143.828 14.6223C143.589 14.2244 143.244 13.9009 142.832 13.6886C142.42 13.4758 141.956 13.3841 141.495 13.4243C140.872 13.47 140.288 13.7478 139.858 14.2037C139.428 14.6593 139.183 15.26 139.17 15.8883C139.157 16.5163 139.378 17.1267 139.789 17.5999C140.2 18.073 140.772 18.3746 141.392 18.4459C141.883 18.5025 142.379 18.4137 142.82 18.1902C143.262 17.9636 143.627 17.6105 143.87 17.1756C144.113 16.7406 144.223 16.2431 144.185 15.7455C144.156 15.4666 144.086 15.1937 143.977 14.9354C144.38 14.8035 144.814 14.7946 145.222 14.9095C145.05 15.258 144.96 15.6421 144.96 16.0313C144.96 16.4209 145.05 16.805 145.222 17.1532C145.393 17.5022 145.641 17.807 145.948 18.0437C146.254 18.2804 146.611 18.4427 146.99 18.5177C147.37 18.5938 147.761 18.5801 148.134 18.4778C148.507 18.3758 148.852 18.1879 149.141 17.9288C149.43 17.6705 149.656 17.3482 149.8 16.9874C149.945 16.6266 150.005 16.237 149.975 15.8489C149.914 15.179 149.597 14.5588 149.089 14.1204C148.581 13.6823 147.923 13.4605 147.256 13.5019H147.25ZM141.903 18.1155C141.365 18.1606 140.829 18.0015 140.4 17.67C139.972 17.3382 139.682 16.8575 139.587 16.3221C139.492 15.7866 139.6 15.235 139.888 14.7751C140.177 14.3152 140.625 13.9799 141.146 13.8351C141.559 13.7202 141.996 13.7306 142.402 13.8644C142.809 13.9983 143.167 14.25 143.431 14.5878C143.674 14.8989 143.828 15.2701 143.877 15.6619C143.926 16.0538 143.869 16.4519 143.711 16.8139C143.554 17.1756 143.302 17.4878 142.982 17.7171C142.662 17.9463 142.286 18.0839 141.895 18.1155H141.903ZM147.616 18.219C147.297 18.2437 146.978 18.1971 146.68 18.0828C146.381 17.9687 146.112 17.7898 145.89 17.5585C145.669 17.3275 145.501 17.05 145.398 16.7461C145.295 16.4422 145.261 16.1193 145.296 15.8001C145.345 15.37 145.521 14.9647 145.802 14.6366C146.081 14.308 146.45 14.0701 146.864 13.9535C147.277 13.8369 147.716 13.8466 148.124 13.9817C148.533 14.1144 148.894 14.3675 149.158 14.7085C149.4 15.0187 149.555 15.389 149.604 15.78C149.654 16.1713 149.598 16.5686 149.441 16.9302C149.284 17.2916 149.033 17.6036 148.714 17.8331C148.396 18.0627 148.021 18.2008 147.63 18.2333L147.616 18.219Z" fill="#F4F4F4"/>
<path opacity="0.15" d="M146.055 25.8547C144.439 26.2684 142.913 26.142 141.58 25.1279C141.048 25.0704 138.221 24.5246 138.761 23.8553C139.854 24.4252 141.073 24.7073 142.304 24.6746C143.536 24.6421 144.739 24.2957 145.801 23.6685L146.055 25.8547Z" fill="black"/>
<path d="M142.313 20.3591C142.201 20.3591 142.173 20.4424 142.201 20.5286C142.36 20.8596 142.608 21.1391 142.918 21.3344C143.227 21.5301 143.585 21.6335 143.951 21.6335C144.316 21.6335 144.674 21.5301 144.983 21.3344C145.293 21.1391 145.541 20.8596 145.7 20.5286C145.706 20.5099 145.706 20.4898 145.7 20.4712C145.698 20.4508 145.691 20.4312 145.68 20.4137C145.669 20.3976 145.654 20.3838 145.637 20.3735C145.619 20.3646 145.6 20.3594 145.58 20.3591H142.313Z" fill="white"/>
<path d="M177 180.469C174.913 179.343 165.782 177.774 164.719 175.051H164.639L162.925 139.23H152.169L158.033 176.191C158.199 179.351 158.318 181.718 158.318 181.718C158.401 185.025 162.708 182.692 164.125 182.796L177.092 183.37C177.286 182.974 177.609 180.747 177 180.469Z" fill="#FC9D9D"/>
<path d="M126.915 181.27H136.782V182.936C136.782 183.028 136.753 183.12 136.698 183.192C136.643 183.267 136.565 183.321 136.477 183.347C133.453 184.218 130.247 184.218 127.223 183.347C127.135 183.321 127.057 183.267 127.002 183.192C126.947 183.12 126.917 183.028 126.917 182.936L126.915 181.27Z" fill="black"/>
<path d="M137.3 149.406L127.932 149.308L129.103 172.365C129.146 173.264 129.071 174.163 128.88 175.042L128.286 177.745H135.872L135.495 174.827C135.399 174.091 135.385 173.344 135.452 172.606L137.3 149.406Z" fill="#FC9D9D"/>
<path opacity="0.15" d="M128.286 177.748H129.805C130.896 175.163 130.351 171.715 130.351 171.715V149.331L127.943 149.308L129.102 172.365C129.146 173.264 129.071 174.163 128.88 175.042L128.286 177.748Z" fill="black"/>
<path d="M128.394 177.559C127.848 178.544 127.38 179.57 126.997 180.63H136.708C136.708 180.63 136.288 179.047 135.794 177.559L135.331 177.441C133.049 176.866 130.656 176.906 128.394 177.559Z" fill="black"/>
<path d="M135.056 179.917C135.056 179.917 133.576 179.739 131.86 179.676C130.146 179.739 128.663 179.917 128.663 179.917C126.69 180.13 126.936 181.391 126.936 181.391C126.936 181.759 128.549 181.914 129.883 181.965C130.543 181.997 131.205 182.003 131.865 181.983C132.525 181.962 133.188 181.983 133.847 181.965C135.181 181.902 136.795 181.747 136.795 181.391C136.783 181.391 137.029 180.121 135.056 179.917Z" fill="#FC9D9D"/>
<path d="M135.563 171.715L128.865 171.727L128.869 174.223L135.567 174.212L135.563 171.715Z" fill="black"/>
<path opacity="0.15" d="M160.002 176.838L157.043 151.888L153.765 149.302L158.032 176.197C158.18 179.021 158.294 181.193 158.317 181.635H164.335C161.533 181.603 160.002 176.838 160.002 176.838Z" fill="black"/>
<path d="M146.725 5.55878C146.725 5.55878 146.396 8.87967 142.669 9.41974C138.862 9.95982 139.684 12.1977 135.046 11.6605C135.046 11.6605 133.372 9.22439 135.854 6.71074C137.494 5.04742 140.71 3.66276 142.995 3.89258C143.78 3.97014 145.617 5.3347 146.725 5.55878Z" fill="black"/>
<path d="M146.24 5.79431C146.24 5.79431 143.869 8.19305 150.438 12.5424C150.586 11.5981 150.437 10.6311 150.013 9.77593C149.296 8.3769 146.24 5.79431 146.24 5.79431Z" fill="black"/>
<path opacity="0.2" d="M158.228 54.0076L157.748 41.2698C157.745 41.2176 157.753 41.1653 157.77 41.1159C157.787 41.0665 157.815 41.0214 157.85 40.9826C157.885 40.9441 157.927 40.9131 157.975 40.8912C158.022 40.8694 158.073 40.8576 158.125 40.8562C158.215 40.8585 158.301 40.8921 158.368 40.9513C158.435 41.0107 158.48 41.0917 158.494 41.1808L160.779 54.0076H158.228Z" fill="black"/>
<path d="M135.648 20.7039C136.294 20.7039 136.819 20.1764 136.819 19.526C136.819 18.8757 136.294 18.3482 135.648 18.3482C135.001 18.3482 134.477 18.8757 134.477 19.526C134.477 20.1764 135.001 20.7039 135.648 20.7039Z" fill="#2CB289"/>
<path opacity="0.2" d="M135.647 18.3482C135.569 18.3479 135.49 18.3565 135.413 18.3741C135.675 18.4301 135.909 18.5749 136.078 18.784C136.246 18.9931 136.338 19.254 136.338 19.5232C136.338 19.7921 136.246 20.0529 136.078 20.262C135.909 20.4712 135.675 20.616 135.413 20.6723C135.49 20.6886 135.569 20.6964 135.647 20.6952C135.947 20.6803 136.231 20.5499 136.438 20.3307C136.645 20.1118 136.761 19.8211 136.761 19.5189C136.761 19.2164 136.645 18.9256 136.438 18.7067C136.231 18.4878 135.947 18.3574 135.647 18.3425V18.3482Z" fill="black"/>
<path d="M162.819 44.0852H156.847C156.741 44.084 156.637 44.1099 156.544 44.1601C156.452 44.2104 156.373 44.2834 156.316 44.3724L152.249 55.4153C152.225 55.4529 152.211 55.496 152.21 55.5402C152.208 55.5848 152.218 55.6287 152.238 55.6681C152.259 55.7074 152.289 55.7407 152.327 55.7643C152.364 55.7881 152.407 55.8014 152.451 55.8031L158.946 56.053L163.036 44.4615C163.057 44.4233 163.068 44.3799 163.068 44.336C163.068 44.2923 163.056 44.2492 163.034 44.211C163.012 44.1731 162.981 44.1415 162.943 44.1193C162.905 44.0975 162.862 44.0855 162.819 44.0852Z" fill="#21252B"/>
<path opacity="0.2" d="M162.819 44.0851H156.638C156.596 44.0851 156.555 44.0955 156.518 44.1156C156.481 44.1357 156.45 44.1647 156.427 44.2L152.249 55.421C152.225 55.4586 152.211 55.5017 152.21 55.5459C152.208 55.5905 152.218 55.6344 152.238 55.6738C152.259 55.7131 152.289 55.7465 152.327 55.77C152.364 55.7939 152.407 55.8071 152.451 55.8088L158.946 56.0587L163.036 44.4672C163.059 44.4287 163.071 44.3848 163.071 44.3402C163.072 44.2954 163.06 44.2515 163.038 44.2124C163.016 44.1736 162.984 44.1414 162.946 44.119C162.907 44.0966 162.863 44.0848 162.819 44.0851Z" fill="black"/>
<path d="M163.004 44.4816H157.046C156.966 44.4822 156.887 44.5031 156.816 44.5422C156.746 44.5813 156.687 44.6376 156.643 44.7057L152.542 55.7916L158.865 56.1909L163.004 44.4816Z" fill="#21252B"/>
<path d="M128.115 74.5965C128.115 74.5965 124.854 94.7058 125.83 109.831L127.973 168.374H136.678L142.305 91.7612C142.336 91.0401 142.65 90.4713 143.367 90.4713C143.694 90.4716 144.009 90.5914 144.254 90.8089C144.499 91.0263 144.657 91.326 144.698 91.652L156.151 168.374H165.005L158.319 74.5965H128.115Z" fill="#333131"/>
<path d="M132.593 29.1641C132.593 29.1641 141.558 45.4092 143.783 57.6643C143.783 57.6643 146.162 63.6687 127.863 72.8069V71.6089C127.863 71.6089 138.019 63.8927 140.501 60.6753L140.13 56.978C140.13 56.978 135.8 40.1409 128.705 30.1351L132.593 29.1641Z" fill="black"/>
<path d="M177.649 183.137C177.58 183.313 177.46 183.465 177.304 183.571C177.148 183.677 176.964 183.735 176.775 183.735L165.865 183.787C165.676 183.79 165.491 183.732 165.334 183.629C165.177 183.522 165.056 183.37 164.985 183.195L164.911 183.002C164.9 182.974 164.882 182.948 164.858 182.931C164.833 182.913 164.805 182.902 164.774 182.899C164.744 182.899 164.714 182.905 164.688 182.919C164.661 182.933 164.64 182.956 164.625 182.982L164.44 183.318C164.356 183.468 164.233 183.591 164.085 183.675C163.937 183.758 163.77 183.801 163.6 183.795L158.613 183.709C158.372 183.706 158.142 183.611 157.97 183.442C157.799 183.272 157.699 183.04 157.693 182.798L157.676 181.721L178.006 181.934C177.925 182.345 177.806 182.75 177.649 183.137Z" fill="black"/>
<path d="M172.695 181.879C172.906 180.73 174.194 179.538 174.194 179.538L171.107 178.446C169.964 179.308 169.248 181.876 169.248 181.876L172.695 181.879Z" fill="black"/>
<path d="M165.149 171.77L157.234 172.187L157.365 174.68L165.28 174.261L165.149 171.77Z" fill="black"/>
<path d="M158.386 174.557L161.693 181.963H157.92L157.569 174.493L158.386 174.557Z" fill="black"/>
<path opacity="0.3" d="M143.6 90.4713H143.649C143.975 90.4713 144.291 90.5914 144.536 90.8089C144.781 91.0261 144.939 91.326 144.98 91.652L155.993 168.374H158.764L149.164 93.0769C149.095 92.4478 148.863 91.8482 148.49 91.3386C148.116 90.829 147.616 90.4277 147.039 90.1755C145.274 89.4372 143.6 90.4713 143.6 90.4713Z" fill="black"/>
<path opacity="0.3" d="M129.701 104.281C129.561 99.6382 130.335 80.8045 132.557 74.6023H128.115C128.115 74.6023 124.854 94.7115 125.83 109.836L127.804 168.38H130.118L129.783 110.454C129.787 108.39 129.76 106.332 129.701 104.281Z" fill="black"/>
<path d="M160.122 52.0254C160.176 51.9915 160.216 51.9392 160.235 51.8777C160.253 51.8165 160.249 51.7504 160.222 51.6921L159.862 50.0463L158.434 47.3227C158.38 47.1788 158.38 47.0193 158.436 46.8757C158.491 46.7318 158.598 46.6137 158.734 46.5445C158.851 46.4859 158.985 46.4724 159.112 46.5062C159.238 46.5399 159.348 46.6189 159.42 46.728L161.465 49.5809L162.388 52.5999C161.465 55.3836 158.234 57.4836 158.234 57.4836H157.409C156.899 57.481 156.401 57.3239 155.981 57.0328L154.196 55.7889C153.824 55.5318 153.528 55.1785 153.339 54.7662L152.399 52.7177C152.354 52.618 152.339 52.5066 152.358 52.3983C152.377 52.2899 152.428 52.19 152.505 52.1118C152.559 52.0581 152.624 52.0168 152.695 51.9903C152.766 51.9636 152.842 51.9524 152.918 51.9573C152.994 51.9622 153.067 51.9828 153.135 52.0185C153.202 52.0541 153.261 52.1035 153.308 52.1635L154.55 53.772L156.033 55.0475C156.071 55.0814 156.119 55.1032 156.17 55.1098C156.221 55.1164 156.272 55.1078 156.318 55.0848L156.347 55.0705C156.381 55.0535 156.411 55.0288 156.435 54.9987C156.459 54.9685 156.476 54.9334 156.485 54.8958C156.494 54.8585 156.495 54.8194 156.487 54.7815C156.479 54.7438 156.464 54.7082 156.441 54.6772L154.779 52.379L153.799 49.8162C153.751 49.6918 153.751 49.554 153.799 49.4296C153.847 49.3052 153.94 49.2032 154.059 49.144L154.116 49.1153C154.234 49.0558 154.37 49.0423 154.498 49.0774C154.625 49.1124 154.735 49.1934 154.807 49.3049L156.164 51.4508L157.877 52.9564C157.916 52.99 157.964 53.0119 158.015 53.0185C158.066 53.0251 158.117 53.0165 158.163 52.9935L158.22 52.9648C158.252 52.9492 158.281 52.9271 158.304 52.8998C158.327 52.8728 158.344 52.8412 158.355 52.807C158.366 52.7728 158.37 52.7369 158.366 52.7013C158.362 52.666 158.352 52.6312 158.335 52.5999L157.312 50.7527L155.778 48.6301C155.695 48.5157 155.661 48.3733 155.681 48.2334C155.702 48.0937 155.777 47.9676 155.89 47.8829C156.031 47.7763 156.204 47.7226 156.381 47.7309C156.557 47.7392 156.725 47.8093 156.855 47.9291L158.697 49.8248L159.746 51.9309C159.762 51.9639 159.784 51.9935 159.813 52.0173C159.841 52.0409 159.873 52.0584 159.909 52.0685C159.944 52.0785 159.981 52.0808 160.018 52.0753C160.054 52.0699 160.089 52.057 160.12 52.0371L160.122 52.0254Z" fill="#FC9D9D"/>
<path d="M163.348 55.866V49.7097L162.38 47.5497L162.094 49.302L161.808 51.0516C161.357 50.9338 162.174 51.1377 161.046 51.9134C159.918 52.689 156.584 57.1849 156.584 57.1849C157.108 57.5112 157.65 57.8074 158.207 58.0725C158.207 58.0725 157.293 61.764 157.007 63.0998C156.722 64.4357 156.422 68.4084 158.221 68.9571C161.745 70.0344 163.162 67.521 163.728 65.3377C164.05 64.0639 164.137 62.7413 163.982 61.4362L163.348 55.866Z" fill="#FC9D9D"/>
<path opacity="0.15" d="M152.529 51.9277C152.443 52.0133 152.384 52.1236 152.361 52.2437C152.338 52.3638 152.352 52.4879 152.401 52.5999C152.749 53.4129 153.592 55.2687 154.268 55.7226L156.882 57.4721C156.882 57.4721 158.333 58.0467 158.213 58.0697C158.213 58.0697 157.287 61.7496 156.999 63.0998C156.71 64.45 156.413 68.4086 158.213 68.9573C160.975 69.8019 162.443 68.4403 163.22 66.7597C154.937 70.4627 159.155 58.0984 159.155 58.0984L157.416 57.0383C157.253 56.9378 157.093 56.8344 156.936 56.7223L154.5 54.9987C154.348 54.8895 154.22 54.7508 154.123 54.5908L152.529 51.9162V51.9277Z" fill="black"/>
<path opacity="0.2" d="M128.114 74.3179H132.007L129.816 42.5741C129.808 42.444 129.751 42.3222 129.657 42.2328C129.563 42.1438 129.438 42.0941 129.308 42.0943C129.173 42.0943 129.044 42.1483 128.949 42.2443C128.853 42.34 128.8 42.4701 128.8 42.6057V54.2518H127.657L128.114 74.3179Z" fill="black"/>
<path opacity="0.2" d="M120.164 37.2566C120.164 33.5221 122.503 31.7984 122.503 31.7984L122.488 31.7812L122.42 31.7984C121.381 32.0756 120.461 32.6875 119.801 33.5405C119.141 34.3934 118.777 35.4405 118.764 36.5212L118.173 54.2518H120.172L120.164 37.2566Z" fill="black"/>
<path d="M138.375 63.1803H141.877C142.07 63.1906 142.263 63.1693 142.448 63.1171L145.11 62.373C145.363 62.3035 145.582 62.1443 145.727 61.9249C145.897 61.6795 145.977 61.3825 145.953 61.0846C145.93 60.7864 145.805 60.5057 145.599 60.2903C145.599 60.2903 146.141 59.5663 145.419 58.6586C145.419 58.6586 146.141 57.7536 145.239 57.0268C145.239 57.0268 145.524 55.849 144.608 55.4842L140.632 55.444C140.161 55.4707 139.711 55.6468 139.347 55.9467L136.933 57.9346" fill="#FC9D9D"/>
<path d="M137.407 57.6071L128.267 59.4686V54.1943H119.03C119.03 54.1943 118.956 58.4143 118.382 66.0329C118.346 66.5077 118.413 66.9843 118.578 67.4307C118.742 67.8769 119.001 68.2822 119.336 68.6183C119.731 69.0153 120.216 69.3092 120.75 69.4744C121.283 69.6396 121.849 69.6712 122.398 69.5663C126.293 68.8165 124.491 68.9918 138.372 63.1659" fill="#FC9D9D"/>
<path opacity="0.15" d="M128.447 54.3092L127.59 54.0794L127.244 59.1182C123.78 60.049 123.246 60.6838 123.246 60.6838C123.246 60.6838 123.04 60.5115 128.47 59.4917L128.447 54.3092Z" fill="black"/>
<path opacity="0.15" d="M143.514 57.1045L145.136 56.9206" stroke="black" stroke-width="0.95" stroke-miterlimit="10" stroke-linecap="round"/>
<path opacity="0.15" d="M143.785 58.8252L145.407 58.6443" stroke="black" stroke-width="0.95" stroke-miterlimit="10" stroke-linecap="round"/>
<path opacity="0.15" d="M143.967 60.4598L145.59 60.2759" stroke="black" stroke-width="0.95" stroke-miterlimit="10" stroke-linecap="round"/>
<path opacity="0.15" d="M138.384 63.1803C127.862 67.6876 125.7 68.9804 122.586 69.4687C121.158 69.6957 119.685 69.3969 118.874 67.9979C118.581 67.4897 118.42 66.9157 118.405 66.3288C118.4 66.0852 118.419 65.8416 118.462 65.602L118.548 63.6342C118.548 63.6342 118.457 67.5296 121.69 68.1789C122.179 68.2906 122.686 68.2967 123.178 68.1961C127.876 67.1045 133.371 64.1944 138.03 62.4334L138.115 62.3644H141.723L143.605 62.1662C143.914 62.1326 144.199 61.9798 144.398 61.7399C144.598 61.4997 144.697 61.1912 144.676 60.8792C144.665 60.7376 144.642 60.5971 144.607 60.4598C144.607 60.4598 145.059 59.371 144.336 58.8252C144.336 58.8252 144.696 58.1013 144.156 57.1016C144.257 56.8333 144.293 56.5445 144.262 56.2596C144.231 55.9743 144.133 55.7008 143.976 55.4612H144.607C145.51 55.8261 145.238 57.0039 145.238 57.0039C146.141 57.7307 145.418 58.6356 145.418 58.6356C146.141 59.5434 145.598 60.2673 145.598 60.2673C145.804 60.4828 145.93 60.7635 145.953 61.0614C145.976 61.3596 145.896 61.6563 145.727 61.9019C145.581 62.1211 145.362 62.2803 145.11 62.3501L142.439 63.1027C142.254 63.1547 142.061 63.1763 141.868 63.1659H138.367" fill="black"/>
<path opacity="0.6" d="M59.2873 66.5416L78.095 51.8177C79.2889 50.8683 80.2499 49.6589 80.9063 48.2815C81.5627 46.9038 81.8961 45.3947 81.8817 43.8688V15.1005H54.678L54.6369 15.8624V15.1005H27.4131V43.8688C27.3983 45.3947 27.7316 46.9038 28.3878 48.2815C29.0438 49.6589 30.0054 50.8683 31.1993 51.8177L50.0275 66.5416C50.4216 66.8579 50.7391 67.2595 50.9566 67.7158C51.1739 68.1722 51.2854 68.672 51.2828 69.1775C51.2838 69.68 51.1714 70.1761 50.9541 70.6289C50.7368 71.0817 50.42 71.4796 50.0275 71.7928L31.1993 86.5168C30.0054 87.4661 29.0438 88.6755 28.3878 90.053C27.7316 91.4306 27.3983 92.9397 27.4131 94.4656V123.234H54.6369V122.493L54.678 123.255H81.8817V94.4656C81.8817 91.3355 80.4824 88.3701 78.095 86.5168L59.2873 71.7928C58.8914 71.4827 58.5721 71.0855 58.3546 70.632C58.1369 70.1783 58.0266 69.6806 58.0321 69.1775C58.0249 68.6711 58.1344 68.1699 58.3521 67.7127C58.5698 67.2556 58.8898 66.8548 59.2873 66.5416Z" fill="#ABE3D2"/>
<g opacity="0.4">
<path d="M58.3614 67.6948C58.5663 67.2432 58.8768 66.8476 59.2668 66.5416L71.7366 56.8012C72.8511 55.1154 73.4449 53.1387 73.4445 51.1175V15.1005H54.678L54.6369 15.8624V15.1005H27.4131V43.8688C27.3983 45.3947 27.7316 46.9038 28.3878 48.2815C29.0438 49.6589 30.0054 50.8683 31.1993 51.8177L50.0275 66.5416C50.4216 66.8579 50.7391 67.2595 50.9566 67.7158C51.1739 68.1722 51.2854 68.672 51.2828 69.1775C51.2817 69.6855 51.162 70.1864 50.9329 70.6396C50.728 71.0912 50.4175 71.4868 50.0275 71.7928L31.1993 86.5168C30.3863 87.158 29.6782 87.9222 29.1004 88.782C27.9933 90.47 27.4065 92.4465 27.4131 94.4656V123.234H54.6369V122.493L54.678 123.255H73.4445L73.4034 91.4591C73.4034 86.2079 72.9507 82.5217 69.8641 80.1124L59.2873 71.7928C57.3736 70.2072 58.2379 68.0037 58.2379 68.0037C58.2609 67.8944 58.3027 67.79 58.3614 67.6948Z" fill="#2FBF93"/>
<path d="M58.3614 67.6948C58.5663 67.2432 58.8768 66.8476 59.2668 66.5416L71.7366 56.8012C72.8511 55.1154 73.4449 53.1387 73.4445 51.1175V15.1005H54.678L54.6369 15.8624V15.1005H27.4131V43.8688C27.3983 45.3947 27.7316 46.9038 28.3878 48.2815C29.0438 49.6589 30.0054 50.8683 31.1993 51.8177L50.0275 66.5416C50.4216 66.8579 50.7391 67.2595 50.9566 67.7158C51.1739 68.1722 51.2854 68.672 51.2828 69.1775C51.2817 69.6855 51.162 70.1864 50.9329 70.6396C50.728 71.0912 50.4175 71.4868 50.0275 71.7928L31.1993 86.5168C30.3863 87.158 29.6782 87.9222 29.1004 88.782C27.9933 90.47 27.4065 92.4465 27.4131 94.4656V123.234H54.6369V122.493L54.678 123.255H73.4445L73.4034 91.4591C73.4034 86.2079 72.9507 82.5217 69.8641 80.1124L59.2873 71.7928C57.3736 70.2072 58.2379 68.0037 58.2379 68.0037C58.2609 67.8944 58.3027 67.79 58.3614 67.6948Z" fill="#79D5B9"/>
</g>
<path opacity="0.5" d="M74.5765 27.1679C69.5967 27.1679 64.9874 32.7074 54.6164 35.1374C49.2046 36.5789 42.4552 36.373 34.2243 34.7667C33.7609 34.679 33.2839 34.6944 32.8271 34.812C32.3705 34.9298 31.9451 35.1469 31.5818 35.4475C31.2184 35.7484 30.9255 36.1257 30.7243 36.5526C30.5231 36.9794 30.4183 37.4455 30.4175 37.9175V43.6629C30.4165 44.8103 30.6774 45.9431 31.1801 46.9744C31.683 48.0057 32.4145 48.9087 33.3189 49.6142C46.7147 60.1784 47.6819 60.4049 52.1677 64.0911C52.5276 64.3989 52.8167 64.7809 53.0157 65.2111C53.2145 65.6411 53.3184 66.109 53.3201 66.5828V106.286C53.3244 108.879 52.3124 111.371 50.501 113.226L44.7393 120.598L42.6816 123.234H66.6542L58.3409 112.855C56.9098 111.359 56.1132 109.366 56.1186 107.295V66.8917C56.1204 66.4199 56.2223 65.9537 56.4174 65.5243C56.6124 65.0948 56.8964 64.7115 57.2503 64.4C61.7362 60.6109 56.8388 65.0178 75.9757 49.6966C76.8616 48.9829 77.5764 48.0799 78.0678 47.0535C78.5592 46.0272 78.8148 44.9038 78.8154 43.7659V31.9249C78.836 29.6391 77.91 27.1679 74.5765 27.1679Z" fill="#208062"/>
<path d="M87.2519 129H29.6967C28.1945 129 26.9805 127.723 26.9805 126.117C26.9805 124.531 28.1945 123.234 29.6967 123.234H87.2519C88.754 123.234 89.9886 124.531 89.9886 126.117C89.9886 127.723 88.754 129 87.2519 129Z" fill="#666262"/>
<path d="M83.61 129H26.0551C24.5529 129 23.3389 127.723 23.3389 126.117C23.3389 124.531 24.5529 123.234 26.0551 123.234H83.61C85.1122 123.234 86.3262 124.531 86.3262 126.117C86.3262 127.723 85.1122 129 83.61 129Z" fill="#333131"/>
<path d="M87.2519 18.766H29.6967C28.1945 18.766 26.9805 17.4687 26.9805 15.883C26.9805 14.2974 28.1945 13 29.6967 13H87.2519C88.754 13 89.9886 14.2974 89.9886 15.883C89.9886 17.4687 88.754 18.766 87.2519 18.766Z" fill="#666262"/>
<path d="M83.61 18.766H26.0551C24.5529 18.766 23.3389 17.4687 23.3389 15.883C23.3389 14.2974 24.5529 13 26.0551 13H83.61C85.1122 13 86.3262 14.2974 86.3262 15.883C86.3262 17.4687 85.1122 18.766 83.61 18.766Z" fill="#333131"/>
</svg>
