<svg width="180" height="144" viewBox="0 0 180 144" fill="none" xmlns="http://www.w3.org/2000/svg">
<rect x="30" width="150" height="144" rx="5" fill="#2CB289"/>
<path opacity="0.6" d="M35.9485 67.5416L54.7562 52.8177C55.9501 51.8683 56.911 50.6589 57.5674 49.2815C58.2238 47.9038 58.5572 46.3947 58.5428 44.8688V16.1005H31.3392L31.298 16.8624V16.1005H4.0742V44.8688C4.05939 46.3947 4.39274 47.9038 5.04895 49.2815C5.70496 50.6589 6.66653 51.8683 7.86042 52.8177L26.6887 67.5416C27.0827 67.8579 27.4002 68.2595 27.6177 68.7158C27.835 69.1722 27.9466 69.672 27.9439 70.1775C27.9449 70.68 27.8326 71.1761 27.6153 71.6289C27.398 72.0817 27.0811 72.4796 26.6887 72.7928L7.86042 87.5168C6.66653 88.4661 5.70496 89.6755 5.04895 91.053C4.39274 92.4306 4.05939 93.9397 4.0742 95.4656V124.234H31.298V123.493L31.3392 124.255H58.5428V95.4656C58.5428 92.3355 57.1435 89.3701 54.7562 87.5168L35.9485 72.7928C35.5526 72.4827 35.2332 72.0855 35.0157 71.632C34.798 71.1783 34.6877 70.6806 34.6933 70.1775C34.6861 69.6711 34.7955 69.1699 35.0132 68.7127C35.2309 68.2556 35.5509 67.8548 35.9485 67.5416Z" fill="#ABE3D2"/>
<g opacity="0.4">
<path d="M35.0225 68.6948C35.2274 68.2432 35.538 67.8476 35.9279 67.5416L48.3977 57.8012C49.5122 56.1154 50.1061 54.1387 50.1057 52.1175V16.1005H31.3392L31.298 16.8624V16.1005H4.0742V44.8688C4.05939 46.3947 4.39274 47.9038 5.04895 49.2815C5.70496 50.6589 6.66653 51.8683 7.86042 52.8177L26.6887 67.5416C27.0827 67.8579 27.4002 68.2595 27.6177 68.7158C27.835 69.1722 27.9466 69.672 27.9439 70.1775C27.9429 70.6855 27.8231 71.1864 27.5941 71.6396C27.3891 72.0912 27.0786 72.4868 26.6887 72.7928L7.86042 87.5168C7.04741 88.158 6.33935 88.9222 5.76153 89.782C4.65447 91.47 4.06762 93.4465 4.0742 95.4656V124.234H31.298V123.493L31.3392 124.255H50.1057L50.0645 92.4591C50.0645 87.2079 49.6118 83.5217 46.5252 81.1124L35.9485 72.7928C34.0348 71.2072 34.899 69.0037 34.899 69.0037C34.9221 68.8944 34.9638 68.79 35.0225 68.6948Z" fill="#2FBF93"/>
<path d="M35.0225 68.6948C35.2274 68.2432 35.538 67.8476 35.9279 67.5416L48.3977 57.8012C49.5122 56.1154 50.1061 54.1387 50.1057 52.1175V16.1005H31.3392L31.298 16.8624V16.1005H4.0742V44.8688C4.05939 46.3947 4.39274 47.9038 5.04895 49.2815C5.70496 50.6589 6.66653 51.8683 7.86042 52.8177L26.6887 67.5416C27.0827 67.8579 27.4002 68.2595 27.6177 68.7158C27.835 69.1722 27.9466 69.672 27.9439 70.1775C27.9429 70.6855 27.8231 71.1864 27.5941 71.6396C27.3891 72.0912 27.0786 72.4868 26.6887 72.7928L7.86042 87.5168C7.04741 88.158 6.33935 88.9222 5.76153 89.782C4.65447 91.47 4.06762 93.4465 4.0742 95.4656V124.234H31.298V123.493L31.3392 124.255H50.1057L50.0645 92.4591C50.0645 87.2079 49.6118 83.5217 46.5252 81.1124L35.9485 72.7928C34.0348 71.2072 34.899 69.0037 34.899 69.0037C34.9221 68.8944 34.9638 68.79 35.0225 68.6948Z" fill="#79D5B9"/>
</g>
<path opacity="0.5" d="M51.2376 28.1679C46.2579 28.1679 41.6486 33.7074 31.2776 36.1374C25.8657 37.5789 19.1164 37.373 10.8854 35.7667C10.422 35.679 9.94504 35.6944 9.48823 35.812C9.03162 35.9298 8.60628 36.1469 8.24289 36.4475C7.87949 36.7484 7.58668 37.1257 7.38543 37.5526C7.18418 37.9794 7.07944 38.4455 7.07862 38.9175V44.6629C7.07759 45.8103 7.33852 46.9431 7.84122 47.9744C8.34413 49.0057 9.07565 49.9087 9.98003 50.6142C23.3759 61.1784 24.343 61.4049 28.8289 65.0911C29.1888 65.3989 29.4779 65.7809 29.6769 66.2111C29.8756 66.6411 29.9796 67.109 29.9812 67.5828V107.286C29.9855 109.879 28.9735 112.371 27.1621 114.226L21.4005 121.598L19.3427 124.234H43.3153L35.0021 113.855C33.5709 112.359 32.7744 110.366 32.7797 108.295V67.8917C32.7816 67.4199 32.8834 66.9537 33.0785 66.5243C33.2736 66.0948 33.5575 65.7115 33.9115 65.4C38.3973 61.6109 33.4999 66.0178 52.6368 50.6966C53.5227 49.9829 54.2376 49.0799 54.7289 48.0535C55.2203 47.0272 55.4759 45.9038 55.4765 44.7659V32.9249C55.4971 30.6391 54.5711 28.1679 51.2376 28.1679Z" fill="#208062"/>
<path d="M63.913 130H6.35781C4.85567 130 3.6416 128.723 3.6416 127.117C3.6416 125.531 4.85567 124.234 6.35781 124.234H63.913C65.4151 124.234 66.6498 125.531 66.6498 127.117C66.6498 128.723 65.4151 130 63.913 130Z" fill="#666262"/>
<path d="M60.2712 130H2.71621C1.21406 130 0 128.723 0 127.117C0 125.531 1.21406 124.234 2.71621 124.234H60.2712C61.7733 124.234 62.9874 125.531 62.9874 127.117C62.9874 128.723 61.7733 130 60.2712 130Z" fill="#333131"/>
<path d="M63.913 19.766H6.35781C4.85567 19.766 3.6416 18.4687 3.6416 16.883C3.6416 15.2974 4.85567 14 6.35781 14H63.913C65.4151 14 66.6498 15.2974 66.6498 16.883C66.6498 18.4687 65.4151 19.766 63.913 19.766Z" fill="#666262"/>
<path d="M60.2712 19.766H2.71621C1.21406 19.766 0 18.4687 0 16.883C0 15.2974 1.21406 14 2.71621 14H60.2712C61.7733 14 62.9874 15.2974 62.9874 16.883C62.9874 18.4687 61.7733 19.766 60.2712 19.766Z" fill="#333131"/>
</svg>
